<?xml version="1.0" encoding="utf-8"?>
<!-- Generator: Adobe Illustrator 28.0.0, SVG Export Plug-In . SVG Version: 6.00 Build 0)  -->
<svg version="1.1" id="Layer_1" xmlns="http://www.w3.org/2000/svg" xmlns:xlink="http://www.w3.org/1999/xlink" x="0px" y="0px"
	 viewBox="0 0 1000 1000" style="enable-background:new 0 0 1000 1000;" xml:space="preserve">
<style type="text/css">
	.st0{fill:#01B8FC;}
	.st1{opacity:0.3;fill:#0095E0;enable-background:new    ;}
	.st2{opacity:0.5;fill:#FFFFFF;enable-background:new    ;}
	.st3{fill:#03A4D6;}
	.st4{fill:#ECECEC;}
	.st5{fill:none;stroke:#ECECEC;stroke-miterlimit:10;}
	.st6{fill:#FFFFFF;}
	.st7{fill:#32037C;}
	.st8{fill:#FC693D;}
	.st9{fill:#1A2E35;}
	.st10{fill:none;stroke:#375A64;stroke-miterlimit:10;}
	.st11{fill:none;stroke:#550DAC;stroke-width:0.5569;stroke-linecap:round;stroke-linejoin:round;stroke-miterlimit:10;}
	.st12{fill:none;stroke:#914735;stroke-width:0.659;stroke-linecap:round;stroke-linejoin:round;stroke-miterlimit:10;}
	.st13{fill:#375A64;}
	.st14{fill:none;stroke:#914735;stroke-width:0.6311;stroke-linecap:round;stroke-linejoin:round;stroke-miterlimit:10;}
	.st15{fill:#904739;}
	.st16{fill:#272A35;}
	.st17{fill:none;stroke:#000000;stroke-width:0.608;stroke-linecap:round;stroke-miterlimit:10;}
	
		.st18{opacity:0.51;fill:none;stroke:#A31E08;stroke-width:0.608;stroke-linecap:round;stroke-miterlimit:10;enable-background:new    ;}
	.st19{fill:none;stroke:#21202C;stroke-width:0.4099;stroke-linecap:round;stroke-linejoin:round;stroke-miterlimit:10;}
	.st20{fill:none;stroke:#01B8FC;stroke-width:5;stroke-miterlimit:10;}
</style>
<g>
	<path class="st0" d="M794.23,417.88H781.7c-1.42,0-2.58-1.15-2.58-2.58v-36.27h17.69v36.27
		C796.81,416.72,795.66,417.88,794.23,417.88z"/>
	<path class="st0" d="M799.21,384.28h-22.08c-4.87,0-8.81-3.95-8.81-8.81v-15.68h39.32v16.07
		C807.63,380.51,803.86,384.28,799.21,384.28z"/>
	<path class="st0" d="M768.31,365.06c0,3.16,0.77,6.14,2.12,8.77c6.34,2.86,19.57,6.64,35.84-0.96c0.88-2.15,1.37-4.49,1.37-6.96
		v-6.12h-39.32v5.27H768.31z"/>
	<path class="st0" d="M731.11,248.58h113.94c4.05,0,7.34,3.25,7.37,7.3c0.2,26.3-3.83,114.63-67.14,114.63
		c-62.02,0-62.67-88.89-61.53-114.88C723.92,251.68,727.15,248.58,731.11,248.58z"/>
	<path class="st0" d="M833.56,331.04c0,0,33.5-1.31,42.92-18.84c9.42-17.54,5.5-32.72-4.97-36.64c-10.47-3.93-16.5,3.59-15.14,8.28
		c0.67,2.3,2.8,2.91,4.8,2.92c1.45,0.01,2.1,1.87,0.98,2.79c-2.72,2.23-7.02,3.83-11.83-1.62c-6.86-7.78,7.85-26.68,25.39-18.66
		c17.54,8.01,17.64,27.9,8.8,45.36c-8.85,17.46-32.59,27.94-62.16,26.77C822.35,341.38,824.04,331.88,833.56,331.04z"/>
	<path class="st0" d="M742.23,331.04c0,0-33.5-1.31-42.92-18.84c-9.42-17.54-5.5-32.72,4.97-36.64c10.47-3.93,16.5,3.59,15.14,8.28
		c-0.67,2.3-2.8,2.91-4.8,2.92c-1.45,0.01-2.1,1.87-0.98,2.79c2.72,2.23,7.02,3.83,11.83-1.62c6.86-7.78-7.85-26.68-25.39-18.66
		c-17.54,8.01-17.64,27.9-8.8,45.36c8.85,17.46,32.59,27.94,62.16,26.77C753.44,341.38,751.74,331.88,742.23,331.04z"/>
	<path class="st1" d="M829.1,248.58c-2.13,25.53-14.85,85.8-86.72,99.21c9.23,13.44,22.86,22.72,42.89,22.72
		c63.58,0,67.38-89.06,67.14-114.95c-0.04-3.87-3.17-6.98-7.04-6.98L829.1,248.58L829.1,248.58z"/>
	<path class="st2" d="M745.93,279.99c0,9.78-2.05,17.7-4.58,17.7s-4.58-7.93-4.58-17.7s2.05-17.7,4.58-17.7
		C743.88,262.29,745.93,270.22,745.93,279.99z"/>
	<path class="st0" d="M812.99,430.8h-50.73c-1.18,0-2.14-0.96-2.14-2.14v-17.67c0-1.18,0.96-2.14,2.14-2.14h50.73
		c1.18,0,2.14,0.96,2.14,2.14v17.67C815.13,429.84,814.17,430.8,812.99,430.8z"/>
</g>
<g>
	<path class="st0" d="M913.09,459.73h-254.1c-1.7,0-3.08-1.38-3.08-3.08v-25.14c0-1.7,1.38-3.08,3.08-3.08h254.1
		c1.7,0,3.08,1.38,3.08,3.08v25.14C916.16,458.35,914.79,459.73,913.09,459.73z"/>
	<path class="st0" d="M790.14,563.08h-254.1c-1.7,0-3.08-1.38-3.08-3.08v-25.14c0-1.7,1.38-3.08,3.08-3.08h254.1
		c1.7,0,3.08,1.38,3.08,3.08V560C793.21,561.71,791.84,563.08,790.14,563.08z"/>
	<path class="st0" d="M633.53,672.67h-254.1c-1.7,0-3.08-1.38-3.08-3.08v-25.14c0-1.7,1.38-3.08,3.08-3.08h254.1
		c1.7,0,3.08,1.38,3.08,3.08v25.14C636.61,671.29,635.23,672.67,633.53,672.67z"/>
	<path class="st0" d="M490.4,774.99H236.3c-1.7,0-3.08-1.38-3.08-3.08v-25.14c0-1.7,1.38-3.08,3.08-3.08h254.1
		c1.7,0,3.08,1.38,3.08,3.08v25.14C493.48,773.61,492.1,774.99,490.4,774.99z"/>
	<path class="st0" d="M341.78,877.94H87.67c-1.7,0-3.08-1.38-3.08-3.08v-25.14c0-1.7,1.38-3.08,3.08-3.08h254.1
		c1.7,0,3.08,1.38,3.08,3.08v25.14C344.85,876.56,343.48,877.94,341.78,877.94z"/>
	<path class="st3" d="M748.25,459.73h-89.72c-1.02,0-1.84-0.83-1.84-1.84v-27.61c0-1.02,0.83-1.84,1.84-1.84h89.72
		c1.02,0,1.84,0.83,1.84,1.84v27.61C750.1,458.91,749.27,459.73,748.25,459.73z"/>
	<path class="st3" d="M623.97,563.08h-89.72c-1.02,0-1.84-0.83-1.84-1.84v-27.61c0-1.02,0.83-1.84,1.84-1.84h89.72
		c1.02,0,1.84,0.83,1.84,1.84v27.61C625.81,562.26,624.98,563.08,623.97,563.08z"/>
	<path class="st3" d="M467.22,672.67H377.5c-1.02,0-1.84-0.83-1.84-1.84v-27.61c0-1.02,0.83-1.84,1.84-1.84h89.72
		c1.02,0,1.84,0.83,1.84,1.84v27.61C469.07,671.84,468.24,672.67,467.22,672.67z"/>
	<path class="st3" d="M323.95,774.99h-89.72c-1.02,0-1.84-0.83-1.84-1.84v-27.61c0-1.02,0.83-1.84,1.84-1.84h89.72
		c1.02,0,1.84,0.83,1.84,1.84v27.61C325.79,774.16,324.97,774.99,323.95,774.99z"/>
	<path class="st3" d="M176.17,877.94H86.44c-1.02,0-1.84-0.83-1.84-1.84v-27.61c0-1.02,0.83-1.84,1.84-1.84h89.72
		c1.02,0,1.84,0.83,1.84,1.84v27.61C178.01,877.12,177.18,877.94,176.17,877.94z"/>
</g>
<g>
	<g>
		<path class="st4" d="M632.67,260.68c2.18,3.74,7.66,3.49,9.5-0.42l18.69-39.64l19.7-41.79c1.61-3.41-0.71-7.38-4.47-7.65
			l-46.08-3.35l-43.71-3.18c-4.31-0.31-7.21,4.34-5.03,8.07l10.32,17.65c1.5,2.56,0.63,5.86-1.93,7.35l-99.79,58.32
			c-2.56,1.5-3.43,4.79-1.93,7.35l19.92,34.09c1.5,2.56,4.79,3.43,7.35,1.93L615,241.1c2.56-1.5,5.86-0.63,7.35,1.93L632.67,260.68z
			"/>
		<path class="st4" d="M519.69,488.76c1.64,2.8,5.74,2.62,7.12-0.31l14-29.7l14.76-31.31c1.21-2.56-0.53-5.53-3.35-5.73l-34.53-2.51
			l-32.75-2.38c-3.23-0.23-5.4,3.25-3.77,6.05l7.73,13.23c1.12,1.92,0.48,4.39-1.45,5.51l-74.77,43.69
			c-1.92,1.12-2.57,3.59-1.45,5.51l14.93,25.54c1.12,1.92,3.59,2.57,5.51,1.45l74.77-43.69c1.92-1.12,4.39-0.48,5.51,1.45
			L519.69,488.76z"/>
		<path class="st4" d="M239.02,626.56c2.18,3.74,7.66,3.49,9.5-0.42l18.69-39.64l19.7-41.79c1.61-3.41-0.71-7.38-4.47-7.65
			l-46.08-3.35l-43.71-3.18c-4.31-0.31-7.21,4.34-5.03,8.07l10.32,17.65c1.5,2.56,0.63,5.86-1.93,7.35l-99.79,58.32
			c-2.56,1.5-3.43,4.79-1.93,7.35l19.92,34.09c1.5,2.56,4.79,3.43,7.35,1.93l99.79-58.32c2.56-1.5,5.86-0.63,7.35,1.93
			L239.02,626.56z"/>
	</g>
	<g>
		<path class="st4" d="M848.56,717.84h-139c-1.25,0-2.27-1.02-2.27-2.27v-27.93c0-1.25,1.02-2.27,2.27-2.27h139.01
			c1.25,0,2.27,1.02,2.27,2.27v27.93C850.83,716.82,849.82,717.84,848.56,717.84z"/>
		<path class="st4" d="M651.46,886.3h-139c-1.25,0-2.27-1.02-2.27-2.27V856.1c0-1.25,1.02-2.27,2.27-2.27h139.01
			c1.25,0,2.27,1.02,2.27,2.27v27.93C653.73,885.29,652.72,886.3,651.46,886.3z"/>
		<path class="st5" d="M911.28,793.9h-139c-1.25,0-2.27-1.02-2.27-2.27V763.7c0-1.25,1.02-2.27,2.27-2.27h139.01
			c1.25,0,2.27,1.02,2.27,2.27v27.93C913.55,792.89,912.54,793.9,911.28,793.9z"/>
	</g>
	<g>
		<path class="st6" d="M162.9,188.63c0,3.81-3.09,6.91-6.91,6.91c-3.81,0-6.91-3.09-6.91-6.91c0-3.81,3.09-6.91,6.91-6.91
			S162.9,184.81,162.9,188.63z"/>
		<path class="st6" d="M687.35,192.64c0,5.09-4.13,9.22-9.22,9.22c-5.09,0-9.22-4.13-9.22-9.22s4.13-9.22,9.22-9.22
			S687.35,187.55,687.35,192.64z"/>
		<circle class="st6" cx="892.27" cy="615.89" r="7.77"/>
		<path class="st6" d="M629.01,805.79c0,4.29-3.48,7.77-7.77,7.77c-4.29,0-7.77-3.48-7.77-7.77c0-4.29,3.48-7.77,7.77-7.77
			C625.53,798.02,629.01,801.5,629.01,805.79z"/>
		<path class="st6" d="M137,779.89c0,7.15-5.8,12.95-12.95,12.95s-12.95-5.8-12.95-12.95s5.8-12.95,12.95-12.95
			S137,772.74,137,779.89z"/>
	</g>
</g>
<g>
	<path class="st7" d="M387.89,333.9c3.82,2.78,14.64-4.73,23.13-16.41c8.5-11.68,12.37-23.86,8.55-26.64
		c-3.82-2.78-13.87,4.9-22.37,16.58C388.7,319.12,384.07,331.13,387.89,333.9z"/>
	<path class="st7" d="M227.59,326.62c-4.09,2.36-14-6.15-21.16-18.54s-9.67-24.82-5.58-27.18s13.22,6.24,20.38,18.64
		C228.38,311.93,231.67,324.26,227.59,326.62z"/>
	<path class="st8" d="M393.04,273.96l44.3,40.67c9.68,8.89,9.56,24.64-0.85,32.67c-6.24,4.81-12.85,4.4-25.65-4.2l-47.86-37.6
		L393.04,273.96z"/>
	<path class="st8" d="M382.88,581.41l-0.18,26.44l44.45,3.26l-2.47-40.14C424.68,570.98,395.61,567.71,382.88,581.41z"/>
	<path class="st9" d="M382.87,604.7c-1.55,0.01-2.79,1.13-2.82,2.53c-0.32,14.73-3.53,34.65,5.29,34.61
		c7.68-0.03,84.79-0.38,88.19-0.39c3.4-0.02,2.43-10.12-6.94-12.38c-8.79-2.12-30.54-16.72-35.09-23.37
		c-0.52-0.76-1.41-1.2-2.39-1.2L382.87,604.7z"/>
	<path class="st8" d="M213.79,658.29l-10.68,24.19l39.49,20.66l13.69-37.81C256.29,665.34,230.92,650.78,213.79,658.29z"/>
	<path class="st9" d="M204.18,676.72c-1.35-0.76-2.98-0.4-3.7,0.8c-7.57,12.64-20.22,28.36-12.53,32.7
		c5.07,2.86,39.48,22.05,59.75,33.48c0,0,22.57,0.57,24.55-0.26c3.14-1.32-4.79-8.33-13.57-15.14c0,0-12.08-18.61-12.74-26.64
		c-0.08-0.91-0.63-1.74-1.49-2.23L204.18,676.72z"/>
	<path class="st9" d="M343.71,397.77c0.97,0.83-0.32,15.46-0.23,16.73c1.14,16.03-17.19,113.4-18.75,125.77
		c-1.51,11.89-51.91,122.92-62.96,147.14c-1.15,2.52-4.19,3.52-6.61,2.19l-53.09-29.17c-2.13-1.17-3.04-3.77-2.09-6.01l55.88-132.73
		c0.16-0.39,0.27-0.8,0.33-1.22l7.59-122.4c0.95-24.1,15.16-41.36,18.02-38.93L343.71,397.77z"/>
	<polyline class="st10" points="228.4,624.54 270.39,529.42 274.95,462.35 	"/>
	<line class="st10" x1="256.67" y1="674.03" x2="211.93" y2="650.97"/>
	<path class="st9" d="M261.03,353.41c-1.92,0.48-22.3,24.21-18.95,54.47c1.15,10.35,8.57,31.63,25.12,39.56
		c32.9,15.76,85.88,18.24,108.08,15.49c5.94-0.74,5.45,7.56,5.01,11.55l-12.46,109.31c0.52,2.96,2.88,3.63,6.42,3.61l60.03,3.87
		c2.11-0.82,2.62-3.01,2.95-5.24c4.4-29.57,21.58-177.94,5.62-192.71c-16.23-15.03-121.65-14.3-134.5-21.6
		c-1.06-0.6,2.22-8.02,1.04-7.72L261.03,353.41z"/>
	<path class="st10" d="M340.7,447.13c16.58,2.38,33.11,2.18,41.7,1.84c3.9-0.16,7.25,2.73,7.66,6.61
		c2.74,25.71-8.84,105.86-8.84,105.86"/>
	<line class="st10" x1="428.58" y1="582.1" x2="380.29" y2="579.34"/>
	<path class="st11" d="M261.31,443.32c6.11,7.92,17.38,13.63,30.07,16.17c14.09,2.82,34.69,3.73,46.14,4.23"/>
	<g id="hand_6_">
		<path class="st8" d="M515.89,299.33c4.84-5.72,17.02-13.95,19.56-15.23s13.32-4.85,16.09-4.04s-0.13,6.04-7.01,8.63l-1.03,1.33
			c0,0,8.13-1.82,13.91-4.26c5.78-2.44,9.37-2.47,9.89-0.24s-12.27,9.57-14.91,10.19l0.6,1.33c0,0,17.42-4.59,19.84-4.45
			c2.9,0.16,2.02,4.37-1.82,6.07c0,0,3.79,0.24,3.67,2.53s-17.15,9.47-17.15,9.47s14.48-2.87,14.9,0.84
			c0.42,3.71-34.14,12.09-47.97,13.38c0,0-59.14,20.89-74.24,24.51c-19.71,4.72-40.82-0.5-40.86-13.52
			C409.31,317.09,445.41,308.09,515.89,299.33z"/>
		<path class="st12" d="M535.45,284.09c2.54-1.28,13.32-4.85,16.09-4.04s-0.13,6.04-7.01,8.63l-1.03,1.33c0,0,8.13-1.82,13.91-4.26
			c5.78-2.44,9.37-2.47,9.89-0.24s-12.27,9.57-14.91,10.19l0.6,1.33c0,0,17.42-4.59,19.84-4.45c2.9,0.16,2.02,4.37-1.82,6.07
			c0,0,3.79,0.24,3.67,2.53s-17.15,9.47-17.15,9.47s14.48-2.87,14.9,0.84c0.21,1.86-6.75,4.26-15.48,6.36"/>
		<g>
			<path class="st12" d="M544.53,288.68c-3.68,7.34-10.68,15.87-11.96,16.08"/>
			<path class="st12" d="M551.86,292.7c1.14,2.8,0.36,16.37,0.36,16.37"/>
			<line class="st12" x1="557.54" y1="310.64" x2="552.32" y2="312.09"/>
			<path class="st12" d="M552.39,305.17c0.01-0.25,18.63-6.53,18.63-6.53"/>
		</g>
	</g>
	<path class="st13" d="M373.4,282.41l-11.88,63.01l-5.56,32.25c-0.58,2.47-2.93,3.37-5.15,4.6c-24.58,13.63-31.39,0.12-81.79,10.17
		c-31.74,6.33-32.18,0.92-27.7-25.99c5.86-35.18,3.98-101.06,4.29-102.66c6.16-31.92,22.36-30.42,45.17-34.21
		c25.16-4.18,53.58-3.33,53.58-3.33s8.82,1.77,23.77,9.87c6.79,3.68,10.71,5.3,11.88,16.34
		C381.44,265.72,378.63,244.69,373.4,282.41z"/>
	<path class="st13" d="M375.31,240.63l44.84,50.84c0.59,0.66,0,0,0,0c-5.87,3.22-27.2,18.42-31.41,43.04l-49.71-39.85l0,0
		l33.21-54.2C372.72,239.67,374.7,239.94,375.31,240.63z"/>
	<path class="st8" d="M231.07,266.83L184,299.2c-10.29,7.08-12.27,21.91-3.54,30.84c5.23,5.36-7.77,19.62,17.41,4.85l57.29-34.4
		L231.07,266.83z"/>
	<path class="st13" d="M259.18,237.69l-58.47,43.24c-0.67,0.57-0.18,0.51,0.52,1.04c5.35,4,25.54,19.87,26.35,44.65l52.16-30.95
		c0.6-0.35,0.84-1.1,0.56-1.73l-18.06-55.99C261.88,237.1,259.89,237.1,259.18,237.69z"/>
	<g id="hand_5_">
		<path class="st8" d="M195.15,295.75c-18.57,1.92-33.08,25.34-47.03,42.65c-13.94,17.32-28.67,39.29-28.67,39.29
			s-11.93,17.97-15.63,24.84s-2.76,9.09-1.54,9.53s7.31-7.07,8.43-8.52c0,0-2.81,9.92-3.17,14.91s2.01,6.95,4.81,2.77
			c0,0-0.99,6.23,2.24,6.5c3.23,0.27,11.06-21.83,11.06-21.83s-5.95,18.28-1.74,20.57c4.22,2.29,12.74-24.24,12.74-24.24
			s3.84,12.7,7.08,11.99c3.24-0.71,2.65-6.59,2.71-11.61c0.06-5.02-1.43-16.47,0.33-18.77c1.77-2.3,53.84-43.38,61.5-61.5
			C215.39,305.52,206.42,294.58,195.15,295.75z"/>
		<g>
			<path class="st14" d="M130.93,361.21c-6.69,9.34-11.48,16.48-11.48,16.48s-11.93,17.97-15.63,24.84s-2.76,9.09-1.54,9.53
				s7.31-7.07,8.43-8.52c0,0-2.81,9.92-3.17,14.91s2.01,6.95,4.81,2.77c0,0-0.99,6.23,2.24,6.5c3.23,0.27,11.06-21.83,11.06-21.83
				s-5.95,18.28-1.74,20.57c4.22,2.29,12.74-24.24,12.74-24.24s3.84,12.7,7.08,11.99c3.24-0.71,2.65-6.59,2.71-11.61"/>
			<path class="st14" d="M117.55,403.92c-1.23,3.5-5.2,17.3-5.2,17.3"/>
			<line class="st14" x1="112.27" y1="399.56" x2="110.71" y2="403.54"/>
		</g>
	</g>
	<path class="st9" d="M352.78,186.49c0,0,10.59-6.91,10.19-24.44c-0.17-7.28-3.77-12.27-5.45-15.77c-2.36-4.93-1.4-7.5-6.39-12.42
		c-4.55-4.48-12.26-4.91-22.04-6.34c-8.56-1.25-22.08-2.68-28.64,2.64c-7.64,6.19-12.4,14.45-17.29,21.38
		c-4.12,5.83-5.7,7.85-6.2,17.69c-0.52,10.12,4.71,16.33,9.25,23.08c5.11,7.61,7.56,16.01,12.88,19.72
		C309.13,219.04,352.78,186.49,352.78,186.49z"/>
	<path class="st8" d="M340.12,236.21c0,0-3.34,15.63-13.71,16.82c-16.93,1.94-30.68-23.95-30.68-23.95
		c2.73-21.71,1.73-37.18,1.73-37.18c-2.22-13.88,26.96-30.3,36.24,10.58l1.03,5.44l3.62,19.05L340.12,236.21z"/>
	<path class="st15" d="M338.47,227.63c-10.93,0.91-24.42-5.29-31.34-19.08l27.61-0.62L338.47,227.63z"/>
	<g>
		<path class="st8" d="M333.44,223.74c-14.7,0.2-29.8-12.72-36.12-33.14c-7.06-22.78,1.32-31.74,4.72-39.69
			c3.4-7.94,6.35-12.43,30.49-12.39c21.05,0.03,23.22,6.45,24.4,43.25c0.1,3.16,0.45,17.61-1.76,24.13
			C351.28,217.46,344.33,223.59,333.44,223.74z"/>
	</g>
	<path class="st8" d="M302.94,185.28c0.43-7.97-10.36-15.61-15.23-5.66c-4.21,8.62,4.59,13.23,12.44,13.35L302.94,185.28z"/>
	<path class="st9" d="M318.71,148.82c0,0-6.53,33.83-24.51,28.49c-8.2-2.44-8.15-18.27-8.15-18.27L318.71,148.82z"/>
	<path class="st9" d="M358.55,155.94c0,0-16.4,15.32-52.87,1.2l-14.81,9.3l2.94-20.85l27.6-9.4l16.74,0.88l10.86,2.35l1.39,1.12
		C355.13,144.33,353.46,149.13,358.55,155.94L358.55,155.94z"/>
	<path d="M327.6,178.7c0.83-0.28,1.73,0.48,2,1.71c0.27,1.22-0.18,2.44-1.01,2.73c-0.83,0.28-1.73-0.48-2-1.71
		C326.32,180.2,326.77,178.98,327.6,178.7z"/>
	<g>
		<path class="st16" d="M331.08,175.81c-0.21,0.73-2.54,0.36-5.11,0.45c-2.64,0.32-4.9,0.93-5.18,0.28
			c-0.28-0.24,0.28-0.97,1.15-1.58s2.29-1.13,3.86-1.33c1.67-0.16,3.16,0.28,3.96,0.73C330.73,175.01,331.18,175.45,331.08,175.81z"
			/>
	</g>
	<path class="st17" d="M339.22,183.69c0,0,5.49,8.24,5.13,9.59c-0.09,0.72-1.72,1.26-2.99,1.53"/>
	<path d="M350.13,177.85c-0.83-0.28-1.73,0.48-2,1.71c-0.27,1.22,0.18,2.44,1.01,2.73c0.83,0.28,1.73-0.48,2-1.71
		C351.41,179.35,350.96,178.13,350.13,177.85z"/>
	<g>
		<path class="st16" d="M342.38,174.97c0.24,0.71,2.55,0.19,5.13,0.1c2.65,0.15,4.94,0.6,5.19-0.06c0.27-0.26-0.33-0.95-1.22-1.5
			c-0.9-0.55-2.35-0.98-3.92-1.07c-1.67-0.05-3.15,0.49-3.92,0.99C342.69,174.14,342.26,174.61,342.38,174.97z"/>
	</g>
	<path class="st18" d="M333.19,202.79c0,0,2.78,4.79,9.71,2.14"/>
	<path class="st19" d="M445.25,113L445.25,113c-22.56,0-40.84,18.29-40.84,40.84v0.05c0,10.35,3.88,19.77,10.23,26.97l-10.3,12.03
		c-1.58,1.85,0.13,4.63,2.49,4.07l22.57-5.42c4.87,2.06,10.23,3.19,15.85,3.19l0,0c22.56,0,40.84-18.29,40.84-40.84v-0.05
		C486.09,131.29,467.8,113,445.25,113z"/>
	<path class="st20" d="M425.05,157.11l11.48,13.21c0.8,0.92,2.24,0.91,3.02-0.04l26.65-32.24"/>
</g>
</svg>
