<?xml version="1.0" encoding="utf-8"?>
<!-- Generator: Adobe Illustrator 28.0.0, SVG Export Plug-In . SVG Version: 6.00 Build 0)  -->
<svg version="1.1" id="Layer_1" xmlns="http://www.w3.org/2000/svg" xmlns:xlink="http://www.w3.org/1999/xlink" x="0px" y="0px"
	 viewBox="0 0 1000 1000" style="enable-background:new 0 0 1000 1000;" xml:space="preserve">
<style type="text/css">
	.st0{opacity:0.3;fill:#01B8FC;enable-background:new    ;}
	.st1{opacity:0.3;}
	.st2{fill:none;stroke:#00AFDF;stroke-width:0.9049;stroke-miterlimit:9.9999;stroke-dasharray:4.0972,4.0972;}
	.st3{clip-path:url(#SVGID_00000064320892551725080240000012030961347614914187_);fill:#D2F4FF;}
	.st4{clip-path:url(#SVGID_00000140005074792066619850000000897285934375065276_);}
	.st5{fill:#ECECEC;}
	.st6{clip-path:url(#SVGID_00000034777673564380531440000008036340410549852578_);fill:#01B8FC;}
	.st7{clip-path:url(#SVGID_00000088092885733892642400000004834817719419391897_);}
	.st8{fill:#2C54AC;}
	.st9{fill:#0A2A6B;}
	.st10{fill:#9DDCF9;}
	.st11{clip-path:url(#SVGID_00000025419375833425833710000011422641664314023581_);fill:#D2F4FF;}
	.st12{opacity:0.3;clip-path:url(#SVGID_00000003074816202348975200000006986319972312184508_);}
	.st13{fill:#01B8FC;}
	.st14{fill:#91C4FB;}
	.st15{fill:#32338C;}
	.st16{fill:none;stroke:#32338C;stroke-width:0.4083;stroke-miterlimit:10;}
	.st17{fill:none;stroke:#32338C;stroke-width:0.4083;stroke-miterlimit:10;stroke-dasharray:2.4401,2.4401;}
	.st18{fill:none;stroke:#32338C;stroke-width:0.4083;stroke-miterlimit:10;stroke-dasharray:2.4431,2.4431;}
	.st19{fill:none;stroke:#32338C;stroke-width:0.4083;stroke-miterlimit:10;stroke-dasharray:2.4632,2.4632;}
	.st20{fill:none;stroke:#32338C;stroke-width:0.4083;stroke-miterlimit:10;stroke-dasharray:2.4768,2.4768;}
	.st21{fill:none;stroke:#32338C;stroke-width:0.4083;stroke-miterlimit:10;stroke-dasharray:2.4854,2.4854;}
	.st22{fill:none;stroke:#32338C;stroke-width:0.4083;stroke-miterlimit:10;stroke-dasharray:2.4869,2.4869;}
	.st23{fill:none;stroke:#32338C;stroke-width:0.4083;stroke-miterlimit:10;stroke-dasharray:2.4963,2.4963;}
	.st24{clip-path:url(#SVGID_00000129926045794235802200000016460187100885763215_);}
	.st25{fill:#EEEEFF;}
	.st26{fill:#FE814B;}
	.st27{fill:#375A64;}
	.st28{fill:#FFFFFF;}
	.st29{fill:none;stroke:#1A2E35;stroke-miterlimit:10;}
	.st30{fill:#1A2E35;}
	.st31{fill:#F07167;}
	.st32{fill:none;stroke:#375A64;stroke-miterlimit:10;}
	.st33{opacity:0.37;}
</style>
<g>
	<ellipse class="st0" cx="494.5" cy="466.6" rx="398.6" ry="398.6"/>
	<g class="st1">
		<ellipse class="st2" cx="494.5" cy="466.6" rx="418.6" ry="418.6"/>
	</g>
</g>
<g>
	<g>
		<g>
			<defs>
				
					<ellipse id="SVGID_1_" transform="matrix(0.7071 -0.7071 0.7071 0.7071 -182.3195 485.1873)" cx="494.51" cy="462.67" rx="376.9" ry="376.9"/>
			</defs>
			<clipPath id="SVGID_00000133507501112139916240000005300910892036803752_">
				<use xlink:href="#SVGID_1_"  style="overflow:visible;"/>
			</clipPath>
			
				<rect x="97.5" y="35.7" style="clip-path:url(#SVGID_00000133507501112139916240000005300910892036803752_);fill:#D2F4FF;" width="793.9" height="793.9"/>
		</g>
	</g>
	<g>
		<g>
			<defs>
				
					<ellipse id="SVGID_00000137836039658478180880000016683792909440661678_" transform="matrix(0.7071 -0.7071 0.7071 0.7071 -182.3195 485.1873)" cx="494.51" cy="462.67" rx="376.9" ry="376.9"/>
			</defs>
			<clipPath id="SVGID_00000021829799991548252720000010657048595562931360_">
				<use xlink:href="#SVGID_00000137836039658478180880000016683792909440661678_"  style="overflow:visible;"/>
			</clipPath>
			<g style="clip-path:url(#SVGID_00000021829799991548252720000010657048595562931360_);">
				<g>
					<rect x="222.3" y="357.7" class="st5" width="52.2" height="22.7"/>
					<rect x="196.2" y="332.8" class="st5" width="52.2" height="22.7"/>
				</g>
				<g>
					<rect x="822.7" y="485.6" class="st5" width="52.2" height="22.7"/>
					<rect x="796.6" y="460.7" class="st5" width="52.2" height="22.7"/>
				</g>
				<g>
					<rect x="261.5" y="227.4" class="st5" width="52.2" height="22.7"/>
					<rect x="317.8" y="227.4" class="st5" width="52.2" height="22.7"/>
					<rect x="289.3" y="254.3" class="st5" width="52.2" height="22.7"/>
					<rect x="343.9" y="202.5" class="st5" width="52.2" height="22.7"/>
				</g>
				<g>
					<rect x="250.5" y="514.4" class="st5" width="52.2" height="22.7"/>
					<rect x="306.8" y="514.4" class="st5" width="52.2" height="22.7"/>
					<rect x="278.3" y="541.2" class="st5" width="52.2" height="22.7"/>
					<rect x="332.9" y="489.4" class="st5" width="52.2" height="22.7"/>
				</g>
			</g>
		</g>
	</g>
	<g>
		<g>
			<defs>
				
					<ellipse id="SVGID_00000029011943337354712600000006926864315658610846_" transform="matrix(0.7071 -0.7071 0.7071 0.7071 -182.3195 485.1873)" cx="494.51" cy="462.67" rx="376.9" ry="376.9"/>
			</defs>
			<clipPath id="SVGID_00000049201464388409311510000000051271094715312257_">
				<use xlink:href="#SVGID_00000029011943337354712600000006926864315658610846_"  style="overflow:visible;"/>
			</clipPath>
			
				<rect x="125.5" y="557" style="clip-path:url(#SVGID_00000049201464388409311510000000051271094715312257_);fill:#01B8FC;" width="762.5" height="303.2"/>
		</g>
	</g>
	<g>
		<g>
			<defs>
				
					<ellipse id="SVGID_00000059300810215455644480000016076807677903492767_" transform="matrix(0.7071 -0.7071 0.7071 0.7071 -182.3195 485.1873)" cx="494.51" cy="462.67" rx="376.9" ry="376.9"/>
			</defs>
			<clipPath id="SVGID_00000026848090080493961760000000057706829392017851_">
				<use xlink:href="#SVGID_00000059300810215455644480000016076807677903492767_"  style="overflow:visible;"/>
			</clipPath>
			<g style="clip-path:url(#SVGID_00000026848090080493961760000000057706829392017851_);">
				<rect x="733.8" y="548.4" class="st8" width="204.3" height="8"/>
				<path class="st8" d="M703.3,443.5h126.3c3.9,0,7.5,3,9.1,7.6l35.8,105.3H733.8l-35.2-103.6C697.1,448.4,699.6,443.5,703.3,443.5
					z"/>
				<path class="st9" d="M696.3,443.5h130.9c3.1,0,5.9,2.4,7.1,6l36.3,106.9H730L693.5,449C692.6,446.4,694.1,443.5,696.3,443.5z"/>
				<path class="st10" d="M762.3,500c1.4,8.6,9.5,15.5,18.1,15.5s14.3-6.9,12.9-15.5s-9.5-15.5-18.1-15.5
					C766.7,484.5,760.9,491.4,762.3,500z"/>
			</g>
		</g>
	</g>
	<g>
		<g>
			<defs>
				
					<ellipse id="SVGID_00000063592416854251331270000012100271060772318139_" transform="matrix(0.7071 -0.7071 0.7071 0.7071 -182.3195 485.1873)" cx="494.51" cy="462.67" rx="376.9" ry="376.9"/>
			</defs>
			<clipPath id="SVGID_00000011728199644947730370000001251232879834953390_">
				<use xlink:href="#SVGID_00000063592416854251331270000012100271060772318139_"  style="overflow:visible;"/>
			</clipPath>
			
				<rect x="382.4" y="12.6" style="clip-path:url(#SVGID_00000011728199644947730370000001251232879834953390_);fill:#D2F4FF;" width="484.5" height="397.3"/>
		</g>
	</g>
	<g>
		<g>
			<defs>
				
					<ellipse id="SVGID_00000025428295313254622810000013794664174350684854_" transform="matrix(0.7071 -0.7071 0.7071 0.7071 -182.3195 485.1873)" cx="494.51" cy="462.67" rx="376.9" ry="376.9"/>
			</defs>
			<clipPath id="SVGID_00000113325977493941770910000009658179126546672540_">
				<use xlink:href="#SVGID_00000025428295313254622810000013794664174350684854_"  style="overflow:visible;"/>
			</clipPath>
			<g style="opacity:0.3;clip-path:url(#SVGID_00000113325977493941770910000009658179126546672540_);">
				<rect x="690.4" y="301.4" class="st5" width="26.3" height="108.5"/>
				<rect x="650.1" y="287" class="st13" width="26.3" height="122.9"/>
				<rect x="609.8" y="273.5" class="st5" width="26.3" height="136.4"/>
				<rect x="569.5" y="258.6" class="st13" width="26.3" height="151.3"/>
				<rect x="529.2" y="242" class="st5" width="26.3" height="167.9"/>
				<rect x="488.9" y="222.2" class="st13" width="26.3" height="187.7"/>
				<rect x="448.7" y="175.6" class="st5" width="26.4" height="234.4"/>
				<rect x="408.4" y="137.9" class="st13" width="26.4" height="272"/>
				<g>
					<path class="st14" d="M720.3,191.5c0,8.6-2,17.4-5.7,25.1l-2.9,6.1l-25.4-25.6l0.5-2.4c0.1-0.9,0.2-2,0.2-3.2
						c0-10.2-6.4-19.3-15.8-22.6l-3.2-1.1V134l5.6,1.1C700.7,139.9,720.3,163.7,720.3,191.5z"/>
					<path class="st15" d="M681,207.8l23.5,23.7l-3.8,3.3c-10.4,9.1-23.7,14.1-37.5,14.1s-27.1-5-37.5-14.1l-3.8-3.3l23.5-23.7
						l3.3,2.7c8.2,6.5,20.7,6.5,28.9,0L681,207.8z"/>
					<path class="st13" d="M652.9,134.9l5.6-1.1v33.9l-3.2,1.1c-9.5,3.3-15.8,12.4-15.8,22.6c0,1.2,0.1,2.3,0.2,3.2l0.5,2.4
						l-25.4,25.6l-2.9-6.1c-3.8-7.8-5.7-16.5-5.7-25.1C606.2,163.7,625.8,139.9,652.9,134.9z"/>
				</g>
				<g>
					<path class="st13" d="M461.5,133.9h141.8c1.6,0,2.9-1.3,2.9-2.9l0,0c0-1.6-1.3-2.9-2.9-2.9H461.5c-1.6,0-2.9,1.3-2.9,2.9l0,0
						C458.6,132.6,459.9,133.9,461.5,133.9z"/>
					<path class="st13" d="M461.5,143.8h141.8c1.6,0,2.9-1.3,2.9-2.9l0,0c0-1.6-1.3-2.9-2.9-2.9H461.5c-1.6,0-2.9,1.3-2.9,2.9l0,0
						C458.6,142.5,459.9,143.8,461.5,143.8z"/>
					<path class="st13" d="M461.5,153.6h141.8c1.6,0,2.9-1.3,2.9-2.9l0,0c0-1.6-1.3-2.9-2.9-2.9H461.5c-1.6,0-2.9,1.3-2.9,2.9l0,0
						C458.6,152.3,459.9,153.6,461.5,153.6z"/>
				</g>
				<g>
					<path class="st13" d="M733.5,309.5h141.8c1.6,0,2.9-1.3,2.9-2.9l0,0c0-1.6-1.3-2.9-2.9-2.9H733.5c-1.6,0-2.9,1.3-2.9,2.9l0,0
						C730.6,308.2,731.9,309.5,733.5,309.5z"/>
					<path class="st13" d="M733.5,319.3h141.8c1.6,0,2.9-1.3,2.9-2.9l0,0c0-1.6-1.3-2.9-2.9-2.9H733.5c-1.6,0-2.9,1.3-2.9,2.9l0,0
						C730.6,318,731.9,319.3,733.5,319.3z"/>
					<path class="st13" d="M733.5,329.2h141.8c1.6,0,2.9-1.3,2.9-2.9l0,0c0-1.6-1.3-2.9-2.9-2.9H733.5c-1.6,0-2.9,1.3-2.9,2.9l0,0
						C730.6,327.9,731.9,329.2,733.5,329.2z"/>
				</g>
				<g>
					<path class="st13" d="M733.5,339.8h141.8c1.6,0,2.9-1.3,2.9-2.9l0,0c0-1.6-1.3-2.9-2.9-2.9H733.5c-1.6,0-2.9,1.3-2.9,2.9l0,0
						C730.6,338.5,731.9,339.8,733.5,339.8z"/>
					<path class="st13" d="M733.5,349.7h141.8c1.6,0,2.9-1.3,2.9-2.9l0,0c0-1.6-1.3-2.9-2.9-2.9H733.5c-1.6,0-2.9,1.3-2.9,2.9l0,0
						C730.6,348.4,731.9,349.7,733.5,349.7z"/>
					<path class="st13" d="M733.5,359.5h141.8c1.6,0,2.9-1.3,2.9-2.9l0,0c0-1.6-1.3-2.9-2.9-2.9H733.5c-1.6,0-2.9,1.3-2.9,2.9l0,0
						C730.6,358.2,731.9,359.5,733.5,359.5z"/>
				</g>
				<g>
					<path class="st13" d="M733.5,370.1h141.8c1.6,0,2.9-1.3,2.9-2.9l0,0c0-1.6-1.3-2.9-2.9-2.9H733.5c-1.6,0-2.9,1.3-2.9,2.9l0,0
						C730.6,368.8,731.9,370.1,733.5,370.1z"/>
					<path class="st13" d="M733.5,380h141.8c1.6,0,2.9-1.3,2.9-2.9l0,0c0-1.6-1.3-2.9-2.9-2.9H733.5c-1.6,0-2.9,1.3-2.9,2.9l0,0
						C730.6,378.7,731.9,380,733.5,380z"/>
					<path class="st13" d="M733.5,389.8h141.8c1.6,0,2.9-1.3,2.9-2.9l0,0c0-1.6-1.3-2.9-2.9-2.9H733.5c-1.6,0-2.9,1.3-2.9,2.9l0,0
						C730.6,388.5,731.9,389.8,733.5,389.8z"/>
				</g>
				<g>
					<path class="st14" d="M583.9,160.9h-31.3c-5.6,0-10.2,4.6-10.2,10.2l0,0c0,5.6,4.6,10.2,10.2,10.2h31.3V160.9z"/>
					<path class="st15" d="M583.9,181.3L583.9,181.3c5.6,0,10.2-4.6,10.2-10.2l0,0c0-5.6-4.6-10.2-10.2-10.2l0,0
						c-5.6,0-10.2,4.6-10.2,10.2l0,0C573.7,176.7,578.2,181.3,583.9,181.3z"/>
				</g>
				<g>
					<path class="st14" d="M524.3,160.9H493c-5.6,0-10.2,4.6-10.2,10.2l0,0c0,5.6,4.6,10.2,10.2,10.2h31.3V160.9z"/>
					<path class="st15" d="M524.3,181.3L524.3,181.3c5.6,0,10.2-4.6,10.2-10.2l0,0c0-5.6-4.6-10.2-10.2-10.2l0,0
						c-5.6,0-10.2,4.6-10.2,10.2l0,0C514.1,176.7,518.7,181.3,524.3,181.3z"/>
				</g>
				<g>
					<g>
						<line class="st16" x1="382.2" y1="180.8" x2="383.2" y2="180"/>
						<line class="st17" x1="385" y1="178.4" x2="425.5" y2="145"/>
						<polyline class="st16" points="426.5,144.3 427.4,143.5 428.2,144.4 						"/>
						<line class="st18" x1="429.8" y1="146.2" x2="500.5" y2="225.6"/>
						<polyline class="st16" points="501.3,226.5 502.1,227.4 503,226.6 						"/>
						<line class="st19" x1="504.9" y1="225" x2="540.6" y2="192.8"/>
						<polyline class="st16" points="541.5,192 542.4,191.2 543.2,192.1 						"/>
						<line class="st20" x1="544.9" y1="193.9" x2="604.2" y2="258.9"/>
						<polyline class="st16" points="605,259.8 605.8,260.7 606.7,259.8 						"/>
						<line class="st21" x1="608.5" y1="258.1" x2="671.5" y2="196.3"/>
						<polyline class="st16" points="672.4,195.4 673.2,194.6 674.1,195.4 						"/>
						<line class="st22" x1="675.9" y1="197.2" x2="752.5" y2="273.5"/>
						<polyline class="st16" points="753.4,274.4 754.3,275.3 755.1,274.4 						"/>
						<line class="st23" x1="756.9" y1="272.6" x2="794.8" y2="234.7"/>
						<line class="st16" x1="795.7" y1="233.8" x2="796.6" y2="232.9"/>
					</g>
				</g>
			</g>
		</g>
	</g>
	<g>
		<g>
			<defs>
				
					<ellipse id="SVGID_00000024699215135787794040000002583118791590254520_" transform="matrix(0.7071 -0.7071 0.7071 0.7071 -182.3195 485.1873)" cx="494.51" cy="462.67" rx="376.9" ry="376.9"/>
			</defs>
			<clipPath id="SVGID_00000147927087811906128560000001319744143363588996_">
				<use xlink:href="#SVGID_00000024699215135787794040000002583118791590254520_"  style="overflow:visible;"/>
			</clipPath>
			<g style="clip-path:url(#SVGID_00000147927087811906128560000001319744143363588996_);">
				<rect x="116.5" y="404.8" class="st14" width="40.4" height="152.2"/>
				<rect x="116.5" y="431.5" class="st25" width="40.4" height="5.8"/>
				<rect x="116.5" y="443" class="st25" width="40.4" height="5.8"/>
				<path class="st25" d="M146.7,467.3c0,5.5-4.5,10-10,10s-10-4.5-10-10s4.5-10,10-10S146.7,461.8,146.7,467.3z"/>
				<rect x="156.8" y="445.8" class="st13" width="40.4" height="111.2"/>
				<rect x="197.2" y="421.8" class="st15" width="40.4" height="135.2"/>
				<rect x="237.6" y="390.5" class="st14" width="40.4" height="166.6"/>
				<rect x="156.8" y="472.6" class="st15" width="40.4" height="5.8"/>
				<rect x="156.8" y="536.4" class="st15" width="40.4" height="5.8"/>
				<rect x="237.6" y="520" class="st15" width="40.4" height="37"/>
				<rect x="237.6" y="510.5" class="st15" width="40.4" height="3.9"/>
				<rect x="237.6" y="404.8" class="st15" width="40.4" height="3.9"/>
			</g>
		</g>
	</g>
</g>
<g>
	<g>
		<g>
			<polygon class="st26" points="504.1,336.5 475.5,336.5 469.5,379.1 504.1,405 			"/>
			<g>
				<path class="st27" d="M479.1,535.2c-1.1-59.4-20.1-121-29.9-149l-110.5,38.7c0,0-10.7,34.1-16,70.3s-5.3,84.2-5.3,84.2
					L278,729.6l154.5,64.8C446.5,739,480.3,598.8,479.1,535.2z"/>
				<path class="st28" d="M504.1,405l-34.6-25.9l-20.3,7.1c9.8,28,28.8,89.6,29.9,149c1.2,63.6-32.7,203.8-46.8,259.2l71.7,30.1
					L504.1,405L504.1,405z"/>
			</g>
			<polyline class="st29" points="362.1,715.9 381.9,609.1 345.1,452.5 			"/>
			<polyline class="st29" points="463.2,431.8 440.2,470 410.1,470 474.4,594.5 			"/>
			<polyline class="st29" points="436,390.8 410.1,448.5 440.2,470 			"/>
		</g>
		<g>
			<polygon class="st26" points="504.1,336.5 532.7,336.5 538.7,379.1 504.1,405 			"/>
			<g>
				<path class="st27" d="M529.1,535.2c1.1-59.4,20.1-121,29.9-149l110.5,38.7c0,0,10.7,34.1,16,70.3s5.3,84.2,5.3,84.2l39.4,150.2
					l-154.5,64.8C561.8,739,527.9,598.8,529.1,535.2z"/>
				<path class="st25" d="M504.1,405l34.6-25.9l20.3,7.1c-9.8,28-28.8,89.6-29.9,149c-1.2,63.6,32.7,203.8,46.8,259.2l-71.7,30.1
					L504.1,405L504.1,405z"/>
			</g>
			<g>
				<path class="st30" d="M663.2,452.5C653.3,495.8,637,566,626.9,609c3,16.3,10.7,58.8,13.6,74.6l4.4,24.9l-4.8-24.8
					c-3-15.6-11-58.3-14.1-74.5C636.3,564.8,652.5,496.3,663.2,452.5L663.2,452.5z"/>
			</g>
			<g>
				<path class="st30" d="M545,431.8c5.8,9.5,17.5,28.5,23.2,38l-0.3-0.2l30.1-0.1h0.7l-0.3,0.6c-20,39.1-44.1,85.5-64.6,124.3
					c14-27.9,33.4-65.9,47.7-93.6l16.1-31.1l0.4,0.6l-30.1-0.1h-0.2l-0.1-0.2C562,460.6,550.7,441.3,545,431.8L545,431.8z"/>
			</g>
			<g>
				<path class="st30" d="M572.3,390.8c6.3,13.1,13.8,29.7,19.8,43.1l6.4,14.4l0.2,0.3c-5.1,3.6-10.3,7.2-15.4,10.8
					c-5,3.5-10.1,7-15.2,10.5c4.9-3.7,9.9-7.4,14.9-11s10-7.2,15-10.8l-0.2,0.5l-6.5-14.4C585.2,420.9,577.9,404.3,572.3,390.8
					L572.3,390.8z"/>
			</g>
		</g>
	</g>
	<polygon class="st13" points="526.8,673.9 504.4,694.9 482.1,673.9 494.9,448.2 514,448.2 	"/>
	<g>
		<polygon class="st29" points="495.6,445.4 485.2,428.7 504.2,405 525.2,428.8 513.5,445.4 		"/>
		<polyline class="st29" points="466.1,452.5 504.2,405 546.1,452.5 		"/>
		<line class="st29" x1="495.6" y1="445.4" x2="513.5" y2="445.4"/>
	</g>
	<rect x="421.2" y="721.3" class="st27" width="166.7" height="108"/>
	<g>
		<path class="st30" d="M603.3,961.8c0,0,95.5,8.5,157.3,2.7C819.5,959,799,917.1,784,906c-14.9-11.2-46.3-23.4-71.4-23.4
			c-25,0-49.1,16.5-68.2,12.8c-19.1-3.7-29.3-12.8-29.3-12.8L603.3,961.8z"/>
		<path class="st30" d="M321.9,702.8c0,0-85.8,5.3-96.4,72.6c-10.6,67.2,162.8,133.6,199.9,146s178,40.6,178,40.6s18.1-25.8,20-46.3
			s3.7-45.6,3.7-45.6L321.9,702.8z"/>
		<g>
			<path class="st27" d="M627,870c-0.1,16.1-0.9,32.3-3.5,48.2c-2.9,16-11.2,30.4-20.2,43.7c2.2-3.4,4.2-6.9,6.2-10.4
				c3.9-7,7.4-14.3,10.1-21.8c3.9-11.4,4.7-23.6,5.9-35.5C626.1,886.1,626.6,878,627,870L627,870z"/>
		</g>
		<g>
			<path class="st27" d="M704.8,966.6c5.3-11.5,5.3-26.1,2.1-38.2c-0.5-1.8-1.2-3.5-2.1-5.2C711.9,934.6,711.8,955.2,704.8,966.6
				L704.8,966.6z"/>
		</g>
		<g>
			<path class="st27" d="M692.6,966.6c5.3-11.5,5.3-26.1,2.1-38.2c-0.5-1.8-1.2-3.5-2.1-5.2C699.7,934.6,699.6,955.2,692.6,966.6
				L692.6,966.6z"/>
		</g>
		<g>
			<path class="st27" d="M680.4,966.6c5.3-11.5,5.3-26.1,2.1-38.2c-0.5-1.8-1.2-3.5-2.1-5.2C687.5,934.6,687.5,955.2,680.4,966.6
				L680.4,966.6z"/>
		</g>
		<g>
			<path class="st27" d="M668.3,966.6c5.3-11.5,5.3-26.1,2.1-38.2c-0.5-1.8-1.2-3.5-2.1-5.2C675.4,934.6,675.3,955.2,668.3,966.6
				L668.3,966.6z"/>
		</g>
		<g>
			<path class="st27" d="M625.6,897c10.8,5.2,23.1,6.1,34.9,6.1c23.3-0.3,36.2-18.2,60.8-15.3c11,1.4,21.6,5.1,31.8,9.2
				c13.7,5.5,26.9,11.9,39.9,18.9c-13.1-6.7-26.5-12.8-40.2-18.2c-11.1-4.2-22.5-8.4-34.3-9.1c-2.6-0.2-5.6-0.1-8.2,0.3
				c-11,1.2-20.7,7.2-30.9,11.1c-6.9,2.7-14.3,4-21.7,3.7C646.8,903.5,635.5,902,625.6,897L625.6,897z"/>
		</g>
	</g>
	<g>
		<path class="st30" d="M583.4,179.9c0,37.1-36.6,37.9-81.7,37.9S420,217,420,179.9s36.6-54.1,81.7-54.1
			C546.8,125.7,583.4,142.7,583.4,179.9z"/>
		<path class="st26" d="M582.1,236.8c0,56.5-36,115.9-80.4,115.9s-80.4-59.4-80.4-115.9s36-82.3,80.4-82.3S582.1,180.2,582.1,236.8z
			"/>
		<g>
			<path class="st15" d="M458.8,242.5c3.1,5.9,7.5,13.5,14.7,13.8c7.2-0.2,11.5-7.9,14.6-13.8c-1.4,5.3-4.1,10.8-8.9,14
				C469.2,262.5,460.9,251.2,458.8,242.5L458.8,242.5z"/>
		</g>
		<g>
			<path class="st15" d="M521.9,242.5c3.1,5.9,7.5,13.5,14.7,13.8c7.2-0.2,11.5-7.9,14.6-13.8c-1.4,5.3-4.1,10.8-8.9,14
				C532.4,262.5,524,251.2,521.9,242.5L521.9,242.5z"/>
		</g>
		<g>
			<path class="st15" d="M451.2,233.5c8.1-15,27.5-25.2,44.2-18.8v0.2c-12.5-0.8-25.6,1.1-35.4,9.3c-3.3,2.6-6.1,5.8-8.5,9.3
				C451.4,233.6,451.2,233.5,451.2,233.5L451.2,233.5z"/>
		</g>
		<g>
			<path class="st15" d="M556.1,233.6c-10.2-15.2-26.3-19.9-43.9-18.7v-0.2c12.4-5,26.8-0.1,36.3,8.6c3.2,2.9,5.9,6.4,7.9,10.1
				L556.1,233.6L556.1,233.6z"/>
		</g>
		<g>
			<path class="st15" d="M503.1,238.3c9.6,14,17.3,38.5,13.8,55.3l-0.1,0.5h-0.5c-6.2-0.2-14.8-0.3-20.9-0.6
				c6-0.3,14.8-0.5,20.9-0.6l-0.6,0.4c0.8-4.6,0.7-9.5,0.2-14.2c-0.7-7.1-2.4-14.1-4.6-21C509.2,251.3,506.6,244.6,503.1,238.3
				L503.1,238.3z"/>
		</g>
		<path class="st30" d="M415.2,258.8c0,0,22.6-6,29.7-44s-25.1-42.3-34.1-36.6C397.2,187,384.4,242.6,415.2,258.8z"/>
		<path class="st30" d="M589.9,258.8c0,0-22.6-6-29.7-44c-7.1-37.9,25.1-42.3,34.1-36.6C607.9,187,620.8,242.6,589.9,258.8z"/>
		<path class="st30" d="M428.7,181c0,0,34.8,22.9,75.4,22.9s71.5-19.5,71.5-19.5s-25.9-39.1-69.5-38.7S428.7,181,428.7,181z"/>
		<g>
			<g>
				<path class="st26" d="M426.5,248.8c-3.3-4.5-9.4-7.6-14.7-5.7c-3.9,1.4-6.5,5-8.1,8.8c-5.1,11.5-3,26.1,6.3,34.8
					c2.5,2.3,5.5,4.3,9,4.6c6.1,0.5,11.5-4.5,13.5-10.2c1.8-5.2,1.9-11.8,0.1-16.9C430.7,259,429.7,253.3,426.5,248.8z"/>
				<g>
					<path class="st31" d="M423.3,285.9c-2-1.6-3.9-3.8-4.3-6.8c-0.1-0.5-0.1-1,0.1-1.4s0.5-0.7,0.8-0.9c2.1-1.7,4.4-2.8,6.8-3.3
						c-0.2-4.9-0.5-10-2.2-14.3c-1.7-4.3-5.2-7.8-9-7.2c-3,0.5-5.7,3.5-6.5,7.3c0,0-2.5,7.3,1,16.1
						C413.4,284.2,423.3,285.9,423.3,285.9z"/>
					<g>
						<path class="st15" d="M409,259.3c1.2-7.7,9-10.8,14-4.1c3.9,5.2,4,12.1,4.3,18.2v0.6l-0.5,0.1c-2.2,0.4-4.3,1.4-6.1,2.7
							c-0.5,0.4-1.2,0.8-1.3,1.4c-0.2,3,1.7,5.8,3.9,7.7c-2.5-1.8-4.8-4.5-4.7-7.9c0.3-1.6,2.2-2.5,3.5-3.5c1.4-0.8,2.9-1.5,4.5-1.8
							l-0.5,0.7c-0.5-6-0.5-12.5-4-17.5C417.5,249.6,410.9,252.6,409,259.3L409,259.3z"/>
					</g>
				</g>
			</g>
			<g>
				<path class="st26" d="M577.4,248.8c3.3-4.5,9.4-7.6,14.7-5.7c3.9,1.4,6.5,5,8.1,8.8c5.1,11.5,3,26.1-6.3,34.8
					c-2.5,2.3-5.5,4.3-9,4.6c-6.1,0.5-11.5-4.5-13.5-10.2c-1.8-5.2-1.9-11.8-0.1-16.9C573.2,259,574.1,253.3,577.4,248.8z"/>
				<g>
					<path class="st31" d="M580.6,285.9c2-1.6,3.9-3.8,4.3-6.8c0.1-0.5,0.1-1-0.1-1.4c-0.2-0.4-0.5-0.7-0.8-0.9
						c-2.1-1.7-4.4-2.8-6.8-3.3c0.2-4.9,0.5-10,2.2-14.3c1.7-4.3,5.2-7.8,9-7.2c3,0.5,5.7,3.5,6.5,7.3c0,0,2.5,7.3-1,16.1
						C590.4,284.2,580.6,285.9,580.6,285.9z"/>
					<g>
						<path class="st15" d="M594.9,259.3c-1.9-6.7-8.4-9.7-13-3.3c-3.5,5-3.6,11.5-4,17.5l-0.5-0.7c1.6,0.3,3.1,1,4.5,1.8
							c1.2,0.9,3.2,1.8,3.5,3.5c0.1,3.4-2.2,6-4.7,7.9c2.2-2,4.2-4.7,3.9-7.7c-0.1-0.7-0.8-1-1.3-1.4c-1.8-1.3-3.9-2.2-6.1-2.7
							l-0.5-0.1v-0.6c0.3-6.2,0.4-13,4.3-18.2C585.9,248.4,593.7,251.5,594.9,259.3L594.9,259.3z"/>
					</g>
				</g>
			</g>
		</g>
		<g>
			<path class="st15" d="M467.6,340.5c11.7,8.2,26.2,12.1,40.4,11.1c13.4-1.4,25.6-8.5,35.4-17.5c-4.6,5.2-10.3,9.6-16.4,13
				c-6.9,3.8-14.8,6.2-22.8,6.3C491.1,353.3,477.7,349,467.6,340.5L467.6,340.5z"/>
		</g>
		<g>
			<path class="st31" d="M497.8,319.9c1.3,1.6,4.6,2.7,8.4,2.7c3.6,0,6.7-1,8.2-2.4c-1.9-1-4.5-1.8-8.2-1.8
				C502.5,318.3,499.8,319,497.8,319.9z"/>
			<path class="st15" d="M515.3,318.3c0-2.4-4.1-4.3-9.1-4.3s-9.1,1.9-9.1,4.3c0,0.5,0.2,1.1,0.6,1.5c2-0.8,4.7-1.5,8.4-1.5
				c3.6,0,6.3,0.8,8.2,1.8C515,319.6,515.3,319,515.3,318.3z"/>
		</g>
	</g>
	<g>
		<path class="st30" d="M373.4,961.8c0,0-95.5,8.5-157.3,2.7c-58.9-5.5-38.4-47.4-23.4-58.6c14.9-11.2,46.4-23.4,71.4-23.4
			s49.1,16.5,68.2,12.8c19.1-3.7,29.3-12.8,29.3-12.8L373.4,961.8z"/>
		<path class="st30" d="M654.9,702.8c0,0,85.8,5.3,96.4,72.6c10.6,67.2-162.8,133.6-199.9,146c-37.2,12.4-178,40.6-178,40.6
			s-18.1-25.8-20-46.3s-3.7-45.6-3.7-45.6L654.9,702.8z"/>
		<g>
			<path class="st27" d="M639.5,742.5c-52.5,27.8-105.7,54.4-160.9,76.6c-42,16.6-87.1,34.4-128.8,51.2l0.2-0.3
				c0.2,8,0.6,16.1,1.2,24.1c1.2,16,2.8,32.3,10.3,46.8c3.5,7.3,7.5,14.3,11.9,21c-8.8-13.4-17-27.8-19.9-43.7
				c-2.8-15.9-3.5-32-4.1-48.1v-0.2l0.2-0.1c45.8-18.6,92-37,137.9-55.1C539.4,793.3,589.7,768.1,639.5,742.5L639.5,742.5z"/>
		</g>
		<path class="st32" d="M272,966.6c0,0-5-7.9-4.8-22.4s4.8-21,4.8-21"/>
		<path class="st32" d="M284.1,966.6c0,0-5-7.9-4.8-22.4s4.8-21,4.8-21"/>
		<path class="st32" d="M296.3,966.6c0,0-5-7.9-4.8-22.4s4.8-21,4.8-21"/>
		<path class="st32" d="M308.5,966.6c0,0-5-7.9-4.8-22.4s4.8-21,4.8-21"/>
		<g>
			<path class="st27" d="M351.1,897c-10.7,5.4-23.1,6.7-34.9,6.8c-23.5,0-36.1-17.7-60.7-15c-10.9,1.3-21.4,5-31.6,9
				c-13.7,5.3-27.1,11.5-40.2,18.2c12.9-7,26.2-13.4,39.9-18.9c10.2-4.1,20.8-7.8,31.8-9.2c24.6-2.9,37.5,14.9,60.8,15.3
				C328,903.2,340.3,902.2,351.1,897L351.1,897z"/>
		</g>
	</g>
	<g>
		<path class="st30" d="M556.5,713.8c3.6,13.3,14.5,24.2,27.9,27.3c4.4,1.2,9,1.2,13.6,1.4c-2.8,0.1-5.9,0.3-8.7,0.1
			C573.6,741.7,559.5,729.4,556.5,713.8L556.5,713.8z"/>
	</g>
	<g>
		<path class="st30" d="M451.8,713.8c-2.9,15.7-17.1,27.9-32.9,28.8c-2.7,0.2-5.9,0-8.6-0.1c4.6-0.2,9.2-0.2,13.6-1.4
			C437.3,738,448.2,727,451.8,713.8L451.8,713.8z"/>
	</g>
	<g>
		<path class="st27" d="M727,731c-21.5-13.1-48-20.2-73-15c-10,2-19.2,6.7-28,11.6c-39.9,22.6-77.1,49.8-113.9,77
			c30.2-23.4,61.2-46,93.7-66.2c5.9-3.7,13.6-8.2,19.8-11.6c8.9-4.9,18.2-9.6,28.3-11.6C679,710,705.6,717.5,727,731L727,731z"/>
	</g>
	<g>
		<path class="st27" d="M504.1,810c-34.2-26.1-69.4-51.3-106.8-72.7c-17.5-9.9-35.6-19.3-55.4-23.9c-16.9-4.1-34.7-6.4-51.9-3
			c-5.2,1.2-10.5,2.8-15,5.8c4.4-3.1,9.7-4.8,14.9-6.1c15.9-3.5,32.5-1.8,48.2,1.6c21.3,4.2,40.9,14,59.6,24.6
			C435.1,758.1,470.3,783.3,504.1,810L504.1,810z"/>
	</g>
	<g>
		<path class="st27" d="M653.3,877.6c-29,15.3-58.8,29.2-89.7,40.1c-31.1,10.4-63.1,18.1-95.3,24.2c32-6.8,63.9-14.7,95-25.1
			C594.1,905.9,624,892.1,653.3,877.6L653.3,877.6z"/>
	</g>
	<g>
		<path class="st26" d="M328.4,742.9l-2.3,0.8c-2.9,1-6.2,0-8.1-2.4l0,0c-1.8-2.3-4.9-3.3-7.7-2.5l-4.5,1.3
			c-2.8,0.8-5.8-0.2-7.7-2.4l-1.9-2.3c-2-2.4-5.3-3.3-8.3-2.2l-5.3,2c-3.5,1.3-7.4-0.2-9.1-3.5l0,0c-1.4-2.7-4.2-4.2-7.2-3.9
			c-7.8,0.7-15.8,2.9-24.4-9.1c-11.9-16.5-5.3-39.9-5.3-39.9s8.8,1,9.8,7.3s5.1,22.4,8.7,24.6c3.6,2.2,8.4,0,8.4,0s3.5-22.4,16-29.4
			c12.6-6.9,18.9-7.9,18.9-7.9s9.9-9.9,15.8-9.2s0.7,16.1,0.7,16.1s7.2-13.2,11.9-12.2s1.6,16.5,1.6,16.5s2-13.5,7.9-12.8
			c5.3,0.6,0.8,50.5-3.2,66.2C332.5,740.2,330.8,742.1,328.4,742.9z"/>
		<g>
			<path class="st15" d="M329.1,681c-2.9,19.8-5.9,40-13.4,58.7C321.7,720.5,324.6,700.5,329.1,681L329.1,681z"/>
		</g>
		<g>
			<path class="st15" d="M315.8,678.6c-8.3,17.7-15.9,35.9-22.5,54.2C298.4,713.9,306,695.6,315.8,678.6L315.8,678.6z"/>
		</g>
		<g>
			<path class="st15" d="M298.1,673c-9.9,13.3-20.1,27-24.5,43.2l-2.1,6.9c1.8-9.4,4.4-18.8,9.4-27
				C285.9,687.8,291.5,680.1,298.1,673L298.1,673z"/>
		</g>
	</g>
	<g>
		<path class="st26" d="M689.4,745l2.3,0.8c2.9,1,6.2,0,8.1-2.4l0,0c1.8-2.3,4.9-3.3,7.7-2.5l4.5,1.3c2.8,0.8,5.8-0.2,7.7-2.4
			l1.8-2.3c2-2.4,5.3-3.3,8.3-2.2l5.3,2c3.5,1.3,7.4-0.2,9.1-3.5l0,0c1.4-2.7,4.2-4.2,7.2-3.9c7.8,0.7,15.8,2.9,24.4-9.1
			c11.9-16.5,5.3-39.9,5.3-39.9s-8.8,1-9.8,7.3s-5.1,22.4-8.7,24.6c-3.6,2.2-8.4,0-8.4,0s-3.5-22.4-16-29.4s-18.9-7.9-18.9-7.9
			s-9.9-9.9-15.8-9.2c-5.9,0.7-0.7,16.1-0.7,16.1s-7.2-13.2-11.9-12.2s-1.7,16.5-1.7,16.5s-2-13.5-7.9-12.8
			c-5.3,0.6-0.8,50.5,3.2,66.2C685.3,742.4,687.1,744.3,689.4,745z"/>
		<g>
			<path class="st15" d="M688.7,683.2c4.5,19.5,7.5,39.5,13.4,58.7C694.6,723.1,691.6,703,688.7,683.2L688.7,683.2z"/>
		</g>
		<g>
			<path class="st15" d="M702.1,680.7c9.8,17,17.4,35.3,22.5,54.2C718,716.6,710.4,698.4,702.1,680.7L702.1,680.7z"/>
		</g>
		<g>
			<path class="st15" d="M719.8,675.2c3.3,3.5,6.3,7.2,9.2,11c5.7,7.7,11,15.9,14,25c1.5,4.6,2.5,9.2,3.4,13.9l-2.1-6.9
				C739.8,702.1,729.7,688.5,719.8,675.2L719.8,675.2z"/>
		</g>
	</g>
	<g class="st33">
		<g>
			<path class="st25" d="M413.3,177.8c11.5,19,13.7,43.3,5.9,64C426.3,220.9,424.1,197.1,413.3,177.8L413.3,177.8z"/>
		</g>
		<g>
			<path class="st25" d="M401.4,193.2c4.9,14.6,4.2,31.1-1.9,45.2C404.9,224.1,405.6,208,401.4,193.2L401.4,193.2z"/>
		</g>
		<g>
			<path class="st25" d="M587.9,176.6c-12.6,19.6-14.6,45.5-5.2,66.8C572.6,222.3,574.7,195.8,587.9,176.6L587.9,176.6z"/>
		</g>
		<g>
			<path class="st25" d="M603.4,193c-11.1,14.9-11.6,34.6-8.7,52.2C591.1,227.7,591.6,207.5,603.4,193L603.4,193z"/>
		</g>
		<g>
			<path class="st25" d="M580.6,164.7c-42,22.5-95.5,29.4-137.7,3.8c-5.9-3.6-11.4-7.7-16.4-12.4c5.1,4.6,10.6,8.7,16.5,12.2
				C485.2,193.6,538.5,186.6,580.6,164.7L580.6,164.7z"/>
		</g>
		<g>
			<path class="st25" d="M435,146.8c7.5,4.6,16.5,6,25.2,6.6c21.8,1.5,44.1-3.6,63.1-14.5c3.8-2.1,7.5-4.6,11-7.1
				c-3.5,2.6-7.1,5.2-10.9,7.4c-19,11.1-41.3,16.4-63.2,14.6C451.4,153.1,442.4,151.5,435,146.8L435,146.8z"/>
		</g>
	</g>
</g>
</svg>
