<?xml version="1.0" encoding="utf-8"?>
<!-- Generator: Adobe Illustrator 28.0.0, SVG Export Plug-In . SVG Version: 6.00 Build 0)  -->
<svg version="1.1" id="Layer_1" xmlns="http://www.w3.org/2000/svg" xmlns:xlink="http://www.w3.org/1999/xlink" x="0px" y="0px"
	 viewBox="0 0 1000 1000" style="enable-background:new 0 0 1000 1000;" xml:space="preserve">
<style type="text/css">
	.st0{fill:#ECECEC;}
	.st1{fill:#E1E1E1;}
	.st2{fill:#1A2E35;}
	.st3{fill:#FFFFFF;}
	.st4{fill:#01B8FC;}
	.st5{fill:#FF735D;}
	.st6{fill:#FFC19D;}
	.st7{fill:#FF9C6A;}
	.st8{fill:#375A64;}
	.st9{opacity:0.3;}
</style>
<g>
	<path class="st0" d="M511.89,72.5c-11.11-5.24-23.45-5.84-31.31-4.64c-7.35,1.12-18,3.92-26.95,10.94
		c-5.56,4.36-9.7,9.78-12.31,16.13c-3.09,7.52-4.03,16.38-2.8,26.34c0.18,1.49,0.95,2.82,2.15,3.73c1.21,0.92,2.7,1.29,4.2,1.07
		l19.28-2.93c2.72-0.41,4.75-2.8,4.72-5.55c-0.06-6.18,1.97-16.9,16.37-19.35c10.97-1.86,16.71,5.41,18.67,8.62
		c3.19,5.23,3.61,11.94,1.1,17.95c-3.84,9.24-13.09,11.97-18.25,12.78c-5.94,0.93-10.04,6.49-9.14,12.4l3.16,20.75
		c0.46,3.03,3.3,5.12,6.33,4.66l18.79-2.86c3.03-0.46,5.12-3.3,4.66-6.33l-0.66-4.36c-0.02-0.1,0.04-0.21,0.13-0.26
		c4.03-2.14,11.73-7,18.03-15.52c8.05-10.87,11.01-23.78,8.79-38.35C533.68,86.85,521.53,77.05,511.89,72.5z"/>
	<path class="st0" d="M498.24,179.04l-1.64,0.25c-7.86,1.2-13.28,8.56-12.08,16.42s8.56,13.28,16.42,12.08l1.64-0.25
		c7.86-1.2,13.28-8.56,12.08-16.42S506.1,177.84,498.24,179.04z"/>
</g>
<g>
	<path class="st0" d="M124.93,407.42c-5.58-6.98-13.46-11.31-18.97-13.04c-5.16-1.62-13.02-3.19-21.11-1.47
		c-5.03,1.07-9.47,3.29-13.2,6.6c-4.42,3.92-7.87,9.41-10.25,16.32c-0.36,1.04-0.28,2.15,0.21,3.13c0.5,0.98,1.35,1.71,2.4,2.04
		l13.54,4.25c1.91,0.6,4-0.31,4.86-2.12c1.93-4.06,6.7-10.41,16.88-7.41c7.76,2.29,9.19,8.88,9.44,11.6
		c0.42,4.44-1.46,8.95-5.02,12.08c-5.47,4.81-12.38,3.64-16.01,2.51c-4.18-1.29-8.64,1.03-9.94,5.18l-4.57,14.57
		c-0.67,2.13,0.52,4.4,2.65,5.07l13.19,4.14c2.13,0.67,4.4-0.52,5.07-2.65l0.96-3.06c0.02-0.07,0.09-0.12,0.17-0.13
		c3.32-0.11,9.9-0.83,16.75-4.37c8.74-4.53,14.8-12.02,18.01-22.25C134.58,423.77,129.77,413.48,124.93,407.42z"/>
	<path class="st0" d="M81.94,472.67l-1.15-0.36c-5.52-1.73-11.41,1.35-13.14,6.86c-1.73,5.52,1.35,11.41,6.86,13.14l1.15,0.36
		c5.52,1.73,11.41-1.35,13.14-6.86C90.53,480.3,87.45,474.4,81.94,472.67z"/>
</g>
<g>
	<g>
		<g>
			<g>
				<path class="st0" d="M709.72,880.18c48.02-2.09,108.94-17.42,146.2-48.76C804.5,832.76,752.49,850.1,709.72,880.18"/>
			</g>
		</g>
	</g>
	<g>
		<g>
			<g>
				<path class="st0" d="M743.13,823.39c48.02-2.09,108.94-17.42,146.2-48.76C837.9,775.96,785.9,793.3,743.13,823.39"/>
			</g>
		</g>
	</g>
	<g>
		<g>
			<g>
				<path class="st0" d="M779.04,769.29c48.02-2.09,108.94-17.42,146.2-48.76C873.82,721.86,821.82,739.2,779.04,769.29"/>
			</g>
		</g>
	</g>
	<g>
		<g>
			<g>
				<path class="st0" d="M819.12,713.48c47.77-7.96,106.66-30.53,139.7-65.91C907.55,655.21,857.86,678.65,819.12,713.48"/>
			</g>
		</g>
	</g>
	<g>
		<g>
			<g>
				<path class="st0" d="M854.35,672.31c42.42-24.27,89.69-65.69,107.29-109.41C915.75,588.14,877.59,627.05,854.35,672.31"/>
			</g>
		</g>
	</g>
	<g>
		<g>
			<g>
				<path class="st0" d="M837.27,691.77c13.06-47.64,17.12-111.69-2.05-157.11C820.35,585.42,821.08,641.3,837.27,691.77"/>
			</g>
		</g>
	</g>
	<g>
		<g>
			<g>
				<path class="st0" d="M803.29,737.3c9.26-50.53,7.61-117.41-16.57-163.12C775.85,628.08,781.75,686.1,803.29,737.3"/>
			</g>
		</g>
	</g>
	<g>
		<g>
			<g>
				<path class="st0" d="M762.79,793.13c9.26-50.53,7.61-117.41-16.57-163.12C735.36,683.91,741.25,741.94,762.79,793.13"/>
			</g>
		</g>
	</g>
	<g>
		<g>
			<g>
				<path class="st0" d="M719.63,863.86c9.26-50.53,7.61-117.41-16.57-163.12C692.19,754.65,698.08,812.67,719.63,863.86"/>
			</g>
		</g>
	</g>
	<g>
		<g>
			<g>
				<g>
					<path class="st1" d="M703.17,889.99c-6.96,12.84-12.41,23.33-16.01,30.66c-1.75,3.56-3.13,6.38-4.14,8.44
						c-0.42,0.89-0.76,1.62-1.04,2.22c-0.22,0.5-0.33,0.77-0.3,0.78s0.18-0.22,0.46-0.7c0.32-0.57,0.72-1.28,1.2-2.13
						c1.09-2.03,2.57-4.79,4.45-8.28c3.8-7.22,9.42-17.61,16.51-30.37c7.06-12.77,15.78-27.81,25.7-44.35
						c10.01-16.49,21.3-34.45,33.62-53.01c24.69-37.06,48.84-69.37,66.88-92.31c9.02-11.47,16.41-20.69,21.59-26.99
						c2.49-3.08,4.46-5.52,5.91-7.32c0.6-0.78,1.1-1.41,1.5-1.93c0.33-0.44,0.49-0.68,0.46-0.7c-0.02-0.02-0.23,0.18-0.61,0.58
						c-0.44,0.49-0.98,1.09-1.64,1.82c-1.51,1.74-3.57,4.11-6.17,7.1c-5.35,6.17-12.91,15.26-22.06,26.65
						c-18.31,22.76-42.66,54.99-67.38,92.1"/>
				</g>
			</g>
		</g>
	</g>
</g>
<g>
	<g>
		<g>
			<g>
				<path class="st0" d="M620.29,557.79c17.53-43.27,28.55-103.28,15.89-148.84C616.62,454.92,610.97,507.86,620.29,557.79"/>
			</g>
		</g>
	</g>
	<g>
		<g>
			<g>
				<path class="st0" d="M583.59,505.36c17.53-43.27,28.55-103.28,15.89-148.84C579.92,402.5,574.26,455.44,583.59,505.36"/>
			</g>
		</g>
	</g>
	<g>
		<g>
			<g>
				<path class="st0" d="M550.28,451.81c17.53-43.27,28.55-103.28,15.89-148.84C546.61,348.94,540.95,401.88,550.28,451.81"/>
			</g>
		</g>
	</g>
	<g>
		<g>
			<g>
				<path class="st0" d="M517.14,393.89c12.24-45.42,16.05-106.55-1.88-150.02C501.32,292.26,501.99,345.62,517.14,393.89"/>
			</g>
		</g>
	</g>
	<g>
		<g>
			<g>
				<path class="st0" d="M494.97,346.15c-4.34-47.27-21.86-105.74-53.39-138.92C445.37,257.95,464.36,307.37,494.97,346.15"/>
			</g>
		</g>
	</g>
	<g>
		<g>
			<g>
				<path class="st0" d="M505.28,369.09c-36.82-30.76-91.77-60.18-139.64-61.56C404.49,341.15,454.15,363.05,505.28,369.09"/>
			</g>
		</g>
	</g>
	<g>
		<g>
			<g>
				<path class="st0" d="M531.79,417.48c-40.91-28.56-100.67-54.08-150.81-51.16C424.23,397.67,477.87,415.87,531.79,417.48"/>
			</g>
		</g>
	</g>
	<g>
		<g>
			<g>
				<path class="st0" d="M564.79,475.78c-40.91-28.56-100.67-54.08-150.81-51.16C457.23,455.97,510.87,474.17,564.79,475.78"/>
			</g>
		</g>
	</g>
	<g>
		<g>
			<g>
				<path class="st0" d="M609.87,542.46c-40.91-28.56-100.67-54.08-150.81-51.16C502.31,522.65,555.95,540.84,609.87,542.46"/>
			</g>
		</g>
	</g>
	<g>
		<g>
			<g>
				<g>
					<path class="st1" d="M626.32,567.53c8.54,11.33,15.61,20.37,20.63,26.52c2.44,2.98,4.37,5.34,5.79,7.07
						c0.62,0.73,1.12,1.32,1.54,1.81c0.35,0.4,0.55,0.6,0.57,0.58c0.02-0.02-0.12-0.25-0.43-0.69c-0.38-0.52-0.84-1.15-1.4-1.92
						c-1.35-1.78-3.2-4.21-5.52-7.27c-4.85-6.27-11.76-15.43-20.17-26.84c-8.44-11.39-18.2-25.16-28.82-40.6
						c-10.53-15.5-21.85-32.72-33.27-51.09c-22.78-36.76-41.59-71.13-54.58-96.32c-6.5-12.59-11.66-22.84-15.14-29.97
						c-1.72-3.44-3.08-6.17-4.08-8.17c-0.44-0.85-0.8-1.54-1.1-2.11c-0.26-0.47-0.4-0.7-0.43-0.69s0.06,0.27,0.27,0.77
						c0.25,0.59,0.56,1.3,0.94,2.18c0.93,2.04,2.19,4.81,3.78,8.32c3.29,7.22,8.28,17.56,14.65,30.24
						c12.72,25.36,31.38,59.88,54.2,96.69"/>
				</g>
			</g>
		</g>
	</g>
</g>
<g>
	<path class="st0" d="M954.6,388.39c-8.08-9.61-19.3-15.42-27.11-17.66c-7.31-2.1-18.39-4.03-29.7-1.33
		c-7.02,1.68-13.18,4.95-18.31,9.74c-6.07,5.67-10.72,13.5-13.83,23.28c-0.47,1.47-0.32,3.02,0.41,4.38
		c0.73,1.37,1.96,2.35,3.45,2.78l19.16,5.5c2.7,0.78,5.61-0.58,6.75-3.14c2.57-5.77,9.04-14.86,23.45-11
		c10.98,2.95,13.22,12.15,13.67,15.97c0.74,6.22-1.74,12.63-6.63,17.15c-7.51,6.95-17.26,5.54-22.4,4.09
		c-5.91-1.67-12.1,1.75-13.78,7.62l-5.91,20.62c-0.86,3.01,0.88,6.16,3.9,7.03l18.67,5.35c3.01,0.86,6.16-0.88,7.03-3.9l1.24-4.33
		c0.03-0.1,0.12-0.18,0.23-0.18c4.66-0.27,13.88-1.51,23.37-6.73c12.11-6.67,20.36-17.4,24.52-31.88
		C968.72,411.01,961.61,396.73,954.6,388.39z"/>
	<path class="st0" d="M896.5,481.54l-1.63-0.47c-7.81-2.24-15.98,2.29-18.22,10.1s2.29,15.98,10.1,18.22l1.63,0.47
		c7.81,2.24,15.98-2.29,18.22-10.1C908.84,491.96,904.31,483.78,896.5,481.54z"/>
</g>
<g>
	<path class="st0" d="M322.26,557.12c-9.31-6.96-20.64-9.85-28.15-10.23c-7.03-0.35-17.43,0.23-27.06,5.04
		c-5.98,2.99-10.85,7.24-14.46,12.63c-4.28,6.38-6.83,14.42-7.57,23.89c-0.11,1.42,0.35,2.79,1.29,3.87
		c0.95,1.08,2.26,1.71,3.69,1.78l18.43,0.93c2.6,0.13,4.93-1.7,5.43-4.25c1.11-5.74,5.03-15.3,18.83-14.84
		c10.52,0.35,14.47,8.17,15.68,11.52c1.97,5.45,1.08,11.75-2.37,16.85c-5.31,7.84-14.4,8.62-19.34,8.39
		c-5.68-0.27-10.54,4.12-10.82,9.77l-1,19.83c-0.15,2.9,2.09,5.37,4.99,5.52l17.96,0.9c2.9,0.15,5.37-2.09,5.52-4.99l0.21-4.17
		c0-0.1,0.07-0.18,0.17-0.21c4.14-1.22,12.2-4.27,19.66-10.98c9.52-8.56,14.7-19.96,15.4-33.89
		C339.74,574.54,330.33,563.16,322.26,557.12z"/>
	<path class="st0" d="M289.45,653.31l-1.57-0.08c-7.51-0.38-13.93,5.42-14.31,12.94c-0.38,7.51,5.42,13.93,12.94,14.31l1.57,0.08
		c7.51,0.38,13.93-5.42,14.31-12.94C302.76,660.11,296.96,653.69,289.45,653.31z"/>
</g>
<g>
	<path class="st0" d="M226.42,908.4h17.05c10.03-35.75,14.86-75.54,8.29-108.8C236.37,832.94,227.75,870.5,226.42,908.4z"/>
	<path class="st0" d="M223.19,742.48c-20.96,45.41-29.41,98.64-23.88,149.9c0.19,0.4,0.38,0.81,0.57,1.21
		C218.84,850.27,232.54,789.78,223.19,742.48z"/>
	<path class="st0" d="M178.21,678.57c-15.36,46.82-18.21,99.16-8.2,147.94c0.62,1.48,1.25,2.99,1.89,4.52
		C185.78,785.29,192.56,723.76,178.21,678.57z"/>
	<path class="st0" d="M148.9,774.36c-0.17-0.52-0.24-0.8-0.21-0.81s0.15,0.24,0.37,0.74c0.25,0.6,0.55,1.34,0.93,2.23
		c0.3,0.76,0.65,1.65,1.03,2.61c0.68,1.09,1.33,2.21,2.02,3.28c-1.4-48.85-14.69-110.03-42.73-146.1
		c0.65,50.28,14.72,100.16,39.61,141.03c-0.08-0.23-0.17-0.48-0.25-0.69C149.36,775.74,149.11,774.98,148.9,774.36z"/>
	<path class="st0" d="M160.66,806.46c-0.14-0.37-0.28-0.73-0.42-1.1C127,771.89,77.19,739.02,32.35,734.67
		C67.12,771.42,112.73,796.92,160.66,806.46z"/>
	<path class="st0" d="M183.92,858.02c-0.18-0.16-0.38-0.31-0.56-0.47c0.06,0.14,0.13,0.29,0.19,0.43
		C183.67,857.99,183.8,858.01,183.92,858.02z"/>
	<path class="st0" d="M43.54,796.05c38.74,34.42,87.83,56.3,138.23,61.72c-0.36-0.83-0.71-1.63-1.06-2.45
		C143.55,824.45,90.01,796.16,43.54,796.05z"/>
	<path class="st0" d="M71.54,858.02c25.38,22.54,55.2,39.68,86.91,50.37h39C161.22,881.19,113.5,858.12,71.54,858.02z"/>
	<path class="st1" d="M164.96,817.44c4.4,11.11,9.69,23.92,15.75,37.88c0.35,0.82,0.7,1.62,1.06,2.45
		c6.85,15.7,14.68,32.81,23.33,50.63h1.9c-2.44-5-4.81-9.93-7.12-14.8c-0.19-0.4-0.38-0.81-0.57-1.21
		c-5.67-11.99-10.94-23.54-15.76-34.41c-0.06-0.14-0.13-0.29-0.19-0.43c-4.17-9.4-7.99-18.28-11.45-26.52
		c-0.64-1.53-1.28-3.04-1.89-4.52c-1.38-3.32-2.71-6.53-3.96-9.59c-5.45-13.35-9.76-24.2-12.66-31.74
		c-0.92-2.34-1.71-4.33-2.38-6.04c-0.38-0.96-0.73-1.85-1.03-2.61c-0.37-0.9-0.68-1.63-0.93-2.23c-0.22-0.5-0.34-0.75-0.37-0.74
		s0.04,0.28,0.21,0.81c0.21,0.62,0.46,1.38,0.77,2.3c0.08,0.21,0.17,0.47,0.25,0.69c0.74,2.08,1.69,4.75,2.87,8.09
		c1.84,5.18,4.36,11.93,7.45,19.91c0.14,0.36,0.28,0.73,0.42,1.1C162,809.9,163.42,813.55,164.96,817.44z"/>
</g>
<g>
	<path class="st2" d="M927.43,907.62c0,0.3-194.7,0.54-434.83,0.54c-240.21,0-434.87-0.24-434.87-0.54s194.66-0.54,434.87-0.54
		C732.72,907.08,927.43,907.32,927.43,907.62z"/>
</g>
<g>
	<g>
		<g>
			
				<ellipse transform="matrix(0.7071 -0.7071 0.7071 0.7071 -113.0486 160.575)" class="st3" cx="137.31" cy="216.75" rx="63.55" ry="63.55"/>
			<g>
				<path class="st2" d="M200.85,216.75c0,0-0.04-0.35-0.09-1.03c-0.05-0.71-0.11-1.71-0.19-3.02c-0.04-0.66-0.08-1.41-0.13-2.22
					c-0.09-0.81-0.26-1.7-0.4-2.65c-0.15-0.96-0.32-1.99-0.49-3.09c-0.13-1.11-0.54-2.24-0.83-3.46
					c-1.12-4.91-3.41-10.71-7.04-16.86c-3.65-6.12-8.92-12.52-16.1-17.95c-0.9-0.67-1.81-1.35-2.74-2.04
					c-0.96-0.63-1.97-1.21-2.97-1.82c-1.02-0.58-1.99-1.29-3.08-1.78c-1.08-0.52-2.18-1.04-3.28-1.57
					c-0.55-0.26-1.11-0.53-1.67-0.79c-0.58-0.21-1.17-0.42-1.75-0.64c-1.18-0.43-2.36-0.86-3.56-1.3c-1.21-0.4-2.47-0.66-3.72-1
					c-1.26-0.29-2.51-0.73-3.83-0.87c-2.61-0.37-5.25-0.91-7.99-0.92c-1.36-0.05-2.74-0.18-4.12-0.16
					c-1.38,0.07-2.78,0.14-4.18,0.22c-0.7,0.05-1.41,0.04-2.11,0.14l-2.11,0.32c-1.41,0.23-2.84,0.4-4.25,0.69
					c-2.79,0.76-5.68,1.32-8.42,2.47c-2.83,0.91-5.5,2.31-8.24,3.62c-1.33,0.72-2.61,1.57-3.93,2.35c-0.65,0.41-1.34,0.77-1.95,1.23
					l-1.86,1.39c-2.57,1.76-4.81,3.97-7.16,6.09c-1.07,1.17-2.14,2.35-3.21,3.54l-0.81,0.89l-0.73,0.96l-1.45,1.94l-1.45,1.94
					l-1.27,2.08l-1.27,2.09l-0.64,1.05l-0.54,1.1c-0.71,1.48-1.43,2.96-2.14,4.45c-0.57,1.55-1.14,3.11-1.71,4.68
					c-2.06,6.34-3.17,13.07-3.26,19.92c0.09,6.85,1.2,13.59,3.25,19.93c0.57,1.57,1.14,3.13,1.71,4.68
					c0.72,1.49,1.43,2.98,2.14,4.46l0.54,1.11l0.64,1.05l1.27,2.09l1.27,2.08l1.45,1.94l1.45,1.94l0.72,0.96l0.81,0.89
					c1.08,1.18,2.15,2.36,3.21,3.54c2.35,2.12,4.6,4.33,7.17,6.09l1.86,1.39c0.62,0.47,1.31,0.82,1.95,1.23
					c1.32,0.78,2.6,1.63,3.93,2.35c2.74,1.31,5.41,2.71,8.24,3.62c2.75,1.15,5.64,1.71,8.43,2.47c1.41,0.29,2.84,0.46,4.25,0.69
					l2.11,0.32c0.7,0.09,1.41,0.09,2.11,0.14c1.4,0.07,2.8,0.14,4.18,0.22c1.38,0.02,2.76-0.11,4.12-0.16
					c2.74-0.01,5.38-0.55,7.99-0.92c1.32-0.13,2.56-0.58,3.83-0.87c1.25-0.34,2.52-0.6,3.72-1c1.2-0.44,2.38-0.87,3.56-1.3
					c0.59-0.21,1.17-0.43,1.75-0.64c0.56-0.27,1.12-0.53,1.67-0.79c1.11-0.53,2.2-1.06,3.28-1.57c1.1-0.5,2.06-1.2,3.08-1.78
					c1-0.62,2.01-1.19,2.97-1.82c0.92-0.69,1.83-1.37,2.74-2.04c7.18-5.43,12.44-11.83,16.09-17.95c3.62-6.15,5.92-11.95,7.03-16.86
					c0.29-1.22,0.7-2.35,0.83-3.46c0.17-1.1,0.34-2.13,0.49-3.09c0.14-0.96,0.32-1.84,0.4-2.65c0.05-0.82,0.09-1.56,0.13-2.22
					c0.08-1.31,0.15-2.31,0.19-3.02C200.81,217.09,200.85,216.75,200.85,216.75s0.01,0.35-0.01,1.03c-0.03,0.71-0.06,1.71-0.11,3.02
					c-0.03,0.67-0.06,1.41-0.09,2.23c-0.07,0.82-0.23,1.7-0.37,2.67s-0.29,2-0.46,3.11c-0.12,1.12-0.52,2.25-0.8,3.49
					c-1.08,4.94-3.34,10.8-6.95,17.01c-3.64,6.19-8.92,12.66-16.14,18.17c-0.91,0.68-1.82,1.37-2.75,2.07
					c-0.97,0.64-1.99,1.23-2.99,1.85c-1.03,0.59-2,1.31-3.11,1.81c-1.09,0.53-2.2,1.06-3.31,1.6c-0.56,0.27-1.12,0.54-1.68,0.8
					c-0.59,0.22-1.18,0.43-1.77,0.65c-1.19,0.44-2.38,0.88-3.59,1.32c-1.22,0.41-2.5,0.67-3.76,1.02c-1.28,0.29-2.53,0.75-3.86,0.89
					c-2.64,0.38-5.31,0.93-8.08,0.96c-1.38,0.05-2.77,0.19-4.16,0.17c-1.4-0.07-2.81-0.14-4.23-0.21c-0.71-0.05-1.43-0.04-2.14-0.13
					l-2.13-0.32c-1.42-0.23-2.87-0.4-4.3-0.69c-2.82-0.76-5.75-1.33-8.53-2.49c-2.87-0.91-5.57-2.32-8.34-3.65
					c-1.35-0.73-2.65-1.58-3.98-2.37c-0.65-0.42-1.35-0.78-1.98-1.25l-1.88-1.41c-2.6-1.78-4.88-4.01-7.26-6.16
					c-1.08-1.19-2.16-2.38-3.25-3.58l-0.82-0.9l-0.74-0.97l-1.47-1.96l-1.47-1.97l-1.29-2.1l-1.29-2.12l-0.65-1.06l-0.55-1.12
					c-0.72-1.5-1.45-3-2.17-4.51c-0.58-1.57-1.16-3.15-1.74-4.74c-2.09-6.42-3.21-13.24-3.3-20.18c0.09-6.94,1.22-13.76,3.3-20.18
					c0.58-1.58,1.16-3.16,1.74-4.74c0.73-1.51,1.45-3.01,2.17-4.51l0.55-1.12l0.65-1.06l1.29-2.12l1.29-2.1l1.47-1.97l1.47-1.96
					l0.74-0.97l0.82-0.9c1.09-1.2,2.17-2.39,3.25-3.58c2.38-2.15,4.66-4.37,7.26-6.16l1.88-1.41c0.62-0.47,1.32-0.83,1.98-1.25
					c1.34-0.79,2.63-1.64,3.98-2.37c2.77-1.33,5.47-2.74,8.34-3.65c2.78-1.15,5.7-1.72,8.53-2.49c1.43-0.29,2.88-0.46,4.3-0.69
					l2.13-0.32c0.71-0.09,1.43-0.09,2.13-0.13c1.42-0.07,2.83-0.14,4.23-0.21c1.4-0.02,2.79,0.12,4.16,0.17
					c2.77,0.02,5.44,0.57,8.07,0.96c1.33,0.14,2.59,0.59,3.86,0.89c1.26,0.35,2.54,0.61,3.76,1.02c1.21,0.44,2.41,0.88,3.59,1.32
					c0.59,0.22,1.18,0.44,1.77,0.65c0.56,0.27,1.13,0.54,1.68,0.8c1.11,0.54,2.22,1.07,3.31,1.6c1.1,0.51,2.08,1.22,3.11,1.81
					c1.01,0.63,2.03,1.21,2.99,1.85c0.93,0.7,1.85,1.39,2.75,2.07c7.22,5.51,12.5,11.98,16.14,18.17
					c3.61,6.21,5.88,12.07,6.95,17.01c0.28,1.23,0.68,2.37,0.8,3.49c0.16,1.11,0.31,2.15,0.46,3.11c0.13,0.96,0.29,1.85,0.37,2.67
					c0.03,0.82,0.07,1.56,0.09,2.23c0.05,1.31,0.09,2.32,0.11,3.03C200.86,216.4,200.85,216.75,200.85,216.75z"/>
			</g>
		</g>
		<g>
			<g>
				<path class="st4" d="M114.7,205.85h12.07c0,0,0-10.14,10.53-10.32c5.47-0.09,8.31,3.49,9.46,6.24c1.34,3.19,0.93,6.82-0.86,9.78
					c-2.05,3.38-6.54,6.45-14.67,5.01v17.72h11.94v-6.44c0,0,16.74-4.33,16.74-22.78c0-17.65-15.83-21.75-22.61-21.75
					C132.12,183.3,114.47,184.55,114.7,205.85z"/>
				<rect x="131.2" y="238.88" class="st4" width="12.12" height="11.32"/>
			</g>
		</g>
	</g>
	<g>
		<path class="st3" d="M203.73,276.2c0,5.36-4.34,9.7-9.7,9.7s-9.7-4.34-9.7-9.7c0-5.36,4.34-9.7,9.7-9.7
			S203.73,270.85,203.73,276.2z"/>
		<g>
			<path class="st2" d="M203.73,276.2c-0.09,0-0.05-0.86-0.45-2.33c-0.4-1.44-1.38-3.54-3.55-5.16c-2.1-1.62-5.54-2.52-8.88-1.28
				c-1.64,0.6-3.21,1.72-4.32,3.26c-1.14,1.53-1.78,3.48-1.8,5.5c0.02,2.02,0.66,3.98,1.8,5.5c1.11,1.55,2.68,2.67,4.32,3.26
				c3.33,1.24,6.78,0.34,8.88-1.28c2.17-1.61,3.15-3.72,3.55-5.15C203.68,277.07,203.65,276.2,203.73,276.2
				c0.03,0,0.04,0.21,0.05,0.62c0.01,0.41-0.03,1.02-0.2,1.78c-0.31,1.51-1.25,3.76-3.51,5.53c-2.17,1.78-5.86,2.83-9.47,1.52
				c-1.78-0.62-3.48-1.82-4.7-3.49c-1.25-1.65-1.95-3.78-1.97-5.97c0.02-2.19,0.73-4.32,1.97-5.97c1.21-1.67,2.92-2.87,4.7-3.49
				c3.62-1.3,7.3-0.25,9.47,1.52c2.25,1.77,3.19,4.02,3.51,5.53c0.17,0.76,0.21,1.37,0.2,1.78
				C203.78,275.99,203.76,276.2,203.73,276.2z"/>
		</g>
	</g>
</g>
<g>
	<g>
		<g>
			
				<ellipse transform="matrix(0.7071 -0.7071 0.7071 0.7071 121.7419 648.4758)" class="st3" cx="843.65" cy="177.28" rx="66.78" ry="66.78"/>
			<g>
				<path class="st2" d="M910.44,177.28c0,0-0.05-0.37-0.1-1.08c-0.05-0.74-0.11-1.8-0.2-3.17c-0.04-0.7-0.09-1.48-0.14-2.33
					c-0.09-0.85-0.27-1.78-0.42-2.79c-0.16-1.01-0.33-2.09-0.52-3.25c-0.14-1.17-0.57-2.35-0.87-3.64
					c-1.17-5.16-3.59-11.25-7.39-17.72c-3.84-6.43-9.37-13.16-16.91-18.86c-0.95-0.71-1.91-1.42-2.87-2.14
					c-1.01-0.66-2.07-1.27-3.13-1.92c-1.07-0.61-2.09-1.35-3.24-1.87c-1.14-0.55-2.29-1.1-3.45-1.65c-0.58-0.28-1.17-0.55-1.75-0.83
					c-0.61-0.22-1.23-0.45-1.84-0.67c-1.23-0.45-2.48-0.9-3.74-1.36c-1.27-0.42-2.6-0.69-3.91-1.05c-1.33-0.3-2.64-0.77-4.02-0.91
					c-2.75-0.39-5.52-0.96-8.4-0.97c-1.43-0.05-2.88-0.19-4.33-0.17c-1.45,0.08-2.92,0.15-4.39,0.23c-0.74,0.05-1.48,0.05-2.22,0.14
					l-2.21,0.34c-1.48,0.25-2.98,0.42-4.47,0.73c-2.93,0.8-5.97,1.39-8.85,2.6c-2.98,0.95-5.78,2.42-8.66,3.81
					c-1.4,0.76-2.75,1.65-4.13,2.47c-0.68,0.43-1.4,0.81-2.05,1.3l-1.95,1.46c-2.7,1.85-5.06,4.17-7.53,6.4
					c-1.12,1.23-2.24,2.47-3.37,3.72l-0.85,0.93l-0.76,1.01l-1.52,2.03l-1.53,2.04l-1.34,2.18l-1.33,2.2l-0.67,1.1l-0.57,1.16
					c-0.75,1.55-1.5,3.11-2.25,4.68c-0.6,1.63-1.2,3.27-1.8,4.91c-2.16,6.66-3.33,13.74-3.42,20.94c0.09,7.2,1.26,14.28,3.42,20.94
					c0.6,1.64,1.2,3.28,1.8,4.92c0.75,1.57,1.51,3.13,2.25,4.68l0.57,1.16l0.67,1.1l1.33,2.2l1.34,2.18l1.53,2.04l1.52,2.03
					l0.76,1.01l0.85,0.93c1.13,1.24,2.25,2.48,3.37,3.72c2.47,2.23,4.83,4.55,7.53,6.4l1.95,1.46c0.65,0.49,1.37,0.86,2.05,1.3
					c1.39,0.82,2.73,1.71,4.13,2.47c2.88,1.38,5.68,2.85,8.66,3.81c2.89,1.21,5.92,1.8,8.85,2.6c1.49,0.31,2.99,0.48,4.47,0.73
					l2.21,0.34c0.74,0.1,1.48,0.09,2.22,0.14c1.48,0.08,2.94,0.15,4.4,0.23c1.45,0.02,2.9-0.12,4.33-0.17
					c2.88-0.02,5.65-0.58,8.4-0.97c1.39-0.14,2.69-0.61,4.02-0.91c1.31-0.36,2.64-0.63,3.91-1.05c1.26-0.46,2.5-0.91,3.74-1.36
					c0.62-0.22,1.23-0.45,1.84-0.67c0.59-0.28,1.17-0.56,1.75-0.83c1.16-0.56,2.31-1.11,3.45-1.65c1.15-0.52,2.17-1.26,3.24-1.87
					c1.05-0.65,2.12-1.25,3.13-1.92c0.97-0.72,1.93-1.44,2.87-2.14c7.54-5.71,13.08-12.43,16.91-18.86
					c3.81-6.46,6.22-12.56,7.39-17.72c0.3-1.29,0.73-2.47,0.87-3.64c0.18-1.16,0.36-2.24,0.52-3.25c0.15-1.01,0.33-1.93,0.42-2.79
					c0.05-0.86,0.1-1.64,0.14-2.33c0.09-1.37,0.15-2.43,0.2-3.17C910.39,177.65,910.44,177.28,910.44,177.28s0.01,0.37-0.01,1.08
					c-0.03,0.74-0.07,1.8-0.12,3.18c-0.03,0.7-0.06,1.48-0.1,2.34c-0.08,0.86-0.25,1.79-0.38,2.8c-0.15,1.01-0.31,2.1-0.48,3.27
					c-0.13,1.18-0.55,2.37-0.84,3.67c-1.13,5.2-3.51,11.35-7.31,17.88c-3.83,6.5-9.37,13.31-16.96,19.1
					c-0.95,0.72-1.92,1.44-2.89,2.17c-1.02,0.67-2.09,1.29-3.15,1.95c-1.08,0.62-2.11,1.37-3.27,1.9c-1.15,0.56-2.31,1.12-3.48,1.68
					c-0.59,0.28-1.18,0.56-1.77,0.85c-0.62,0.23-1.24,0.46-1.86,0.68c-1.25,0.46-2.5,0.92-3.77,1.39c-1.28,0.43-2.62,0.71-3.95,1.07
					c-1.34,0.31-2.66,0.78-4.06,0.93c-2.77,0.4-5.58,0.98-8.49,1c-1.45,0.05-2.91,0.2-4.38,0.18c-1.47-0.07-2.95-0.15-4.44-0.22
					c-0.74-0.05-1.5-0.04-2.24-0.14l-2.24-0.34c-1.5-0.24-3.02-0.42-4.52-0.73c-2.97-0.8-6.04-1.4-8.96-2.61
					c-3.02-0.96-5.85-2.44-8.77-3.84c-1.42-0.77-2.78-1.66-4.19-2.49c-0.69-0.44-1.42-0.81-2.08-1.31l-1.98-1.48
					c-2.73-1.87-5.13-4.21-7.63-6.47c-1.13-1.25-2.27-2.5-3.42-3.76l-0.86-0.95l-0.77-1.02l-1.54-2.06l-1.55-2.07l-1.35-2.21
					l-1.35-2.23l-0.68-1.12l-0.57-1.18c-0.76-1.57-1.52-3.15-2.28-4.74c-0.61-1.65-1.22-3.31-1.83-4.98
					c-2.19-6.75-3.37-13.92-3.47-21.21c0.1-7.29,1.28-14.46,3.47-21.2c0.61-1.66,1.22-3.32,1.83-4.98c0.76-1.59,1.53-3.17,2.28-4.74
					l0.58-1.17l0.68-1.12l1.35-2.22l1.36-2.21l1.55-2.07l1.54-2.06l0.77-1.02l0.86-0.95c1.15-1.26,2.29-2.51,3.42-3.76
					c2.5-2.26,4.9-4.6,7.63-6.47l1.98-1.48c0.66-0.5,1.39-0.87,2.08-1.31c1.41-0.83,2.77-1.73,4.19-2.49
					c2.91-1.39,5.75-2.88,8.77-3.84c2.92-1.21,5.99-1.81,8.96-2.61c1.5-0.31,3.02-0.48,4.52-0.73l2.24-0.34
					c0.75-0.1,1.5-0.09,2.24-0.14c1.49-0.07,2.97-0.15,4.44-0.22c1.47-0.02,2.93,0.12,4.38,0.18c2.91,0.02,5.71,0.6,8.49,1
					c1.4,0.15,2.72,0.62,4.06,0.93c1.33,0.36,2.67,0.64,3.95,1.07c1.27,0.47,2.53,0.93,3.77,1.39c0.62,0.23,1.24,0.46,1.86,0.68
					c0.59,0.28,1.18,0.56,1.77,0.85c1.17,0.57,2.33,1.13,3.48,1.68c1.16,0.53,2.19,1.28,3.27,1.9c1.06,0.66,2.13,1.27,3.15,1.95
					c0.98,0.73,1.94,1.46,2.89,2.17c7.59,5.79,13.13,12.59,16.96,19.1c3.79,6.53,6.17,12.68,7.31,17.88
					c0.29,1.3,0.71,2.49,0.84,3.67c0.17,1.17,0.33,2.26,0.48,3.27c0.14,1.01,0.31,1.94,0.38,2.8c0.04,0.86,0.07,1.64,0.1,2.34
					c0.05,1.38,0.09,2.43,0.12,3.18C910.45,176.92,910.44,177.28,910.44,177.28z"/>
			</g>
		</g>
		<g>
			<g>
				<path class="st4" d="M819.9,165.84h12.69c0,0,0-10.65,11.07-10.84c5.75-0.1,8.73,3.67,9.94,6.55c1.41,3.35,0.98,7.17-0.9,10.28
					c-2.15,3.55-6.87,6.77-15.42,5.27v18.62h12.55v-6.77c0,0,17.59-4.55,17.59-23.94c0-18.55-16.64-22.86-23.76-22.86
					C838.21,142.14,819.66,143.45,819.9,165.84z"/>
				<rect x="837.24" y="200.54" class="st4" width="12.73" height="11.89"/>
			</g>
		</g>
	</g>
	<g>
		<path class="st3" d="M781.52,234.83c0,5.63-4.56,10.2-10.2,10.2c-5.63,0-10.2-4.56-10.2-10.2c0-5.63,4.56-10.19,10.2-10.19
			C776.95,224.63,781.52,229.2,781.52,234.83z"/>
		<g>
			<path class="st2" d="M781.52,234.83c-0.09,0-0.06-0.91-0.48-2.45c-0.42-1.51-1.45-3.72-3.73-5.42c-2.2-1.7-5.83-2.65-9.33-1.34
				c-1.72,0.63-3.37,1.8-4.54,3.43c-1.2,1.6-1.88,3.66-1.9,5.78c0.02,2.12,0.69,4.18,1.9,5.78c1.17,1.63,2.81,2.8,4.54,3.43
				c3.5,1.31,7.13,0.36,9.33-1.34c2.28-1.7,3.31-3.91,3.73-5.42C781.46,235.73,781.43,234.82,781.52,234.83
				c0.03,0,0.05,0.22,0.05,0.65c0.01,0.43-0.04,1.07-0.21,1.87c-0.33,1.58-1.32,3.95-3.69,5.81c-2.29,1.87-6.15,2.97-9.96,1.6
				c-1.87-0.66-3.66-1.92-4.94-3.67c-1.31-1.73-2.05-3.97-2.07-6.27c0.02-2.3,0.76-4.54,2.07-6.27c1.28-1.75,3.07-3.01,4.94-3.67
				c3.8-1.37,7.67-0.27,9.95,1.6c2.37,1.86,3.36,4.23,3.69,5.81c0.18,0.8,0.23,1.44,0.21,1.87
				C781.57,234.6,781.55,234.83,781.52,234.83z"/>
		</g>
	</g>
</g>
<g>
	<g>
		<path class="st2" d="M410.33,725.27c-21.3-53.35-37.28-90.41-37.28-90.41l-194.74,29.6c0,0-35,89.73-31.97,130.44
			c3.03,40.72,17.28,112.41,17.28,112.41h235.65C399.28,907.31,431.63,778.62,410.33,725.27z"/>
		<g>
			<g>
				<path class="st2" d="M340.05,280.29c1.53-15.39,3.84-30.87,9.47-45.28s14.86-27.79,27.9-36.12l3.35,3.11
					c2.31-6.62,8.46-11.73,15.39-12.79c6.93-1.06,14.33,1.97,18.51,7.59c7.47-2.01,16.04,1.04,20.55,7.32
					c4.52,6.28,4.68,15.37,0.39,21.81c7,0.89,13.18,6.4,14.86,13.25s-1.24,14.59-7.03,18.62c7.71,6.67,10.79,18.21,7.41,27.82
					c-3.38,9.62-12.99,16.7-23.18,17.08c2.27,8.86-2.34,18.99-10.51,23.09s-19.06,1.75-24.8-5.37c0.71,9.21-6.65,17.93-15.63,20.13
					c-8.98,2.19-18.76-1.43-25.31-7.95c-6.55-6.52-10.15-15.55-11.54-24.69C338.49,298.79,339.14,289.48,340.05,280.29z"/>
				<g>
					<g>
						<g>
							<path class="st5" d="M381.49,212.08c8.96,2.9,10.79,10.15,12.65,16.2c4,13.01-0.5,32.26-7.78,43.76s-15.26,17.35-28.74,19.29
								c-0.44-20.65-0.88-41.3-1.31-61.96L381.49,212.08z"/>
						</g>
						<g>
							<g>
								<g>
									<g>
										<path class="st2" d="M386.55,247.65c6.12-7.94,5.25-20.42-1.9-27.44c3.92-4.93,2.51-12.53-1.47-17.4
											s-9.9-7.67-15.62-10.31c-3.14-14.41-19.32-24.55-33.66-21.09c-7.47-10.98-23.38-12.7-36.13-8.99
											c-3.11,0.91-6.23,2.08-9.47,2.07c-2.38-0.01-4.7-0.66-7.06-0.98c-12.97-1.75-25.85,7.39-30.9,19.46
											c-0.81,1.93-1.47,3.96-2.76,5.62c-1.68,2.17-4.23,3.45-6.41,5.12c-4.7,3.62-7.69,9.39-7.94,15.32
											c-0.21,5.04,1.39,10.38-0.73,14.96c-1.06,2.29-2.98,4.14-3.81,6.53c-2.4,6.92,5.27,14,3.85,21.18
											c-0.29,1.47-0.95,2.83-1.36,4.27c-0.83,2.94-0.55,6.18,0.78,8.94c1.02,2.12,2.67,4.07,2.81,6.42
											c0.11,1.79-0.69,3.49-1.05,5.24c-0.88,4.29,8.38,20.83,12.08,23.16l110.76,0.99c8.38-1.71,15.21-9.3,16.02-17.82
											c0.13-1.42,0.16-2.95,1.03-4.07c0.75-0.95,1.96-1.39,3.02-1.96c7.13-3.83,7.99-13.62,7.24-21.68
											c-0.11-1.13-0.22-2.28,0.06-3.38C384.35,250.21,385.55,248.96,386.55,247.65z"/>
									</g>
								</g>
								<g>
									<g>
										<path class="st6" d="M354.82,247.81c0.33-19.6-11.97-42.13-31.44-51.71c-12.27-6.04-21.85-6.08-28.3-6.83
											c-14.46-1.69-26.12,5.48-26.12,5.48c-6.1,1.43-28.48,21.92-29.64,44.15c-1.29,24.69-1.89,54.89,1.23,73.28
											c6.28,36.96,34.7,41.37,34.7,41.37c0-0.06-2.65,61.44-2.65,61.44l54.64,44.78l16.69-73.51L354.82,247.81z"/>
									</g>
								</g>
								<g>
									<g>
										<g>
											<g>
												<g>
													<g>
														<path class="st7" d="M275.25,353.53c0,0,25.09,1.35,49.61-13.75c0,0-12.92,26.24-50.01,23.17L275.25,353.53z"/>
													</g>
												</g>
											</g>
										</g>
									</g>
								</g>
								<g>
									<g>
										<g>
											<g>
												<g>
													<g>
														<path class="st6" d="M349.23,282.96c-0.02-2.76,3.09-9.29,5.81-9.75c7.26-1.21,20.37-0.77,20.69,17.7
															c0.44,25.24-24.34,19.6-25.05,19.75C346.66,311.49,349.31,292.48,349.23,282.96z"/>
													</g>
												</g>
											</g>
										</g>
									</g>
								</g>
								<g>
									<g>
										<g>
											<g>
												<g>
													<g>
														<g>
															<path class="st7" d="M357.49,301.32c0.11-0.08,0.45,0.3,1.19,0.63c0.73,0.32,1.98,0.53,3.29,0.01
																c2.65-1.02,4.82-5.3,4.86-9.85c0.02-2.3-0.49-4.48-1.34-6.28c-0.8-1.83-2.02-3.1-3.37-3.32
																c-1.34-0.29-2.28,0.53-2.57,1.25c-0.33,0.71-0.16,1.21-0.29,1.26c-0.07,0.07-0.55-0.41-0.36-1.46
																c0.1-0.5,0.38-1.11,0.97-1.6c0.6-0.5,1.48-0.77,2.42-0.68c1.95,0.1,3.73,1.86,4.66,3.83
																c1.04,1.98,1.67,4.43,1.65,7.01c-0.07,5.09-2.59,9.89-6.23,11.01c-1.77,0.49-3.26-0.02-4.03-0.6
																C357.54,301.93,357.4,301.37,357.49,301.32z"/>
														</g>
													</g>
												</g>
											</g>
										</g>
									</g>
								</g>
								<path class="st2" d="M233.9,235.15c0.8-9.17,4.46-17.86,8.88-25.93c3.06-5.59,6.58-11.04,11.4-15.2
									c4.03-3.48,8.82-5.94,13.63-8.22c12.65-6,26.75-11.09,40.41-8.01c7.33,1.65,13.93,5.55,20.35,9.45
									c4.92,2.99,9.86,6.06,13.98,10.08c3.62,3.53,6.52,7.72,9.09,12.08c6.11,10.38,10.43,21.98,11.25,33.99
									c0.83,12.01,9.92,22.64,2.87,32.41c-0.55,0.76-13.09,3.35-13.96,3.7c-2.04,0.81-4.28-1.4-4.27-3.6
									c0.02-2.19,1.53-4.09,3.15-5.56c-3.12-0.1-5.27-3.58-5.07-6.7c0.2-3.12,2.04-5.87,3.9-8.38c0.24-0.33,0.49-0.68,0.54-1.08
									c0.13-1.06-1.07-1.72-2-2.27c-4.5-2.66-5-10.06-0.9-13.31c-6.02-1.4-9.92-8.64-7.78-14.43c0.34-0.92,0.8-1.94,0.36-2.82
									c-0.42-0.84-1.46-1.1-2.36-1.37c-6.66-1.97-11.14-9.5-9.69-16.3c-3.5,0.18-7.07,0.36-10.47-0.47
									c-3.41-0.83-6.71-2.82-8.26-5.97c-2.23,4.03-6.62,6.77-11.22,7.02s-9.25-2.01-11.91-5.78c-5.88,0.56-11.89-0.37-17.33-2.68
									c-1.33,5.48-5.65,10.13-11.02,11.86c-1.04,0.34-2.24,0.66-2.74,1.64c-0.32,0.62-0.27,1.36-0.23,2.05
									c0.19,3.52-2.22,5.03-4.16,7.97c-1.94,2.95-5.33,7.33-8.72,6.36c0.38,6-2.83,10.37-7.9,13.61L233.9,235.15z"/>
								<g>
									<g>
										<path class="st8" d="M228.68,230.52c0,0,0.24-1.04,1.34-2.72c0.53-0.84,1.27-1.83,1.98-3.09
											c0.69-1.26,1.23-2.86,1.37-4.73c0.19-1.86,0.01-3.96-0.17-6.24s-0.37-4.82,0.13-7.5c0.48-2.66,1.53-5.43,3.25-7.98
											c0.86-1.27,1.88-2.49,3.07-3.6c1.18-1.12,2.57-2.06,3.96-3c1.38-0.95,2.78-1.97,3.81-3.34c1.04-1.38,1.67-3.06,2.35-4.77
											c1.37-3.45,3.37-6.83,6.05-9.81c2.66-2.98,5.89-5.69,9.72-7.61c1.88-1.03,3.95-1.72,6.06-2.34
											c2.14-0.48,4.36-0.86,6.63-0.81c1.13-0.02,2.27,0.13,3.4,0.24c1.13,0.17,2.25,0.39,3.36,0.58
											c2.23,0.42,4.49,0.47,6.75-0.05c2.26-0.46,4.47-1.3,6.79-1.9c2.31-0.66,4.71-1.05,7.14-1.33c2.43-0.27,4.91-0.27,7.4-0.13
											c2.49,0.18,4.97,0.62,7.42,1.3c4.84,1.43,9.56,4.1,12.78,8.28c0.32,0.41,0.63,0.83,0.95,1.23l-0.4-0.16
											c7.62-1.83,15.61,0.17,21.77,4.21c6.21,4.03,10.83,10.27,12.33,17.17l-0.2-0.25c3.07,1.42,6.09,2.85,8.89,4.6
											c2.79,1.74,5.35,3.83,7.28,6.4c1.91,2.58,3.08,5.62,3.36,8.69c0.29,3.06-0.46,6.22-2.34,8.55l-0.03-0.42
											c3.63,3.58,5.49,8.37,5.92,12.91c0.43,4.56-0.49,9.02-2.52,12.57c-0.46,0.91-1.09,1.71-1.66,2.51
											c-0.61,0.77-1.23,1.49-1.72,2.27c-0.49,0.77-0.81,1.61-0.88,2.48c-0.08,0.87,0.02,1.75,0.09,2.62
											c0.29,3.48,0.25,6.71-0.19,9.58c-0.44,2.86-1.25,5.38-2.42,7.31c-1.15,1.95-2.6,3.29-3.89,4.13
											c-1.3,0.87-2.45,1.21-3.08,1.69c-0.66,0.43-0.89,0.79-0.91,0.77c0,0,0.2-0.38,0.86-0.85c0.63-0.51,1.78-0.89,3.03-1.77
											c1.26-0.85,2.65-2.18,3.76-4.11c1.13-1.91,1.9-4.39,2.31-7.22c0.4-2.84,0.43-6.04,0.11-9.49
											c-0.08-0.86-0.19-1.76-0.11-2.7c0.06-0.94,0.42-1.88,0.93-2.7c0.51-0.82,1.14-1.56,1.73-2.32
											c0.55-0.79,1.15-1.56,1.6-2.46c1.96-3.46,2.84-7.81,2.39-12.26c-0.44-4.43-2.27-9.07-5.79-12.52l-0.2-0.2l0.18-0.22
											c1.75-2.19,2.46-5.17,2.18-8.1c-0.27-2.94-1.41-5.86-3.25-8.33c-1.86-2.47-4.36-4.51-7.1-6.21
											c-2.75-1.71-5.75-3.13-8.82-4.54l-0.16-0.08l-0.04-0.18c-1.46-6.69-5.96-12.77-12.03-16.7
											c-6.02-3.94-13.81-5.87-21.18-4.1l-0.24,0.06l-0.16-0.21c-0.3-0.39-0.61-0.79-0.91-1.19c-3.11-4.03-7.67-6.62-12.39-8.02
											c-2.39-0.66-4.82-1.09-7.26-1.28c-2.44-0.14-4.87-0.14-7.27,0.12c-2.39,0.27-4.75,0.65-7.03,1.3
											c-2.29,0.58-4.51,1.42-6.84,1.9c-1.16,0.24-2.34,0.39-3.53,0.4c-1.19,0-2.35-0.16-3.48-0.35s-2.24-0.42-3.35-0.59
											c-1.11-0.11-2.21-0.25-3.31-0.24c-2.2-0.06-4.36,0.31-6.45,0.77c-2.06,0.6-4.08,1.27-5.92,2.27
											c-3.75,1.87-6.93,4.51-9.55,7.43c-2.64,2.92-4.61,6.23-5.97,9.62c-0.69,1.69-1.34,3.43-2.45,4.89s-2.56,2.5-3.95,3.45
											c-1.41,0.94-2.76,1.85-3.92,2.93c-1.17,1.07-2.17,2.26-3.02,3.5c-1.69,2.48-2.74,5.19-3.23,7.79
											c-0.51,2.61-0.35,5.11-0.19,7.39c0.16,2.29,0.31,4.4,0.1,6.3c-0.17,1.9-0.75,3.54-1.47,4.81
											c-0.74,1.27-1.5,2.23-2.05,3.06c-0.56,0.82-0.92,1.48-1.14,1.94C228.78,230.27,228.7,230.52,228.68,230.52z"/>
									</g>
								</g>
								<g>
									<g>
										<path class="st8" d="M322,165.96c-0.04,0.06-0.67-0.38-1.9-0.97c-1.23-0.58-3.1-1.31-5.52-1.56
											c-2.4-0.27-5.37-0.04-8.29,1.27c-2.9,1.31-5.7,3.68-7.5,6.9c-0.51,0.92-0.95,1.91-1.23,2.87
											c-0.27,0.95-0.3,1.97,0.21,2.66l0.62,0.85l-1.02-0.28c-2.81-0.77-5.68-0.21-7.8,0.99c-2.15,1.2-3.51,3.05-4.24,4.71
											c-0.75,1.67-0.92,3.16-0.95,4.17s0.06,1.57,0,1.57c-0.02,0-0.06-0.13-0.12-0.39s-0.11-0.66-0.14-1.18
											c-0.04-1.03,0.05-2.58,0.77-4.35c0.71-1.75,2.09-3.76,4.36-5.08c2.23-1.32,5.28-1.96,8.32-1.15l-0.4,0.57
											c-0.71-0.98-0.62-2.25-0.33-3.29c0.31-1.07,0.75-2.06,1.3-3.04c1.88-3.37,4.83-5.84,7.88-7.17
											c3.07-1.34,6.17-1.51,8.64-1.17c2.49,0.33,4.38,1.16,5.59,1.83c0.61,0.34,1.06,0.64,1.35,0.86
											C321.87,165.81,322.02,165.93,322,165.96z"/>
									</g>
								</g>
								<g>
									<g>
										<path class="st8" d="M363.19,194.61c0.03,0.03-0.27,0.37-0.88,0.91c-0.61,0.53-1.54,1.28-2.84,2.01
											c-1.29,0.71-2.99,1.42-5.02,1.55c-2,0.14-4.38-0.3-6.28-1.85l0.56-0.09c-0.24,0.34-0.48,0.69-0.73,1.04
											c-0.27,0.34-0.57,0.66-0.85,1c-1.84,1.94-4.09,3.27-6.28,3.97c-2.18,0.73-4.28,0.92-6.01,0.8s-3.09-0.53-3.98-0.87
											c-0.88-0.39-1.34-0.65-1.32-0.69c0.05-0.16,1.96,0.91,5.33,1.03c1.67,0.05,3.68-0.19,5.75-0.93
											c2.08-0.71,4.21-2,5.95-3.83c0.27-0.32,0.55-0.62,0.81-0.94c0.24-0.33,0.47-0.66,0.7-0.98l0.25-0.35l0.31,0.26
											c1.7,1.4,3.89,1.85,5.77,1.76c1.9-0.08,3.54-0.7,4.83-1.33C361.81,195.76,363.11,194.5,363.19,194.61z"/>
									</g>
								</g>
								<g>
									<g>
										<path class="st8" d="M376.72,217.92c0.03,0.01,0.01,0.16-0.06,0.47c-0.09,0.29-0.23,0.73-0.55,1.23
											c-0.61,0.99-1.98,2.21-4.05,2.74c-2.07,0.56-4.65,0.16-7.22-0.73c-1.29-0.45-2.63-0.9-4-1.54
											c-1.33-0.64-2.79-1.57-3.51-3.15c-0.05-0.14-0.11-0.28-0.16-0.4l0.6,0.18c-2.42,1.92-4.91,3.59-7.45,4.56
											c-2.53,1-5.07,1.17-7.08,0.79c-2.03-0.37-3.52-1.21-4.38-1.95c-0.44-0.36-0.74-0.69-0.92-0.93
											c-0.18-0.24-0.27-0.37-0.25-0.38c0.05-0.05,0.45,0.44,1.35,1.08c0.88,0.64,2.35,1.37,4.29,1.66
											c1.94,0.3,4.33,0.08,6.74-0.91c2.43-0.96,4.84-2.6,7.23-4.5l0.4-0.32l0.2,0.5c0.04,0.11,0.09,0.22,0.13,0.34
											c0.59,1.31,1.87,2.17,3.14,2.79c1.29,0.62,2.64,1.09,3.9,1.55c2.51,0.9,4.93,1.32,6.86,0.87c1.95-0.43,3.28-1.5,3.93-2.38
											C376.54,218.55,376.64,217.89,376.72,217.92z"/>
									</g>
								</g>
							</g>
						</g>
					</g>
					<g>
						<g>
							<g>
								<g>
									<g>
										<g>
											<g>
												<g>
													<g>
														<path class="st2" d="M295.21,269.18c-0.17,2.46,1.78,4.63,4.35,4.85c2.56,0.22,4.78-1.59,4.95-4.05
															s-1.78-4.64-4.34-4.86C297.59,264.9,295.37,266.72,295.21,269.18z"/>
													</g>
												</g>
											</g>
										</g>
									</g>
								</g>
							</g>
						</g>
					</g>
					<g>
						<g>
							<g>
								<g>
									<g>
										<g>
											<g>
												<g>
													<g>
														<path class="st2" d="M249.96,267.94c-0.17,2.46,1.78,4.63,4.35,4.85c2.56,0.22,4.78-1.59,4.95-4.05
															c0.17-2.46-1.78-4.64-4.34-4.86C252.34,263.67,250.13,265.48,249.96,267.94z"/>
													</g>
												</g>
											</g>
										</g>
									</g>
								</g>
							</g>
						</g>
					</g>
					<g>
						<g>
							<g>
								<g>
									<g>
										<g>
											<g>
												<g>
													<g>
														<g>
															<path class="st2" d="M248.12,252.45c0.56,0.63,4.18-1.88,9.2-1.7c5.02,0.1,8.62,2.81,9.19,2.21
																c0.28-0.26-0.28-1.38-1.84-2.6c-1.54-1.21-4.2-2.43-7.33-2.52c-3.13-0.08-5.8,0.98-7.35,2.11
																C248.4,251.09,247.84,252.17,248.12,252.45z"/>
														</g>
													</g>
												</g>
											</g>
										</g>
									</g>
								</g>
							</g>
						</g>
					</g>
					<g>
						<g>
							<g>
								<g>
									<g>
										<g>
											<g>
												<g>
													<g>
														<g>
															<path class="st2" d="M298.07,254.96c0.62,0.57,3.97-2.3,8.98-2.64c5-0.41,8.87,1.9,9.37,1.25
																c0.25-0.29-0.41-1.35-2.1-2.4c-1.66-1.05-4.43-1.99-7.55-1.76c-3.12,0.24-5.67,1.57-7.09,2.86
																C298.22,253.57,297.77,254.71,298.07,254.96z"/>
														</g>
													</g>
												</g>
											</g>
										</g>
									</g>
								</g>
							</g>
						</g>
					</g>
					<g>
						<g>
							<g>
								<g>
									<g>
										<g>
											<g>
												<g>
													<g>
														<path class="st2" d="M279.34,292.67c0.03-0.28-3.07-0.92-8.11-1.73c-1.28-0.17-2.48-0.47-2.67-1.35
															c-0.27-0.94,0.31-2.3,0.98-3.77c1.31-3.07,2.67-6.28,4.11-9.65c5.71-13.74,9.9-25.05,9.34-25.27
															c-0.56-0.23-5.64,10.73-11.35,24.46c-1.38,3.39-2.7,6.62-3.95,9.71c-0.53,1.44-1.42,3.07-0.83,5.01
															c0.31,0.97,1.23,1.7,2.05,1.94c0.81,0.28,1.54,0.31,2.17,0.37C276.16,292.83,279.31,292.95,279.34,292.67z"/>
													</g>
												</g>
											</g>
										</g>
									</g>
								</g>
							</g>
						</g>
					</g>
					<path class="st7" d="M287.12,300.14c1.88,0.26,3.76,1.24,4.86,2.81c1.1,1.57,1.89,5.26,0.8,6.69
						c-0.93,1.22-5.08,1.22-7.93,0.86c-1.32-0.17-2.43-1.08-2.86-2.34l-1.13-3.24c-0.64-1.85,0.32-3.92,2.18-4.5
						C284.31,300.02,285.73,299.94,287.12,300.14z"/>
					<g>
						<g>
							<g>
								<g>
									<g>
										<path class="st2" d="M295.79,236.62c0.75,1.25,5.55-0.35,11.47-0.78c5.92-0.55,10.91,0.24,11.45-1.12
											c0.23-0.64-0.83-1.75-2.97-2.68c-2.12-0.93-5.35-1.58-8.9-1.29c-3.55,0.3-6.62,1.47-8.56,2.74
											C296.32,234.76,295.46,236.02,295.79,236.62z"/>
									</g>
								</g>
							</g>
						</g>
					</g>
					<g>
						<g>
							<g>
								<g>
									<g>
										<path class="st2" d="M249.36,244.2c1.05,1.11,5.03-0.18,9.85-0.36c4.81-0.33,8.92,0.53,9.83-0.69
											c0.4-0.59-0.28-1.72-2.09-2.75c-1.79-1.03-4.75-1.83-8.06-1.65c-3.31,0.18-6.15,1.29-7.8,2.51
											C249.42,242.47,248.89,243.66,249.36,244.2z"/>
									</g>
								</g>
							</g>
						</g>
					</g>
				</g>
			</g>
			<g>
				<g>
					<path class="st8" d="M422.47,452.82l-47.4,171.92l16.63,49.28c-62.59,27.58-153.06,36.35-224.38,1.79
						c0,0,24.23-71.08,25.05-84.92c0.82-13.84-5.13-94.66,1.46-121.77c6.59-27.11,25.47-85.21,25.47-85.21l55.51-8.81
						c25.45,13.67,41.75,15.71,69.12-0.14l51.71,11.28L422.47,452.82z"/>
				</g>
				<g>
					<path class="st8" d="M220.14,383.81c0,0-29.81,3.16-41.82,27.68c-11.86,24.22-44.78,131.43-46.57,149.34
						c-1.79,17.91,12.74,42.02,25.41,45.35l38.41-38.29l31.87,2.84l41.96-195.77L220.14,383.81z"/>
				</g>
				<g class="st9">
					<g>
						<path d="M197.63,449.67c-9.27,24.05-11.89,50.62-7.5,76.01c-7-2.61-13.99-5.23-20.99-7.84c5.72,7.9,13.23,14.49,21.81,19.13
							c-5.66-1.64-11.46-3.29-17.34-2.91c-5.88,0.38-11.95,3.22-14.6,8.48c6.86-1.25,13.84-2.51,20.77-1.7
							c6.93,0.81,13.92,4.01,17.64,9.9c-5.17-22.33-7.17-45.4-5.9-68.28"/>
					</g>
				</g>
			</g>
			<g>
				<g class="st9">
					<g>
						<path d="M188.92,597.11l156.45,15.5c-11.28-0.24-19.95,9.31-29.72,14.95c-18.08,10.46-40.59,7.53-61.22,4.29
							c-17.09-2.69-34.19-5.38-51.28-8.07c-4.31-0.68-8.91-1.49-12.09-4.48C185.36,613.94,186.92,604.68,188.92,597.11z"/>
					</g>
				</g>
				<g>
					<path class="st6" d="M308.4,584.25l26.2-25.29c2.54-2.46,6.02-3.68,9.54-3.35c7.48,0.71,20.15,2.02,22.75,3.04
						c3.75,1.46,7.29,3.54,8.33,5.41c1.04,1.87,4.58,13.11,4.79,14.78c0.1,0.81-0.14,3.14-0.42,5.33c-0.33,2.58-3.17,4.11-5.43,2.83
						c-1.02-0.58-1.94-1.34-2.47-2.33c-1.67-3.12-1.46-4.37-1.46-4.37s0.83,11.24-8.33,11.45c0,0,4.22,9.58-7.57,13.53
						c0,0,0.44,6.24-9.42,7.08c-9.86,0.83-18.81,0-18.81,0s-18.02,12.95-30.72,13.78s-41.13-4.72-41.13-4.72l-3.43-52.36
						L308.4,584.25z"/>
				</g>
				<g>
					<g>
						<path class="st7" d="M343.9,568.2c-0.03,0.09,1.57,0.77,4.2,1.76c2.63,0.98,6.29,2.29,10.45,3.4
							c2.06,0.59,4.13,0.91,5.86,1.39c1.75,0.47,2.81,1.78,3.57,2.93c0.76,1.16,1.36,2.15,1.89,2.75c0.52,0.61,0.88,0.87,0.91,0.84
							c0.04-0.04-0.25-0.36-0.69-1c-0.45-0.64-0.97-1.63-1.69-2.85c-0.37-0.6-0.81-1.26-1.43-1.87c-0.61-0.62-1.45-1.11-2.36-1.4
							c-1.84-0.54-3.81-0.86-5.88-1.45c-4.12-1.1-7.79-2.33-10.46-3.19C345.59,568.62,343.93,568.11,343.9,568.2z"/>
					</g>
				</g>
				<g>
					<g>
						<path class="st7" d="M340.53,584.26c-0.03,0.09,1.08,0.61,2.92,1.35c1.84,0.74,4.4,1.69,7.27,2.65s5.49,1.74,7.4,2.26
							s3.11,0.77,3.14,0.68c0.03-0.09-1.12-0.52-2.99-1.15c-2.12-0.71-4.59-1.54-7.32-2.45c-2.73-0.91-5.2-1.74-7.32-2.45
							C341.73,584.52,340.56,584.16,340.53,584.26z"/>
					</g>
				</g>
				<g>
					<g>
						<path class="st7" d="M334.05,599.19c-0.02,0.21,4.56,0.68,10.01,2.17c5.46,1.46,9.66,3.36,9.75,3.16
							c0.04-0.08-0.96-0.66-2.67-1.42c-1.71-0.76-4.13-1.67-6.89-2.42c-2.76-0.74-5.31-1.17-7.17-1.37
							C335.22,599.1,334.06,599.1,334.05,599.19z"/>
					</g>
				</g>
				<g>
					<path class="st8" d="M273.38,624.74l-116.22-18.55c0,0,13.97-58.29,34.34-58.29c2.98,0,106.22,33.54,106.22,33.54
						L273.38,624.74z"/>
				</g>
				<g>
					<g>
						<path class="st7" d="M293.71,599.35c0.07,0.07,1.09-0.91,2.73-2.49c1.79-1.76,3.96-3.89,6.35-6.24
							c2.47-2.45,4.67-4.71,6.21-6.39c1.55-1.68,2.44-2.78,2.37-2.84c-0.07-0.07-1.09,0.91-2.73,2.49
							c-1.79,1.76-3.96,3.89-6.35,6.24c-2.47,2.45-4.67,4.71-6.21,6.39C294.53,598.19,293.64,599.29,293.71,599.35z"/>
					</g>
				</g>
			</g>
			<g>
				<path class="st2" d="M297.72,581.43c-0.02,0.06-0.53-0.04-1.48-0.28c-1.14-0.3-2.5-0.67-4.14-1.1
					c-3.84-1.1-8.95-2.57-15.14-4.36c-12.77-3.75-30.37-9.04-49.78-14.97c-10.75-3.32-20.93-6.46-29.97-9.25l-0.24-0.07l-0.18-0.24
					c-3.56-4.79-8.81-7.71-13.55-9.15c-4.81-1.47-9.32-1.65-12.95-1.32c-3.66,0.3-6.47,1.1-8.37,1.67
					c-1.89,0.61-2.87,1.04-2.91,0.97c-0.04-0.07,0.88-0.66,2.75-1.42c1.87-0.72,4.7-1.68,8.44-2.12c3.71-0.47,8.37-0.41,13.41,1.02
					c4.99,1.45,10.45,4.27,14.45,9.53l-0.41-0.31c9.05,2.74,19.25,5.84,30.01,9.1c19.41,5.94,36.96,11.4,49.63,15.44
					c6.13,1.99,11.19,3.63,14.99,4.86c1.6,0.56,2.94,1.02,4.05,1.4C297.26,581.17,297.73,581.37,297.72,581.43z"/>
			</g>
		</g>
		<g>
			<g>
				<g>
					<g>
						<path class="st6" d="M266.93,395.1c0.97-3.23,6.43-33.1,8.65-40.04c3.13-9.8,28.59-27.32,28.59-27.32s-3.99-9.2-14.83-4.42
							c-12.83,5.66-19.17,15.19-22.41,13.25c-3.23-1.94-23.39-22.46-28.88-21.81c-5.5,0.65-6.7,6.28-4.76,8.55
							c1.94,2.26,4.12,6,4.12,6s-11.64-3.5-9.37,9.24c0,0-13.25-8.27-11.96,9.19c0,0-8.73-3.56-10.67,2.59
							c-1.94,6.14,3.81,13.25,6.72,18.1s12.35,32.97,12.35,32.97l0.11,24.8l46.34-9.53L266.93,395.1z"/>
						<g>
							<path class="st7" d="M266.93,395.1c0.04,0,0.16,0.48,0.37,1.42c0.22,1.04,0.5,2.41,0.87,4.16c0.74,3.76,1.79,9.1,3.14,15.92
								l0.07,0.37l-0.38,0.08c-11.44,2.42-27.27,5.76-46.29,9.78l-0.77,0.16l-0.01-0.79c-0.06-7.64-0.12-15.99-0.19-24.8l0.04,0.23
								c-3.31-9.54-6.74-19.8-11.06-30.16c-2.11-4.99-6.51-9.34-8.1-15.4c-0.39-1.5-0.57-3.12-0.31-4.73
								c0.24-1.55,0.98-3.34,2.51-4.32c1.49-0.99,3.26-1.2,4.85-1.09c1.63,0.12,3.15,0.47,4.69,1.05l-1.13,0.83
								c-0.06-1.71-0.13-3.44,0.11-5.22c0.32-1.74,0.71-3.69,2.22-5.16c1.46-1.54,3.75-1.87,5.6-1.54c1.91,0.31,3.63,0.99,5.3,1.96
								l-1.26,0.85c-0.31-2.34-0.71-5.2,0.87-7.76c0.98-1.61,2.82-2.54,4.52-2.78c1.74-0.25,3.39-0.07,5.05,0.36l-0.96,1.22
								c-1.16-1.94-2.41-3.89-3.79-5.6c-0.9-0.9-1.37-2.45-1.29-3.7c0.07-1.31,0.51-2.57,1.26-3.62c0.75-1.06,1.82-1.88,3-2.34
								c0.59-0.22,1.2-0.39,1.81-0.47c0.59-0.08,1.43,0.01,2.01,0.17c2.38,0.77,4.2,2.1,6.05,3.39
								c7.23,5.28,13.42,11.34,19.67,16.81c0.75,0.61,1.67,1.47,2.21,1.63c0.56,0.18,1.49-0.25,2.29-0.73
								c1.65-1.03,3.23-2.35,4.82-3.58c3.17-2.51,6.43-4.86,9.86-6.79c3.41-1.8,7-3.79,11.05-3.62c4.06,0.09,7.55,2.79,9.17,6.2
								l0.24,0.5l-0.48,0.34c-9.92,7.05-18.84,13.99-25.14,21.46c-1.57,1.88-2.79,3.86-3.49,5.97c-0.65,2.18-1.15,4.34-1.64,6.41
								c-0.91,4.15-1.75,7.96-2.51,11.41c-1.45,6.81-2.6,12.18-3.41,15.97c-0.41,1.83-0.74,3.23-0.99,4.17
								C267.13,394.64,266.93,395.1,266.93,395.1c-0.04,0,0.07-0.49,0.25-1.45c0.2-1.05,0.46-2.44,0.79-4.21
								c0.72-3.81,1.75-9.2,3.04-16.04c0.71-3.47,1.49-7.3,2.35-11.47c0.46-2.09,0.94-4.25,1.58-6.5c0.72-2.28,2.04-4.44,3.61-6.36
								c6.4-7.72,15.26-14.71,25.23-21.9l-0.24,0.83c-1.43-2.91-4.49-5.3-7.98-5.32c-3.5-0.16-6.92,1.69-10.26,3.49
								c-3.33,1.89-6.5,4.19-9.64,6.7c-1.59,1.24-3.13,2.56-4.97,3.71c-0.93,0.5-1.97,1.23-3.49,0.91
								c-1.42-0.52-1.96-1.29-2.84-1.95c-6.32-5.5-12.51-11.52-19.6-16.67c-1.76-1.24-3.64-2.53-5.54-3.13
								c-0.48-0.11-0.81-0.17-1.31-0.13c-0.5,0.07-0.98,0.21-1.44,0.37c-0.92,0.36-1.71,0.97-2.27,1.77
								c-1.12,1.56-1.4,3.92-0.03,5.3c1.5,1.85,2.74,3.79,3.95,5.82l1.05,1.76l-2.01-0.54c-2.7-0.72-6.25-0.64-7.68,1.72
								c-1.18,1.82-0.95,4.41-0.63,6.57l0.25,1.74l-1.52-0.89c-1.42-0.83-3.07-1.48-4.66-1.73c-1.6-0.27-3.19,0.01-4.19,1.07
								c-2.05,2.22-1.99,5.95-1.85,9.08l0.06,1.26l-1.19-0.43c-2.61-0.95-5.88-1.52-8-0.14c-1.06,0.67-1.6,1.89-1.83,3.23
								c-0.22,1.33-0.08,2.72,0.27,4.07c0.7,2.71,2.13,5.24,3.63,7.66c1.47,2.41,3.26,4.8,4.34,7.51
								c4.34,10.52,7.71,20.74,10.99,30.33l0.04,0.11v0.12c0.01,8.81,0.02,17.16,0.03,24.8l-0.77-0.63
								c19.06-3.81,34.92-6.98,46.39-9.27l-0.3,0.45c-1.19-6.88-2.12-12.27-2.78-16.06c-0.28-1.75-0.5-3.13-0.67-4.17
								C266.94,395.58,266.89,395.1,266.93,395.1z"/>
						</g>
					</g>
				</g>
				<g>
					<g>
						<path class="st7" d="M237.44,329.64c-0.12,0.16,2.49,2.39,5.62,5.25c3.14,2.85,5.61,5.24,5.76,5.1
							c0.14-0.13-2.12-2.75-5.29-5.62C240.38,331.49,237.55,329.49,237.44,329.64z"/>
					</g>
				</g>
				<g>
					<g>
						<path class="st7" d="M227.07,337.86c-0.17,0.07,0.83,2.58,2.86,5.18c2.02,2.61,4.2,4.2,4.3,4.05
							c0.14-0.16-1.79-1.94-3.75-4.48C228.51,340.07,227.26,337.76,227.07,337.86z"/>
					</g>
				</g>
				<g>
					<g>
						<path class="st7" d="M216.24,347.1c-0.16,0.11,0.93,1.89,2.44,3.98c1.5,2.08,2.85,3.68,3,3.56c0.16-0.11-0.93-1.89-2.44-3.98
							C217.74,348.58,216.4,346.99,216.24,347.1z"/>
					</g>
				</g>
			</g>
		</g>
		<path class="st8" d="M395.64,386.24l-49.84,49.73l-51.13,64.24l-20.34-85.61l-51.96,10.68c0,0,3.67,96.71,19.66,140.53
			c3.04,8.34,12.05,14.54,16.06,16.45c25.12,11.93,49.64-6.53,49.64-6.53s104.8-70.34,116.16-117.42
			c5.36-22.24,3.21-48.67-5.93-59.55C409.93,389.19,395.64,386.24,395.64,386.24z"/>
		<g>
			<path class="st2" d="M423.89,458.31c0,0-0.12,0.52-0.4,1.52c-0.33,0.99-0.59,2.54-1.4,4.4c-1.32,3.85-4.03,9.25-8.23,15.73
				c-4.22,6.47-10.04,13.95-17.44,22.05c-7.42,8.07-16.32,16.86-26.66,26c-10.3,9.18-22.01,18.76-34.9,28.61
				c-6.45,4.92-13.2,9.9-20.26,14.89c-1.77,1.24-3.56,2.48-5.36,3.73c-1.78,1.23-3.64,2.52-5.58,3.62
				c-3.89,2.2-8.06,4.06-12.44,5.43c-8.72,2.82-18.58,3.39-27.84,0.52c-1.18-0.27-2.26-0.85-3.4-1.27
				c-1.12-0.46-2.27-0.86-3.34-1.49c-2.15-1.19-4.14-2.62-6.05-4.18c-3.74-3.16-7.17-7.02-9-11.8c-3.32-9.4-5.69-19.25-7.8-29.3
				c-1.91-10.08-3.68-20.34-5-30.78c-3.66-27.86-5.75-55-6.92-80.71l-0.02-0.42l0.41-0.08c18.14-3.72,35.51-7.27,51.97-10.65
				l0.44-0.09l0.1,0.44c7.68,32.53,14.52,61.47,20.23,85.63l-0.6-0.16c17.55-18.88,31.64-34.03,41.36-44.49
				c4.85-5.19,8.61-9.21,11.18-11.96c1.27-1.34,2.24-2.37,2.92-3.08c0.66-0.69,1.02-1.02,1.02-1.02s-0.31,0.38-0.94,1.09
				c-0.66,0.73-1.61,1.78-2.84,3.15c-2.54,2.78-6.25,6.84-11.05,12.08c-9.67,10.51-23.68,25.74-41.13,44.71l-0.45,0.48l-0.15-0.64
				c-5.77-24.15-12.68-53.08-20.44-85.58l0.54,0.35c-16.45,3.39-33.82,6.97-51.95,10.71l0.4-0.5c1.19,25.66,3.29,52.79,6.95,80.61
				c1.32,10.43,3.09,20.67,4.99,30.72c2.09,10.01,4.45,19.83,7.74,29.15c1.73,4.54,5.04,8.3,8.69,11.39
				c1.86,1.53,3.82,2.93,5.89,4.08c1.02,0.6,2.14,0.99,3.24,1.44c1.11,0.4,2.17,0.97,3.32,1.24c9.04,2.81,18.68,2.27,27.27-0.49
				c4.32-1.34,8.42-3.16,12.26-5.33c1.93-1.09,3.7-2.31,5.53-3.57c1.8-1.25,3.58-2.49,5.35-3.72c7.06-4.97,13.81-9.93,20.26-14.83
				c12.9-9.81,24.62-19.34,34.93-28.48c10.35-9.09,19.27-17.83,26.72-25.84c7.42-8.04,13.27-15.47,17.53-21.88
				c4.23-6.43,6.99-11.77,8.37-15.59c0.84-1.85,1.13-3.38,1.5-4.36C423.71,458.81,423.89,458.31,423.89,458.31z"/>
		</g>
		<g>
			<path class="st2" d="M304.12,539.52c-0.18-0.04,0.43-2.52,0.74-6.57c0.2-2.03,0.17-4.45,0.02-7.13c-0.22-2.67-0.67-5.6-1.43-8.59
				c-1.53-6.01-4.12-11.07-6.2-14.56c-2.12-3.48-3.69-5.48-3.55-5.59c0.06-0.04,0.49,0.42,1.24,1.29c0.77,0.86,1.76,2.2,2.92,3.91
				c2.27,3.43,5.02,8.54,6.59,14.69c0.78,3.06,1.21,6.06,1.38,8.79c0.09,2.74,0.05,5.21-0.25,7.26c-0.25,2.05-0.57,3.69-0.89,4.8
				C304.39,538.94,304.19,539.54,304.12,539.52z"/>
		</g>
		<g>
			<path class="st2" d="M297.03,306.65c-0.09,0.27-1.16,0.15-2.8-0.18c-1.64-0.32-3.84-0.82-6.28-1.01
				c-2.45-0.21-4.64-0.03-6.14,0.37c-1.54,0.36-2.19,0.98-2.44,0.88c-0.12-0.06-0.12-0.4,0.19-0.86s0.91-0.96,1.72-1.38
				c1.63-0.85,4.16-1.29,6.83-1.06c2.69,0.21,5,0.99,6.56,1.68C296.23,305.78,297.12,306.38,297.03,306.65z"/>
		</g>
	</g>
	<g class="st9">
		<path d="M376.2,623.64c0,0-22.82-2.8-35.09-4.7c-6.71-1.04-16.92-2.12-18.85-3.99c-2.4-2.33-2.39-6.21-2.64-9.54
			c-4.35-56.92,15.22-118.49,75.7-155.21l15.43,4.06l-1,37.08L376.2,623.64z"/>
	</g>
</g>
<g>
	<g>
		<g>
			<g>
				<g>
					<g>
						<g>
							<g>
								<g>
									<g>
										<g>
											<g>
												<g>
													<path class="st2" d="M732.78,180.04c7.74,0.69,15.52-5.17,16.99-12.8s-3.58-15.96-11.03-18.19
														c4.68-5.04,5.69-13.13,2.38-19.16s-10.67-9.53-17.44-8.3c-0.45-6.77-4.66-13.18-10.7-16.27
														c-6.04-3.1-13.7-2.77-19.46,0.83c-7.65-6.25-19.74-6.19-27.34,0.12c-6.62-1.06-13.72,2.63-16.67,8.65
														c-2.95,6.02-1.5,13.89,3.39,18.47"/>
												</g>
											</g>
										</g>
									</g>
								</g>
							</g>
						</g>
					</g>
					<g>
						<g>
							<g>
								<g>
									<g>
										<g>
											<g>
												<path class="st6" d="M663.16,121.99l3.48-0.08c35.06-0.82,64.87,25.42,68.5,60.3c3.38,32.44,6.7,68.32,6.89,85.76
													c0.4,36.11-35.58,42.57-35.58,42.57l4.06,43.3l-87.68-0.67l-11.42-157.13C607.3,158.63,625.65,125.06,663.16,121.99z"/>
											</g>
										</g>
									</g>
								</g>
							</g>
							<g>
								<g>
									<g>
										<g>
											<g>
												<g>
													<g>
														<g>
															<g>
																<g>
																	<g>
																		<path class="st7" d="M706.49,310.53c0,0-25.17,1.87-49.78-12.79c0,0,14.67,26.32,50.62,22.23L706.49,310.53z"/>
																	</g>
																</g>
															</g>
														</g>
													</g>
												</g>
											</g>
										</g>
									</g>
								</g>
							</g>
							<g>
								<g>
									<g>
										<g>
											<g>
												<g>
													<g>
														<g>
															<g>
																<g>
																	<g>
																		<g>
																			<g>
																				<g>
																					<path class="st2" d="M724.11,221.39c0.16,2.72-2.01,5.1-4.85,5.32c-2.83,0.22-5.26-1.8-5.42-4.52
																						s2.01-5.1,4.84-5.32C721.52,216.64,723.95,218.67,724.11,221.39z"/>
																				</g>
																			</g>
																		</g>
																	</g>
																</g>
															</g>
														</g>
													</g>
												</g>
											</g>
										</g>
									</g>
								</g>
							</g>
							<g>
								<g>
									<g>
										<g>
											<g>
												<g>
													<g>
														<g>
															<g>
																<g>
																	<g>
																		<g>
																			<g>
																				<g>
																					<g>
																						<path class="st2" d="M727.79,200.05c-0.62,0.69-4.6-2.11-10.14-1.97c-5.54,0.06-9.55,3.01-10.17,2.35
																							c-0.3-0.29,0.32-1.52,2.06-2.86c1.72-1.33,4.66-2.65,8.12-2.71c3.46-0.06,6.39,1.14,8.09,2.41
																							C727.49,198.54,728.1,199.74,727.79,200.05z"/>
																					</g>
																				</g>
																			</g>
																		</g>
																	</g>
																</g>
															</g>
														</g>
													</g>
												</g>
											</g>
										</g>
									</g>
								</g>
							</g>
							<g>
								<g>
									<g>
										<g>
											<g>
												<g>
													<g>
														<g>
															<g>
																<g>
																	<g>
																		<g>
																			<g>
																				<g>
																					<path class="st2" d="M676.34,221.39c0.16,2.72-2.01,5.1-4.85,5.32c-2.83,0.22-5.26-1.8-5.42-4.52
																						s2.01-5.1,4.85-5.32C673.75,216.64,676.18,218.67,676.34,221.39z"/>
																				</g>
																			</g>
																		</g>
																	</g>
																</g>
															</g>
														</g>
													</g>
												</g>
											</g>
										</g>
									</g>
								</g>
							</g>
							<g>
								<g>
									<g>
										<g>
											<g>
												<g>
													<g>
														<g>
															<g>
																<g>
																	<g>
																		<g>
																			<g>
																				<g>
																					<g>
																						<path class="st2" d="M673.28,202.36c-0.62,0.69-4.6-2.11-10.15-1.97c-5.54,0.06-9.55,3.01-10.17,2.35
																							c-0.3-0.29,0.31-1.52,2.06-2.85c1.71-1.33,4.66-2.64,8.12-2.71c3.46-0.06,6.39,1.14,8.1,2.41
																							C672.98,200.85,673.59,202.05,673.28,202.36z"/>
																					</g>
																				</g>
																			</g>
																		</g>
																	</g>
																</g>
															</g>
														</g>
													</g>
												</g>
											</g>
										</g>
									</g>
								</g>
							</g>
							<g>
								<g>
									<g>
										<g>
											<g>
												<g>
													<g>
														<g>
															<g>
																<g>
																	<g>
																		<g>
																			<g>
																				<g>
																					<path class="st2" d="M694.37,243.04c-0.03-0.32,3.4-0.99,8.97-1.84c1.41-0.18,2.75-0.49,2.96-1.46
																						c0.31-1.03-0.32-2.54-1.04-4.18c-1.41-3.4-2.89-6.96-4.44-10.69c-6.18-15.22-10.68-27.75-10.07-28
																						c0.62-0.24,6.12,11.9,12.3,27.12c1.49,3.75,2.91,7.33,4.27,10.76c0.57,1.6,1.54,3.4,0.86,5.54
																						c-0.36,1.07-1.38,1.86-2.28,2.13c-0.9,0.3-1.7,0.33-2.4,0.39C697.89,243.24,694.4,243.35,694.37,243.04z"/>
																				</g>
																			</g>
																		</g>
																	</g>
																</g>
															</g>
														</g>
													</g>
												</g>
											</g>
										</g>
									</g>
								</g>
							</g>
							<g>
								<g>
									<g>
										<g>
											<g>
												<g>
													<g>
														<g>
															<g>
																<g>
																	<path class="st2" d="M674.45,190.9c-0.7,1.42-5.49,0.01-11.35-0.04c-5.86-0.19-10.76,1.03-11.33-0.42
																		c-0.25-0.69,0.76-1.98,2.85-3.15c2.07-1.17,5.23-2.12,8.74-2.05c3.51,0.07,6.58,1.15,8.54,2.4
																		C673.87,188.9,674.76,190.22,674.45,190.9z"/>
																</g>
															</g>
														</g>
													</g>
												</g>
											</g>
										</g>
									</g>
								</g>
							</g>
							<g>
								<g>
									<g>
										<g>
											<g>
												<g>
													<g>
														<g>
															<g>
																<g>
																	<path class="st2" d="M727.53,177.17c-1.14,1.29-5.75,0.09-11.26,0.15c-5.51-0.09-10.15,1.08-11.25-0.21
																		c-0.49-0.63,0.22-1.91,2.23-3.15c1.98-1.24,5.32-2.29,9.1-2.28c3.79,0.01,7.09,1.08,9.04,2.32
																		C727.36,175.26,728.03,176.54,727.53,177.17z"/>
																</g>
															</g>
														</g>
													</g>
												</g>
											</g>
										</g>
									</g>
								</g>
							</g>
							<g>
								<g>
									<g>
										<g>
											<g>
												<g>
													<g>
														<g>
															<g>
																<path class="st2" d="M731.28,165.73c0,0-10.05-22.39-21.07-27.41c-13.35-6.08-18.69,8.54-31.35,5.32
																	c-12.66-3.22-25.4-9.06-38.03,0.97c-13.82,10.97-7.06,18.28-7.55,34.32c-2.01,65.03-13.44,83.67-17.53,53.16
																	c-0.45-3.34-9.81-5.79-11.52-19.92c-2.22-18.32-3.44-40.6,0.35-53.72c3.2-11.06,9.28-18.8,20.32-27.43
																	c17.42-13.62,41.76-14.47,58.33-13.19C699.81,119.1,732.13,137.39,731.28,165.73z"/>
															</g>
														</g>
													</g>
												</g>
											</g>
										</g>
									</g>
								</g>
							</g>
							<g>
								<g>
									<g>
										<g>
											<g>
												<g>
													<g>
														<g>
															<g>
																<path class="st6" d="M618.03,231.05c-0.36-5.57-5.26-9.85-10.8-9.2c-6.72,0.8-14.12,4.79-13.35,18.7
																	c1.36,24.66,25.84,18.21,25.85,17.5C619.72,257.56,618.69,241.36,618.03,231.05z"/>
															</g>
														</g>
													</g>
												</g>
											</g>
										</g>
									</g>
								</g>
							</g>
							<g>
								<g>
									<g>
										<g>
											<g>
												<g>
													<g>
														<g>
															<g>
																<path class="st7" d="M613.84,249.06c-0.11-0.07-0.41,0.33-1.12,0.7c-0.69,0.36-1.89,0.65-3.21,0.24
																	c-2.66-0.81-5.08-4.83-5.45-9.27c-0.19-2.24,0.17-4.4,0.86-6.22c0.65-1.85,1.75-3.17,3.05-3.48
																	c1.29-0.37,2.26,0.36,2.6,1.04c0.37,0.67,0.24,1.17,0.37,1.21c0.07,0.06,0.51-0.44,0.25-1.45
																	c-0.13-0.48-0.45-1.05-1.06-1.49c-0.62-0.45-1.5-0.65-2.41-0.5c-1.89,0.24-3.51,2.08-4.28,4.07
																	c-0.87,2.01-1.32,4.44-1.11,6.96c0.43,4.96,3.23,9.47,6.86,10.3c1.76,0.36,3.18-0.25,3.89-0.87
																	C613.83,249.66,613.93,249.1,613.84,249.06z"/>
															</g>
														</g>
													</g>
												</g>
											</g>
										</g>
									</g>
								</g>
							</g>
						</g>
						<g>
							<g>
								<g>
									<g>
										<g>
											<g>
												<g>
													<g>
														<path class="st2" d="M617.39,183.22c3.26,2.11,6.7,4.29,10.57,4.58c3.87,0.29,8.24-2.03,8.8-5.87
															c0.25-1.73-0.21-3.71,0.88-5.06c1.31-1.62,3.81-1.18,5.88-1.01c7.19,0.59,15.39-7.53,17.06-14.55
															c1.89,2.7,5.92,3.43,8.65,1.58c2.73-1.85,3.71-2.89,5.82-5.43c2.11-2.53,5.1-4.82,8.37-4.44
															c1.83,0.22,3.56,1.26,5.4,1.06c3.24-0.36,4.73-4.2,5.14-7.42c0.42-3.23,0.71-6.99,3.41-8.8
															c2.51-1.68,5.82-0.82,8.82-0.45c2.99,0.37,6.83-0.42,7.53-3.36c0.37-1.54-0.33-3.13-1.21-4.45
															c-3.98-5.96-12.43-8.45-19.01-5.61c-2.6-8.1-10.38-14.27-18.86-14.96c-8.48-0.7-17.16,4.12-21.05,11.69
															c-5.33-4.61-12.95-6.42-19.78-4.69c-6.83,1.73-12.68,6.94-15.18,13.53c-6.04-1.44-12.83,1.04-16.52,6.04
															s-4.06,12.21-0.91,17.57c-4.38,2.64-8.07,7.13-8.05,12.25c0.03,5.11,5.12,10.08,10.02,8.63
															c-1.9,4.02-0.15,9.38,3.75,11.52c3.91,2.13,9.36,0.7,11.72-3.07"/>
													</g>
												</g>
											</g>
										</g>
									</g>
								</g>
							</g>
						</g>
						<g>
							<g>
								<g>
									<g>
										<g>
											<g>
												<g>
													<g>
														<g>
															<path class="st8" d="M695.52,131.21c0.02,0,0.02,0.15,0.01,0.45c-0.03,0.3-0.03,0.75-0.13,1.32
																c-0.2,1.14-0.62,2.84-1.68,4.8c-1.07,1.93-2.75,4.16-5.34,5.96c-2.54,1.82-6.04,3.24-10.04,3.12l0.41-0.56
																c0.82,2.09,0.67,4.63-0.34,6.83c-0.94,2.23-2.47,4.22-4.08,6.17c-0.83,0.94-1.54,2.03-2.7,2.9
																c-1.12,0.83-2.48,1.33-3.88,1.54c-2.77,0.42-5.94-0.37-8.01-2.66l0.92-0.28c-0.51,4.92-3.19,9.9-7.55,12.99
																c-2.31,1.75-5.19,2.85-8.04,2.84c-2.86,0.04-5.53-0.74-8.03-1.57l0.65-0.31c-1.25,3.1-3.23,5.76-5.66,7.75
																c-2.38,1.99-5.6,3.19-8.54,2.54c-5.85-1.1-9.83-5.85-10.72-10.4l0.57,0.25c-2.85,1.64-5.95,1.87-8.45,1.44
																c-2.53-0.4-4.54-1.45-5.98-2.5c-1.44-1.07-2.31-2.18-2.83-2.95c-0.48-0.8-0.68-1.25-0.66-1.26
																c0.12-0.1,0.86,1.86,3.72,3.88c1.43,0.96,3.39,1.92,5.83,2.25c2.41,0.35,5.34,0.07,7.97-1.5l0.46-0.27l0.11,0.52
																c0.88,4.24,4.71,8.67,10.14,9.63c2.67,0.56,5.49-0.52,7.75-2.4c2.27-1.88,4.16-4.44,5.32-7.36l0.18-0.46l0.47,0.15
																c2.46,0.81,5.04,1.54,7.68,1.49c2.64-0.01,5.23-0.99,7.43-2.65c4.12-2.93,6.63-7.58,7.14-12.24l0.13-1.17l0.79,0.89
																c1.75,1.96,4.58,2.72,7.07,2.35c1.25-0.18,2.46-0.62,3.44-1.34c0.96-0.69,1.7-1.77,2.54-2.72
																c1.61-1.91,3.1-3.83,3.99-5.9c0.95-2.05,1.09-4.28,0.39-6.18l-0.22-0.58l0.62,0.03c3.77,0.17,7.15-1.13,9.63-2.84
																c2.53-1.69,4.21-3.81,5.31-5.65C695.47,133.77,695.34,131.16,695.52,131.21z"/>
														</g>
													</g>
												</g>
											</g>
										</g>
									</g>
								</g>
							</g>
						</g>
					</g>
				</g>
			</g>
		</g>
		<path class="st6" d="M517.98,349.97c0,0-92.78,32.68-119.62,46.18c-20.97,10.55-34.25,48.8-1.99,64.75
			c24.06,11.89,154.3-10.83,154.3-10.83L517.98,349.97z"/>
		<g>
			<g>
				<g>
					<g>
						<path class="st2" d="M801.22,674.82l-235.74-8.92l-8.54,80.25l-9.44,160.97l120.33,0.51c0.05-0.68,15.01-90.48,15.01-90.48
							l6.8-1.78l-0.63,92.26H801.8c5.92-76.35,9.31-140.48,9.51-146.51C812.95,713.41,801.22,674.82,801.22,674.82z"/>
						<g>
							<g>
								<g>
									<g>
										<g>
											<g>
												<g>
													<g>
														<g>
															<g>
																<path class="st8" d="M674.36,767.12c-0.04,0.11,1.22,0.78,3.58,1.82c2.37,1,5.86,2.52,10.53,3.19
																	c2.33,0.32,4.97,0.34,7.72-0.27c2.73-0.6,5.62-1.9,7.91-4.22c2.29-2.32,3.69-5.5,4.53-8.77
																	c0.85-3.3,1.27-6.71,1.82-10.18c2.09-13.92,3.36-26.6,4.03-35.79c0.34-4.6,0.53-8.32,0.61-10.9
																	c0.08-2.58,0.06-4.01-0.07-4.01c-0.12-0.01-0.33,1.4-0.62,3.96c-0.32,2.93-0.71,6.55-1.17,10.83
																	c-0.99,9.15-2.45,21.77-4.54,35.64c-1.06,6.86-1.69,13.83-5.77,18.07c-4.08,4.16-9.97,4.83-14.31,4.38
																	c-4.49-0.48-8-1.79-10.43-2.59C675.76,767.46,674.41,767.01,674.36,767.12z"/>
															</g>
														</g>
													</g>
												</g>
											</g>
										</g>
									</g>
								</g>
							</g>
						</g>
						<g>
							<g>
								<g>
									<g>
										<g>
											<g>
												<g>
													<g>
														<g>
															<g>
																<path class="st8" d="M696.83,701.18c0.02-0.08-0.56-0.41-1.74-0.44c-1.17-0.04-2.93,0.39-4.63,1.71
																	c-1.62,1.3-3.31,3.6-3.26,6.62c-0.01,3.07,2.51,5.98,5.67,6.97c3.14,1.08,6.89,0.22,8.7-2.26
																	c1.84-2.41,1.83-5.26,1.29-7.27c-0.59-2.06-1.75-3.45-2.72-4.11c-0.97-0.68-1.64-0.76-1.67-0.68
																	c-0.22,0.24,2.42,1.31,3.16,5.08c0.33,1.78,0.14,4.17-1.34,5.95c-1.42,1.82-4.27,2.46-6.87,1.6
																	c-2.6-0.85-4.52-3.05-4.59-5.36c-0.14-2.31,1.12-4.35,2.44-5.59C694.11,700.81,696.87,701.51,696.83,701.18z"/>
															</g>
														</g>
													</g>
												</g>
											</g>
										</g>
									</g>
								</g>
							</g>
						</g>
						<g>
							<g>
								<g>
									<g>
										<g>
											<g>
												<g>
													<g>
														<g>
															<g>
																<path class="st8" d="M565.48,741.32c0,0.12,1.02,0.23,2.87,0.32c1.85,0.12,4.55,0.06,7.87-0.24
																	c6.62-0.58,15.75-2.58,24.99-6.92c9.23-4.38,16.57-10.15,21.23-14.9c2.34-2.37,4.1-4.41,5.19-5.92
																	c1.11-1.49,1.67-2.35,1.57-2.42c-0.25-0.2-2.81,3-7.63,7.43c-4.8,4.44-12.09,9.92-21.12,14.2
																	c-9.04,4.24-17.9,6.39-24.38,7.28C569.58,741.06,565.48,741,565.48,741.32z"/>
															</g>
														</g>
													</g>
												</g>
											</g>
										</g>
									</g>
								</g>
							</g>
						</g>
					</g>
				</g>
			</g>
		</g>
		<g>
			<g>
				<path class="st8" d="M805.97,661.73c-4.62-10.53-3.77-11.5-3.77-11.5l-13.11-114.69L776.5,423.96l-10.21-82.59l-58.97-12.63
					c0,0-6.79,18.81-35.3,19.38c-32.84,0.66-51.66-28.71-51.66-28.71l-94.3,20.25l35.46,243.21l4.25,65.51c0,0-7.04,10.6-7.04,21.97
					s-0.46,18.95-0.46,18.95c87.52,24.04,174.38,44.87,254.3,21.59C812.58,710.91,810.59,672.26,805.97,661.73z"/>
				<g>
					<path class="st8" d="M744.78,337.08c0,0,33.99,3.8,46.05,16.6c12.06,12.8,50.61,76.14,50.61,76.14l-55.99,76.6l-25.94-35.4
						L744.78,337.08z"/>
				</g>
				<g>
					<g>
						<g>
							<path class="st2" d="M770.7,376.72c0.47-0.05,5.83,42.06,11.96,94.02c6.14,51.99,10.73,94.15,10.26,94.2
								s-5.82-42.05-11.96-94.03C774.82,418.94,770.23,376.76,770.7,376.72z"/>
						</g>
					</g>
				</g>
			</g>
		</g>
		<polygon class="st8" points="526.08,339.67 450.57,373.18 477.89,449.61 550.67,461.14 		"/>
		<g>
			<path class="st2" d="M536.47,390.33c0.5-0.05,4.1,29.76,8.04,66.59c3.94,36.84,6.73,66.74,6.22,66.79
				c-0.5,0.05-4.1-29.76-8.04-66.6C538.75,420.29,535.96,390.39,536.47,390.33z"/>
		</g>
		<g class="st9">
			<path d="M555.08,777.85c40.99-14.74,63.71-43.78,82.04-74.58c18.33-30.8,20.95-74.18,9.22-108.04c0,0-84.72,81.95-85.32,83.76
				C560.42,680.79,555.08,777.85,555.08,777.85z"/>
		</g>
		<g class="st9">
			<path d="M670.39,347.08c-1.01,8.32,3.63,16.34,9.34,22.49c5.7,6.14,12.61,11.15,17.81,17.73c5.93,7.51,9.33,16.66,12.63,25.64
				c6.9,18.75,13.8,37.5,20.69,56.26c5.94,16.15,11.96,32.46,21.38,46.86c9.42,14.4,22.68,26.93,39.07,32.2L778.87,442.6
				l-65.61-105.52L670.39,347.08z"/>
		</g>
		<g>
			<g>
				<path class="st6" d="M738.38,348c0-1.33,1.05-50.26-2.23-55.58c-3.28-5.31-5.91-10.3-6.56-15.28c0,0,1.79-2.91-1.47-4.73
					c-3.26-1.82-8.43,2.62-8.55,10.47c-0.11,7.85,0.79,21.29,0.79,21.29s-36.1-20.49-46-21.06s-24.74-2.39-25.53,2.39
					c-0.79,4.78-0.11,5.92,5.06,7.74c5.17,1.82,13.38,3.07,21.48,5.81c8.1,2.73,11.81,4.59,11.81,4.59s-18.44-5.43-22.49,0
					s-3.49,10.32-0.9,12.94c0,0-5.51,2.28-4.95,8.31s3.26,7.51,3.26,7.51s-5.4,4.1-2.81,9.33c2.59,5.24,8.66,1.94,14.39,7.85
					c5.74,5.92,20.02,19.81,25.53,22.88s18.11,4.33,18.11,4.33L738.38,348z"/>
				<g>
					<path class="st7" d="M738.38,348c0.01,0-0.1,0.17-0.32,0.5c-0.25,0.35-0.58,0.83-1.02,1.45c-0.94,1.31-2.29,3.2-4.05,5.65
						c-3.6,4.97-8.83,12.2-15.46,21.35l-0.09,0.12l-0.15-0.02c-2.49-0.26-5.09-0.63-7.79-1.14c-2.69-0.51-5.5-1.14-8.31-2.2
						c-1.41-0.51-2.78-1.29-4.03-2.2c-1.27-0.89-2.49-1.88-3.73-2.88c-2.46-2.04-4.91-4.23-7.4-6.52c-2.49-2.3-5.02-4.7-7.58-7.21
						c-1.27-1.26-2.56-2.54-3.86-3.84c-1.29-1.34-2.55-2.62-4.16-3.5c-1.58-0.92-3.4-1.37-5.27-1.78c-1.82-0.42-4.02-0.85-5.39-2.57
						c-1.34-1.6-1.92-3.86-1.41-5.95c0.53-2.08,1.83-3.83,3.48-5.2l0.05,0.71c-1.43-0.99-2.12-2.43-2.68-3.92
						c-0.5-1.51-0.79-3.06-0.84-4.7c-0.06-1.65,0.43-3.34,1.38-4.75c0.97-1.39,2.27-2.5,3.86-3.25l-0.15,0.72
						c-2.31-2.31-2.66-5.99-1.59-8.94c0.5-1.51,1.26-2.91,2.18-4.2c0.42-0.66,1.09-1.34,1.83-1.71c0.73-0.41,1.52-0.67,2.31-0.86
						c3.19-0.67,6.42-0.39,9.6,0.01c3.19,0.45,6.35,1.12,9.51,2.01l-0.34,0.86c-4.74-2.18-9.87-4.02-15.09-5.6
						c-5.25-1.57-10.73-2.59-16.19-4.14c-1.96-0.62-3.91-1.18-5.73-2.35c-0.91-0.59-1.66-1.64-1.8-2.76
						c-0.17-1.1-0.03-2.13,0.1-3.13c0.08-0.46,0.12-1.08,0.46-1.61c0.32-0.51,0.77-0.89,1.24-1.18c0.95-0.55,1.96-0.82,2.96-1.01
						c2.01-0.37,4.01-0.44,5.99-0.45c3.96,0,7.86,0.31,11.7,0.57c1.93,0.16,3.81,0.18,5.79,0.56c0.95,0.21,1.87,0.5,2.8,0.75
						l2.7,0.94c7.1,2.7,13.75,5.97,20.17,9.22c6.41,3.28,12.58,6.6,18.48,9.93l-0.63,0.4c-0.44-7.75-0.9-15.17-0.7-22.35
						c0.27-3.58,1.63-7.26,4.62-9.34c0.75-0.48,1.63-0.82,2.55-0.86c0.92-0.05,1.86,0.33,2.54,0.86c0.71,0.52,1.3,1.32,1.45,2.23
						c0.15,0.92-0.06,1.79-0.49,2.58l0.05-0.23c0.78,5.47,3.51,10.18,6.06,14.46c0.31,0.51,0.69,1.11,0.86,1.74
						c0.21,0.61,0.32,1.23,0.45,1.83c0.22,1.22,0.38,2.42,0.5,3.6c0.25,2.37,0.39,4.67,0.51,6.89c0.43,8.89,0.42,16.57,0.42,22.85
						c-0.02,6.28-0.11,11.16-0.18,14.47c-0.05,1.63-0.08,2.89-0.11,3.77C738.42,347.56,738.38,348,738.38,348s-0.03-0.43-0.03-1.29
						c0-0.89,0-2.14,0-3.77c0-3.35-0.01-8.22-0.01-14.47c-0.06-6.27-0.11-13.95-0.59-22.82c-0.13-2.22-0.29-4.51-0.55-6.86
						c-0.13-1.17-0.29-2.36-0.51-3.55c-0.25-1.22-0.49-2.31-1.24-3.35c-2.58-4.29-5.38-9.03-6.21-14.7l-0.02-0.11l0.07-0.12
						c0.33-0.61,0.52-1.39,0.39-2.08c-0.12-0.7-0.57-1.32-1.18-1.77c-1.21-1.01-2.91-0.85-4.23,0.04c-2.67,1.85-4.01,5.34-4.24,8.76
						c-0.17,7.05,0.3,14.53,0.76,22.24l0.05,0.78l-0.68-0.38c-5.9-3.31-12.07-6.61-18.47-9.87c-6.41-3.24-13.06-6.49-20.09-9.15
						l-2.66-0.92c-0.9-0.24-1.81-0.52-2.72-0.72c-1.78-0.35-3.75-0.39-5.67-0.54c-3.85-0.26-7.73-0.56-11.64-0.56
						c-1.95,0.01-3.91,0.08-5.81,0.43c-1.82,0.37-3.95,1.02-3.9,3.01c-0.13,0.97-0.25,1.95-0.1,2.85c0.13,0.9,0.63,1.61,1.41,2.14
						c1.58,1.02,3.56,1.63,5.46,2.22c5.38,1.52,10.9,2.56,16.19,4.14c5.29,1.62,10.37,3.44,15.24,5.67l-0.34,0.86
						c-3.09-0.87-6.24-1.54-9.37-1.98c-3.12-0.41-6.31-0.66-9.27-0.04c-1.46,0.35-2.84,0.95-3.6,2.21c-0.88,1.23-1.6,2.56-2.07,3.96
						c-0.99,2.76-0.64,6.02,1.37,8.04l0.45,0.45l-0.59,0.28c-1.36,0.63-2.62,1.68-3.47,2.92c-0.85,1.26-1.29,2.75-1.24,4.24
						c0.04,1.5,0.32,3.04,0.78,4.42c0.47,1.36,1.24,2.74,2.27,3.45l0.5,0.34l-0.44,0.37c-1.48,1.22-2.72,2.89-3.18,4.72
						c-0.46,1.81,0.06,3.83,1.23,5.23c1.14,1.47,3.09,1.89,4.93,2.31c1.87,0.42,3.8,0.9,5.48,1.88c1.7,0.94,3.08,2.35,4.32,3.65
						c1.3,1.3,2.58,2.58,3.84,3.84c2.55,2.51,5.06,4.92,7.53,7.22c2.48,2.3,4.92,4.5,7.35,6.53c2.46,1.98,4.81,4.02,7.56,5.01
						c2.73,1.05,5.52,1.69,8.19,2.21s5.26,0.9,7.73,1.18l-0.24,0.11c6.7-9.07,11.99-16.23,15.62-21.15c1.81-2.42,3.2-4.29,4.17-5.59
						c0.46-0.61,0.82-1.08,1.09-1.43C738.24,348.15,738.38,348,738.38,348z"/>
				</g>
			</g>
			<path class="st6" d="M855.37,462.24c-3.61-6.89-11.75-21.24-15.68-30.03l-25.81,9.38c0,0-73.1-98.74-75.43-98.74
				s-34.08,29.44-34.08,29.44c1.4,1.4,67.22,152.24,92.43,168.58s44,26.72,57.54,3.37C867.88,520.89,871.25,492.58,855.37,462.24z"
				/>
			<g>
				<path class="st7" d="M846.94,485.91c-0.06,0.03-0.49-0.65-1.21-1.91c-0.72-1.26-1.78-3.08-3.13-5.29
					c-2.69-4.44-6.66-10.41-11.49-16.69s-9.51-11.72-12.92-15.64c-1.6-1.85-2.96-3.4-4.04-4.65c-0.95-1.1-1.45-1.74-1.4-1.78
					s0.64,0.5,1.67,1.53c1.03,1.03,2.49,2.55,4.26,4.45c3.54,3.82,8.32,9.2,13.17,15.51s8.76,12.38,11.31,16.92
					c1.28,2.27,2.26,4.14,2.88,5.46C846.68,485.14,847,485.88,846.94,485.91z"/>
			</g>
		</g>
		<g>
			<path class="st2" d="M698.24,266.02c-0.66,0.48-3.38-2.32-7.7-3.83c-4.28-1.62-8.17-1.22-8.36-2.01
				c-0.08-0.36,0.85-0.98,2.57-1.31c1.71-0.34,4.22-0.26,6.76,0.66c2.53,0.93,4.5,2.48,5.6,3.83
				C698.23,264.72,698.54,265.8,698.24,266.02z"/>
		</g>
		<g>
			<path class="st2" d="M764.23,661.06c0.01,0.03-0.3,0.21-0.9,0.53c-0.62,0.3-1.49,0.82-2.7,1.31c-2.4,1.02-6.02,2.22-10.66,2.87
				c-4.63,0.65-10.25,0.72-16.37-0.08c-6.13-0.78-12.75-2.32-19.56-4.37c-13.59-4.15-25.62-8.71-34.22-12.23
				c-4.3-1.76-7.75-3.27-10.12-4.34c-1.1-0.51-2-0.93-2.71-1.27c-0.62-0.3-0.93-0.47-0.92-0.5s0.36,0.08,1,0.33
				c0.73,0.29,1.65,0.66,2.78,1.1c2.53,1.01,6,2.38,10.22,4.06c8.66,3.36,20.7,7.8,34.25,11.94c6.77,2.04,13.34,3.59,19.4,4.41
				c6.06,0.84,11.6,0.83,16.18,0.28c4.58-0.56,8.19-1.64,10.61-2.55C762.89,661.6,764.19,660.98,764.23,661.06z"/>
		</g>
	</g>
	<g>
		<g>
			<g>
				<path class="st4" d="M585.69,472.8c-32.95-22.2-72.15-30.12-97.84-30.14c-24.06-0.02-59.47,3.75-91.53,21.81
					c-19.91,11.21-35.8,26.54-47.23,45.56c-13.54,22.52-20.88,50.4-21.81,82.86c-0.14,4.87,1.66,9.48,5.06,12.98
					c3.42,3.52,8,5.46,12.91,5.46l63.09,0.04c8.9,0.01,16.56-6.63,17.81-15.44c2.81-19.78,14.57-53.08,61.79-53.87
					c35.98-0.58,50.79,25.45,55.49,36.68c7.66,18.27,5.7,39.93-5.24,57.94c-16.81,27.67-47.69,31.88-64.6,31.93
					c-19.45,0.06-35.29,15.84-35.3,35.18l-0.05,67.89c-0.01,9.91,8.05,17.98,17.97,17.99l61.47,0.04
					c9.91,0.01,17.98-8.05,17.99-17.97l0.01-14.26c0-0.34,0.21-0.64,0.54-0.75c13.93-4.88,40.92-16.66,65.25-40.82
					c31.05-30.83,46.82-70.65,46.85-118.33C648.35,529.34,614.28,492.06,585.69,472.8z"/>
				<path class="st4" d="M489.97,806.78h-5.38c-25.71-0.02-46.63,20.88-46.65,46.59s20.88,46.63,46.59,46.65h5.38
					c25.71,0.02,46.63-20.88,46.65-46.59C536.58,827.73,515.68,806.8,489.97,806.78z"/>
			</g>
		</g>
		<g class="st9">
			<path d="M645.93,553.98c-0.82-6.95-2.64-13.6-5.2-19.99c-12.31-30.71-41.19-51.63-74.05-55.37l-158.61-18.04
				c17.25,17.63,39.77,21.14,63.64,27.33c23.87,6.19,49.57,15.47,73.7,20.6c7.74,1.65,15.74,3.7,21.76,8.84
				c5.87,5.01,9.15,12.34,12.25,19.41c4.59,10.48,9.17,20.97,13.76,31.45c5.24,11.97,12.2,25.49,26.3,26.26
				c5.69,0.31,11.27-1.82,15.59-5.53C645.27,580.18,647.42,566.55,645.93,553.98z"/>
		</g>
		<g>
			<path class="st6" d="M643.67,511.5c-1.23-2.16-25.33-31.63-37.32-43.06c-7.74-7.38-19.4-12.47-26.71-15.16
				c0,0-120.69-43.59-129.07-47.84l-54.2,55.46c18.87,5.25,146.99,36.1,178.6,43.03c5.53,6.45,11.09,11.74,11.09,11.74l9.19,21.58
				c0,0,1.06,7.86,0.4,16.28c-0.66,8.43,6.17,5.14,6.17,5.14s-0.32,5.24,0.12,12.78c0,0.08,0.01,0.15,0.02,0.22
				c0.45,5.64,8.56,6.34,10.28,0.95l6.23-19.46c0,0-0.81,17.71-1.15,27.56c-0.06,1.79,0.25,3.26,0.8,4.47
				c2.38,5.23,10.16,4.25,11.49-1.34l7.29-30.79l-2.36-18.85l6.12,17.23c0,0,1.69,9.21,1.35,22.14c-0.14,5.17,1.61,7.38,3.75,8.16
				c3.59,1.3,7.38-1.55,7.69-5.36l2.33-28.53C655.78,547.87,644.9,513.65,643.67,511.5z"/>
			<g>
				<path class="st7" d="M442.79,403.28c0.05-0.22,3.48,0.32,8.88,1.82c5.4,1.48,12.72,4,20.64,7.14
					c7.92,3.15,14.99,6.18,20.12,8.36c5.12,2.19,8.29,3.56,8.2,3.81c-0.08,0.23-3.41-0.72-8.67-2.6
					c-5.26-1.87-12.43-4.72-20.32-7.86c-7.89-3.13-15.08-5.82-20.35-7.61C446.03,404.54,442.72,403.55,442.79,403.28z"/>
			</g>
		</g>
	</g>
</g>
</svg>
