<?xml version="1.0" encoding="utf-8"?>
<!-- Generator: Adobe Illustrator 28.0.0, SVG Export Plug-In . SVG Version: 6.00 Build 0)  -->
<svg version="1.1" id="Layer_1" xmlns="http://www.w3.org/2000/svg" xmlns:xlink="http://www.w3.org/1999/xlink" x="0px" y="0px"
	 viewBox="0 0 2500 2500" style="enable-background:new 0 0 2500 2500;" xml:space="preserve">
<style type="text/css">
	.st0{fill:#ECECEC;}
	.st1{fill:#1A2E35;}
	.st2{fill:#375A64;}
	.st3{fill:#363E44;}
	.st4{fill:#01B8FC;}
	.st5{fill:#F2E6DC;}
	.st6{fill:#84524D;}
	.st7{fill:#FFFFFF;}
	.st8{fill:#FFD092;}
	.st9{fill:#E0AA63;}
	.st10{fill:#F7F1EB;}
	.st11{fill:#00A5D8;}
	.st12{fill:#7BE0FF;}
</style>
<g id="Illustration">
	<g id="Business_trend_1_">
		<path class="st0" d="M2165,1250c0,505.34-409.66,915-915,915c-64.58,0-127.59-6.68-188.4-19.42
			c-120.29-25.18-231.92-73.97-329.77-141.37c-17.77-12.19-35.1-25.05-51.95-38.52c-100.91-80.45-184.43-181.85-243.96-297.58
			C371.4,1542.78,335,1400.63,335,1250c0-505.34,409.66-915,915-915S2165,744.66,2165,1250z"/>
		<g>
			<path class="st1" d="M731.82,2004.2l21.76-378.69l-73.71,340.17c-100.91-80.45-184.43-181.85-243.96-297.58l53-353.37
				l554.62,91.99l18.06,738.86C941.3,2120.4,829.67,2071.6,731.82,2004.2z"/>
			<g>
				<path class="st2" d="M341.49,965.64c3.51-1.32,24.46-325.3,491.4-342.66c466.95-17.36,502.03,191.56,502.03,191.56l-6.07,88.24
					l-259.63,41.02l17.96,538.59L470.61,1322.6l74.06-267L341.49,965.64z"/>
				<path class="st2" d="M1357.05,638.33L1357.05,638.33c18.42,49.1-5.49,81.87-51.86,101.37l0,0
					c-46.37,19.51-97.65,18.37-116.07-30.73l50.32,134.12c18.42,49.1,70.95,73.09,117.33,53.58l0,0
					c46.37-19.51,69.03-75.13,50.61-124.23L1357.05,638.33z"/>
				<path class="st2" d="M341.49,965.64c0,0-56.42,216.45,233.69,216.45l149.62-148.53L500.9,929.08L341.49,965.64z"/>
				<path class="st3" d="M614.01,984.98c-0.15,0-0.3-0.03-0.44-0.1l-85.05-41.81c-0.5-0.24-0.7-0.84-0.46-1.34s0.84-0.7,1.34-0.46
					l85.05,41.81c0.5,0.24,0.7,0.84,0.46,1.34C614.74,984.78,614.38,984.98,614.01,984.98z"/>
				<path class="st3" d="M1071.1,930.09c-0.09,0-0.17-0.01-0.26-0.04c-0.53-0.14-0.85-0.69-0.7-1.23l16.08-59.34
					c0.14-0.53,0.69-0.85,1.23-0.7c0.53,0.14,0.85,0.69,0.7,1.23l-16.08,59.33C1071.95,929.79,1071.54,930.09,1071.1,930.09z"/>
				<path class="st3" d="M1252.98,865.93c-0.43,0-0.83-0.28-0.96-0.71l-31.55-105.93c-0.16-0.53,0.14-1.09,0.67-1.24
					c0.53-0.16,1.09,0.14,1.24,0.67l31.55,105.93c0.16,0.53-0.14,1.09-0.67,1.24C1253.17,865.92,1253.07,865.93,1252.98,865.93z"/>
				<path class="st4" d="M907.07,571.31c-56.96-4.7-144.54-3.92-247.84,24.01c-37.16,10.05-66.32,40.54-76.51,79.69
					c0,0,139.53-12.35,195.53,32.71c26.2,21.08,59.29,30.1,91.58,23.41l2.45-0.51c36.45-7.55,67.53-32.3,82.85-67.56
					c9.3-21.39,27.68-36.63,63.93-33.62C1002.04,592.46,949.28,574.79,907.07,571.31z"/>
				<path class="st5" d="M807.44,848.7c-0.15,0-0.31-0.04-0.46-0.11c-0.49-0.25-0.68-0.86-0.43-1.35
					c20.03-38.74,28.2-82.41,23.61-126.31l-2.55-24.44c-0.06-0.55,0.34-1.04,0.89-1.1s1.04,0.34,1.1,0.89l2.55,24.44
					c4.63,44.29-3.61,88.35-23.82,127.44C808.16,848.5,807.81,848.7,807.44,848.7z"/>
				<path class="st5" d="M897.34,843.1c-0.05,0-0.11,0-0.16-0.01c-0.54-0.09-0.91-0.61-0.82-1.15
					c7.25-43.49,1.75-87.64-15.88-127.66L870.66,692c-0.22-0.51,0.01-1.1,0.51-1.32c0.51-0.22,1.1,0.01,1.32,0.51l9.82,22.28
					c17.79,40.38,23.34,84.92,16.02,128.8C898.24,842.75,897.82,843.1,897.34,843.1z"/>
			</g>
			<g>
				<polygon class="st6" points="787.64,634.62 828,536.8 907.55,567.01 875.2,648.12 				"/>
				<g>
					<path class="st3" d="M935.82,420.76c-5.89-20.47-27.16-31.12-45.84-22.96l-76.58,33.46c-19.19,6.14-27.72,29.83-17.26,47.93
						l27.28,47.25l127.39-53.59L935.82,420.76z"/>
					<path class="st6" d="M943.81,445.61c16.54,38.69,23.72,109.03-23.46,131.64s-92.34-29.53-108.88-68.22
						c-16.54-38.69,20.93-80.58,57.47-98.09C905.49,393.42,927.27,406.92,943.81,445.61z"/>
					<path class="st6" d="M820.93,501.49c12.68,11.98,16.85,28.95,9.31,37.9s-23.94,6.5-36.62-5.48s-16.85-28.95-9.31-37.9
						C791.85,487.06,808.25,489.51,820.93,501.49z"/>
					<path class="st3" d="M811.41,532.84c-0.05,0-0.1,0-0.15-0.01c-3.92-0.59-7.98-2.7-11.43-5.96c-7.19-6.79-9.47-16.55-5.09-21.76
						c0.45-0.53,0.96-1.01,1.53-1.43c0.45-0.32,1.07-0.23,1.4,0.22s0.23,1.07-0.22,1.4c-0.44,0.32-0.83,0.69-1.18,1.1
						c-3.72,4.41-1.5,12.94,4.93,19.02c3.15,2.98,6.83,4.91,10.35,5.43c0.55,0.08,0.92,0.59,0.84,1.14
						C812.33,532.48,811.9,532.84,811.41,532.84z"/>
					<path class="st3" d="M837.12,550.57c-0.28,0-0.56-0.12-0.75-0.34c-9.32-10.68-17.76-23.54-23.75-36.22
						c-0.24-0.5-0.02-1.1,0.48-1.33c0.5-0.24,1.1-0.02,1.33,0.48c5.91,12.52,14.24,25.21,23.45,35.76c0.36,0.42,0.32,1.05-0.1,1.41
						C837.59,550.49,837.35,550.57,837.12,550.57z"/>
					<g>
						<path class="st7" d="M963.23,430.06c0,0-0.72,6.78-3.96,14.8c-2.15,5.33-11.49,4.95-16.38,9.74
							c-6.11,5.99-7.53,15.43-13.51,17.11c-6.02,1.69-10.5,1.86-10.5,1.86s0.4-3.77,1.95-9.01c1.9-6.46,9.6-7.73,16.36-14.36
							c5.7-5.59,8.56-16.17,14.32-17.93C958.13,430.26,963.23,430.06,963.23,430.06z"/>
						<path class="st3" d="M933.14,442.77c-6.77,6.64-10.4,15.35-12.3,21.82c2.24,3.11,5.17,5.57,8.51,7.15
							c5.99-1.68,13.51-4.85,19.64-10.86c4.93-4.83,8.18-10.75,10.32-16.12c-1.26-5.12-4.07-9.42-7.8-12.46
							C945.74,434.06,938.84,437.18,933.14,442.77z"/>
					</g>
					<g>
						<path class="st7" d="M842.14,488.09c0,0,6.23,4.6,15.18,7.29c4.77,1.44,10.07-5.91,15.84-6.54c7.69-0.84,14.7,4.01,19.74,0.6
							c5.85-3.95,9.38-7.91,9.38-7.91s-2.76-2.04-7.25-4.19c-5.85-2.81-13.45,5.74-22.85,6.77c-7.76,0.85-15.73-7.28-20.79-3.84
							C845.62,484.19,842.14,488.09,842.14,488.09z"/>
						<path class="st3" d="M894.88,477.27c-5.85-2.79-14.54-5.74-23.86-4.73c-7.78,0.85-14.58,4.31-19.64,7.75
							c0.1,4.86,1.63,9.72,4.7,13.83c0.31,0.41,0.64,0.79,0.97,1.17c4.83,1.49,10.46,2.44,16.35,1.8
							c7.78-0.85,14.58-4.31,19.64-7.75C894.67,485.55,895.29,481.38,894.88,477.27z"/>
					</g>
					<path class="st3" d="M901.02,583.68c-12.01,0-23.77-3.81-33.63-7.69c-0.51-0.2-0.77-0.78-0.56-1.3c0.2-0.51,0.78-0.77,1.3-0.56
						c15.94,6.28,34.6,11.62,52.18,3.5c17.64-8.14,26.52-27.13,32.29-42.76c0.19-0.52,0.77-0.78,1.29-0.59
						c0.52,0.19,0.78,0.77,0.59,1.28c-5.9,15.99-15.02,35.43-33.33,43.88C914.56,582.48,907.75,583.68,901.02,583.68z"/>
					<path class="st3" d="M925.47,509.37c-0.2,0-0.41-0.06-0.58-0.19c-0.45-0.32-0.55-0.95-0.22-1.4c2.15-2.97,2.97-5.49,2.45-7.48
						c-0.42-1.6-1.61-2.48-3.25-3.7c-1.34-0.99-2.85-2.11-4.4-3.92c-2.25-2.63-3.85-5.89-4.74-9.7c-0.13-0.54,0.21-1.08,0.75-1.2
						c0.54-0.13,1.08,0.21,1.2,0.75c0.81,3.49,2.26,6.47,4.31,8.85c1.4,1.63,2.82,2.68,4.07,3.61c1.82,1.35,3.4,2.52,4,4.79
						c0.69,2.6-0.24,5.69-2.76,9.17C926.08,509.23,925.78,509.37,925.47,509.37z"/>
					<path class="st3" d="M896.75,543.8c-2.07,0-4.16-0.48-6.06-1.44c-2.43-1.23-4.41-3.19-5.59-5.52
						c-0.25-0.49-0.05-1.09,0.44-1.34s1.09-0.05,1.34,0.44c0.98,1.95,2.65,3.6,4.7,4.64c3.4,1.72,7.55,1.62,10.56-0.25
						c0.47-0.29,1.09-0.15,1.38,0.32c0.29,0.47,0.15,1.09-0.32,1.38C901.32,543.21,899.06,543.8,896.75,543.8z"/>
					<path class="st4" d="M786.59,450.65l137.47-57.83l0,0c-15.08-40.19-58.08-59.83-96.04-43.86l0,0
						C790.06,364.92,771.51,410.45,786.59,450.65L786.59,450.65z"/>
					<path class="st4" d="M793.51,462.82c40.6-31.62,84.49-51.3,132.58-55.77c6.91-2.91,10.28-11.19,7.54-18.5l0,0
						c-2.74-7.31-10.57-10.89-17.47-7.98l-132.58,55.77c-6.91,2.91-10.28,11.19-7.54,18.5l0,0
						C778.78,462.16,786.61,465.73,793.51,462.82z"/>
					<path class="st8" d="M789.55,434.24c-0.32,0-0.64-0.16-0.83-0.44c-0.31-0.46-0.18-1.08,0.28-1.39
						c0.37-0.25,37.43-24.95,55.36-31.75c0.52-0.2,1.09,0.06,1.29,0.58c0.2,0.52-0.06,1.09-0.58,1.29
						c-17.72,6.71-54.59,31.29-54.96,31.54C789.93,434.19,789.74,434.24,789.55,434.24z"/>
				</g>
				<ellipse class="st6" cx="832.89" cy="641.43" rx="62.92" ry="18.45"/>
			</g>
			<g>
				<path class="st6" d="M1338.93,493.06c4.72,47.17-29.94,103.23-68.11,103.23s-75.01-60.3-75.01-100.71s31.53-66.16,69.12-73.18
					C1317.98,412.47,1334.92,452.95,1338.93,493.06z"/>
				<path class="st6" d="M1314.98,760.68L1314.98,760.68c42.14-17.73,62.73-68.27,45.99-112.88l0,0l-83.47-178.41l-127.36,53.58
					l58.24,189.02C1225.11,756.61,1272.84,778.4,1314.98,760.68z"/>
				<g>
					<g>
						<path class="st9" d="M1166.28,412.47c-5.31,0-15.22,2.35-15.22,2.35s-59.49,18.75-60.73,19.14l0,0
							c-15.14,4.45-26.44,21.74-26.44,42.42c0,20.71,11.34,38.03,26.52,42.44l0,0l60.65,18.46c4.8,1.95,9.91,3,15.22,3
							c27.67,0,50.1-28.61,50.1-63.91C1216.37,441.08,1193.94,412.47,1166.28,412.47z"/>
						<path class="st4" d="M1240.44,381.79c-7.85,0-22.52,3.48-22.52,3.48s-88.05,27.75-89.89,28.33l0,0
							c-22.41,6.59-39.13,32.18-39.13,62.78c0,30.65,16.78,56.28,39.25,62.81v0.01l89.77,27.32c7.1,2.89,14.67,4.45,22.52,4.45
							c40.95,0,74.14-42.35,74.14-94.58C1314.59,424.14,1281.39,381.79,1240.44,381.79z"/>
						<path class="st10" d="M1240.44,571.96c-41.43,0-75.14-42.88-75.14-95.58c0-52.71,33.71-95.58,75.14-95.58
							s75.14,42.88,75.14,95.58C1315.59,529.08,1281.88,571.96,1240.44,571.96z M1240.44,382.79c-40.33,0-73.14,41.98-73.14,93.58
							s32.81,93.58,73.14,93.58s73.14-41.98,73.14-93.58C1313.59,424.77,1280.77,382.79,1240.44,382.79z"/>
						<ellipse class="st3" cx="1240.44" cy="476.38" rx="60.6" ry="77.31"/>
					</g>
					<g>
						<path class="st11" d="M984.3,412.47c-5.31,0-15.22,2.35-15.22,2.35s-59.49,18.75-60.73,19.14l0,0
							c-15.14,4.45-26.44,21.74-26.44,42.42c0,20.71,11.34,38.03,26.52,42.44l0,0l60.65,18.46c4.8,1.95,9.91,3,15.22,3
							c27.67,0,50.1-28.61,50.1-63.91C1034.4,441.08,1011.97,412.47,984.3,412.47z"/>
						<path class="st4" d="M1058.47,381.79c-7.85,0-22.52,3.48-22.52,3.48s-88.05,27.75-89.89,28.33l0,0
							c-22.41,6.59-39.13,32.18-39.13,62.78c0,30.65,16.78,56.28,39.25,62.81v0.01l89.77,27.32c7.1,2.89,14.67,4.45,22.52,4.45
							c40.95,0,74.14-42.35,74.14-94.58C1132.61,424.14,1099.41,381.79,1058.47,381.79z"/>
						<path class="st10" d="M1058.47,571.96c-41.43,0-75.14-42.88-75.14-95.58c0-52.71,33.71-95.58,75.14-95.58
							c41.43,0,75.14,42.88,75.14,95.58S1099.9,571.96,1058.47,571.96z M1058.47,382.79c-40.33,0-73.14,41.98-73.14,93.58
							s32.81,93.58,73.14,93.58c40.33,0,73.14-41.98,73.14-93.58S1098.8,382.79,1058.47,382.79z"/>
						<ellipse class="st3" cx="1058.47" cy="476.38" rx="60.6" ry="77.31"/>
					</g>
					<path class="st10" d="M1167.12,489.77c-12.14-9.54-23.34-8.85-33.8,0v-13.79h33.8V489.77z"/>
				</g>
				<path class="st6" d="M1193.1,558.96c0,0-25.98-7.91-42.97-35.99c-14.76-24.4-37.35,19.23,0.09,47.99
					C1187.66,599.73,1193.1,558.96,1193.1,558.96z"/>
				<path class="st3" d="M1243.87,580.57c-0.45,0-0.7-0.01-0.73-0.01c-0.55-0.02-0.98-0.49-0.96-1.04s0.43-0.98,1.04-0.96
					c0.37,0.01,38.34,1.16,55.21-29.72c0.26-0.49,0.87-0.66,1.36-0.4c0.48,0.27,0.66,0.87,0.4,1.36
					C1284.03,579.37,1249.34,580.57,1243.87,580.57z"/>
			</g>
			<g>
				<g>
					<g>
						<path class="st10" d="M955.22,1512.61l0.19,147.68c0.11,81.56,67.21,147.59,149.88,147.48l0,0
							c82.67-0.11,149.6-66.31,149.49-147.87l-0.19-147.68L955.22,1512.61z"/>
						<path class="st3" d="M1105.1,1808.77c-40.21,0-78.02-15.42-106.49-43.43c-28.5-28.04-44.22-65.35-44.27-105.05l-0.19-147.68
							c0-0.55,0.48-1,1.07-1l299.38-0.38l0,0c0.28,0,0.56,0.1,0.76,0.29c0.2,0.19,0.32,0.44,0.32,0.71l0.19,147.68
							c0.11,81.98-67.44,148.76-150.57,148.87C1105.23,1808.77,1105.16,1808.77,1105.1,1808.77z M956.29,1513.6l0.19,146.68
							c0.05,39.19,15.57,76.01,43.69,103.68c28.06,27.61,65.31,42.81,104.93,42.81c0.07,0,0.13,0,0.2,0
							c81.95-0.1,148.53-65.99,148.42-146.87l-0.19-146.68L956.29,1513.6z"/>
					</g>
					<path class="st3" d="M1103.82,1711.67c-37.89,0-73.47-2.06-100.32-5.81c-19.6-2.74-42.96-7.6-42.97-15.24c0-0.55,0.48-1,1.07-1
						l0,0c0.59,0,1.07,0.45,1.07,1c0,1.76,2.98,7.93,41.15,13.26c26.75,3.73,62.22,5.78,100,5.79c0.45,0,0.89,0,1.34,0
						c85.22-0.11,142.45-10.13,142.44-19.41c0-0.55,0.48-1,1.07-1l0,0c0.59,0,1.07,0.45,1.07,1c0.02,13.29-73.5,21.32-144.58,21.42
						C1104.72,1711.66,1104.27,1711.67,1103.82,1711.67z"/>
					<path class="st3" d="M1103.75,1646.93c-37.9,0-73.48-2.06-100.34-5.81c-19.6-2.74-42.96-7.6-42.97-15.24c0-0.55,0.48-1,1.07-1
						l0,0c0.59,0,1.07,0.45,1.07,1c0,1.76,2.98,7.93,41.15,13.26c27.06,3.78,63.02,5.81,101.34,5.78
						c85.22-0.11,142.45-10.13,142.44-19.41c0-0.55,0.48-1,1.07-1l0,0c0.59,0,1.07,0.45,1.07,1c0.02,13.29-73.5,21.32-144.58,21.42
						C1104.64,1646.93,1104.19,1646.93,1103.75,1646.93z"/>
				</g>
				<g>
					<ellipse class="st7" cx="1104.49" cy="1198.86" rx="387.55" ry="382.34"/>
					<path class="st4" d="M1104.47,1582.19c-52.29,0-103.02-10.07-150.81-29.94c-46.3-19.25-87.9-46.84-123.64-82.01
						c-35.73-35.16-63.8-76.12-83.43-121.74c-20.32-47.23-30.66-97.41-30.73-149.16c-0.07-51.74,10.14-101.95,30.34-149.23
						c19.51-45.67,47.47-86.7,83.11-121.95c35.64-35.25,77.17-62.95,123.42-82.32c47.89-20.06,98.78-30.26,151.25-30.33
						c0.17,0,0.35,0,0.52,0c52.29,0,103.03,10.07,150.81,29.94c46.31,19.25,87.9,46.84,123.64,82.01
						c35.73,35.16,63.8,76.12,83.43,121.74c20.32,47.23,30.66,97.41,30.73,149.16s-10.14,101.95-30.34,149.23
						c-19.51,45.67-47.47,86.7-83.11,121.95s-77.17,62.95-123.42,82.32c-47.89,20.06-98.78,30.26-151.25,30.33
						C1104.82,1582.19,1104.65,1582.19,1104.47,1582.19z M1104.5,817.52c-0.18,0-0.34,0-0.51,0
						c-213.11,0.27-386.25,171.56-385.98,381.83c0.13,101.87,40.47,197.59,113.57,269.52c72.96,71.8,169.87,111.32,272.89,111.32
						c0.18,0,0.34,0,0.52,0c213.11-0.27,386.25-171.56,385.98-381.83c-0.13-101.87-40.47-197.59-113.57-269.52
						C1304.43,857.04,1207.53,817.52,1104.5,817.52z"/>
				</g>
				<g>
					<g>
						<path class="st4" d="M1103.18,1496.05c-7.93,0-15.89-0.3-23.87-0.92c-81.06-6.21-154.81-43.21-207.67-104.16
							c-52.84-60.94-78.48-138.53-72.19-218.49c3.3-41.91,15.1-81.8,35.07-118.55c19.29-35.5,45.24-66.4,77.14-91.82
							c60.69-48.38,136.98-71.75,214.8-65.78c81.06,6.21,154.81,43.21,207.67,104.16c52.84,60.94,78.48,138.53,72.19,218.49
							l-1.07-0.07l1.07,0.07c-3.3,41.91-15.1,81.8-35.07,118.55c-19.29,35.5-45.24,66.4-77.14,91.82
							C1239.65,1472.78,1172.61,1496.05,1103.18,1496.05z M1102.6,897.42c-68.92,0-135.47,23.1-189.54,66.21
							c-65.37,52.11-104.95,126.34-111.46,209c-12.91,164,111.75,307.78,277.89,320.51c7.91,0.61,15.82,0.91,23.69,0.91
							c68.93,0,135.46-23.1,189.54-66.21c65.37-52.11,104.95-126.34,111.46-209c12.91-164-111.75-307.78-277.89-320.51
							C1118.38,897.72,1110.47,897.42,1102.6,897.42z"/>
						<path class="st12" d="M1120.39,973.46c-124.39-9.54-233.06,82.25-242.72,205.01s83.34,230.01,207.73,239.54
							c124.39,9.54,233.06-82.25,242.72-205.01S1244.78,982.99,1120.39,973.46z M1092.4,1329.1
							c-74.63-5.72-130.43-70.07-124.64-143.73c5.8-73.66,71-128.73,145.63-123.01s130.43,70.07,124.64,143.73
							C1232.23,1279.75,1167.03,1334.82,1092.4,1329.1z"/>
						<ellipse class="st4" cx="1102.89" cy="1195.73" rx="60.72" ry="59.93"/>
					</g>
					<g>
						<polygon class="st3" points="1442.63,939.45 1247.82,1098.04 1228.82,1075.31 1423.63,916.72 						"/>
						<polygon class="st3" points="1224.29,1109.93 1097.82,1201.06 1212.52,1095.85 						"/>
						<g>
							<polygon class="st4" points="1515.38,861.82 1442,921.56 1434.04,870.86 1507.42,811.12 							"/>
							<polygon class="st4" points="1520.92,868.45 1447.54,928.18 1496.46,945.54 1569.84,885.81 							"/>
						</g>
						<polygon class="st4" points="1241.9,1110.97 1231.94,1119.08 1204.87,1086.7 1214.83,1078.59 						"/>
						<polygon class="st7" points="1251.86,1102.87 1241.9,1110.97 1214.83,1078.59 1224.79,1070.48 						"/>
					</g>
				</g>
				<g>
					<path class="st3" d="M1053.11,1489.2c-0.42,0-0.83-0.24-1-0.63l-122.16-282.2c-0.22-0.51,0.04-1.09,0.59-1.3
						c0.54-0.21,1.17,0.04,1.4,0.55l122.16,282.2c0.22,0.51-0.04,1.09-0.59,1.3C1053.38,1489.18,1053.25,1489.2,1053.11,1489.2z"/>
					<path class="st3" d="M1156.63,1489.07c-0.13,0-0.27-0.02-0.4-0.07c-0.55-0.21-0.82-0.79-0.6-1.3l121.42-282.51
						c0.22-0.51,0.84-0.76,1.4-0.56c0.55,0.21,0.82,0.79,0.6,1.3l-121.42,282.51C1157.46,1488.83,1157.06,1489.07,1156.63,1489.07z"
						/>
				</g>
			</g>
			<path class="st6" d="M477.39,1113.99c22.72,70.21,167.81,89.83,261.5,100.07c12.14,5.77,31.13,12.44,52.9,8.9
				c24.81-4.04,29.46-17.48,55.02-26.06c43.14-14.48,72.81,10.75,79.59-4.62c4.66-10.56-12.03-26.05-30.73-35.99
				c-19.19-10.21-35.66-8.25-35.8-11.98c-0.15-4.08,16.83-3.78,37.97-5.45c9.82-0.78,38.03,14.68,46.4,1.25
				c6.67-10.71-18.85-34.54-48.13-39.8c-20.71-3.72-38.2,7.37-39.48,3.55c-0.96-2.87,9.62-9.21,20.27-11.8
				c17.58-4.27,46.6,11.21,54.07-1.31c7.32-12.27-15.32-32.67-41.95-39.31c-22.46-5.6-41.4,7.76-43.02,3.01
				c-1.14-3.34,6.17-11.19,25.4-22.07c16.05-9.08,52.78-15.79,46.31-34.99c-5.44-16.15-44.18-10.07-78.91,2.53
				c-11.99,4.35-28.51,13.96-43.45,23.02c-18.02,10.93-39.57,13.18-59.29,6.27c-40.07-14.03-114.45-34.68-148.34-44.49
				C554.16,979.03,442.15,1005.11,477.39,1113.99z"/>
		</g>
		<polygon class="st4" points="2127.84,1280.85 1778.47,1341.99 1862.46,1421.79 1493.42,1782.25 1340.27,1618.37 889.5,2150.57 
			1307.5,1817.37 1459.97,1989.53 2001.69,1554.08 2084.62,1632.88 		"/>
		<g>
			<g>
				<path class="st7" d="M1780.76,749.59c-50.87,26.2-108.9,31.02-163.39,13.57s-98.93-55.07-125.13-105.94
					s-31.02-108.9-13.57-163.39c17.45-54.49,55.07-98.93,105.94-125.13c50.87-26.2,108.9-31.02,163.39-13.57
					c54.49,17.45,98.93,55.07,125.13,105.94s31.02,108.9,13.57,163.39S1831.63,723.39,1780.76,749.59z M1608.79,415.65
					c-79.12,40.74-110.34,138.26-69.6,217.38s138.26,110.34,217.38,69.6s110.34-138.26,69.6-217.38S1687.91,374.91,1608.79,415.65z"
					/>
				<g>
					<path class="st4" d="M1533.8,621.46c-32.22-76.82-0.31-167.02,74.99-205.8c19.95-10.27,41.08-15.97,62.16-17.48l0.34-53.05
						c-29.86,1.58-59.31,9.47-86.68,23.57c-50.87,26.2-88.49,70.63-105.94,125.13c-16.14,50.42-13.21,103.86,8.07,151.86
						L1533.8,621.46z"/>
					<path class="st0" d="M1696.82,345.32l-0.34,53.07c53.41,4.67,103.38,35.78,129.69,86.86c14.13,27.44,19.6,57.08,17.42,85.81
						l52.43,8.09c3.87-40.41-3.87-81.13-22.9-118.08c-26.2-50.87-70.63-88.49-125.13-105.94
						C1731.18,349.74,1714.01,346.48,1696.82,345.32z"/>
					<path class="st3" d="M1745,708.03c-72.93,30.59-157.91,3.38-199.51-63.87l-47.06,24.23c26.72,45.2,68.52,78.63,118.94,94.77
						c50.42,16.14,103.86,13.21,151.87-8.07L1745,708.03z"/>
					<path class="st4" d="M1839.67,596.28c-9.59,40.41-34.59,76.93-71.97,100.06l24.23,47.06c45.2-26.72,78.63-68.52,94.77-118.94
						c2.13-6.65,3.92-13.35,5.39-20.09L1839.67,596.28z"/>
				</g>
			</g>
		</g>
		<g>
			<path class="st7" d="M1941.91,1262.86H1546.1c-0.55,0-1-0.45-1-1v-259.75c0-0.55,0.45-1,1-1s1,0.45,1,1v258.75h394.81
				c0.55,0,1,0.45,1,1S1942.47,1262.86,1941.91,1262.86z"/>
			<g>
				<path class="st7" d="M1800.08,1087.65c-0.34,0-0.67-0.17-0.86-0.49c-0.28-0.47-0.13-1.09,0.35-1.37l47.01-28.1
					c0.47-0.28,1.09-0.13,1.37,0.35c0.28,0.47,0.13,1.09-0.35,1.37l-47.01,28.1C1800.43,1087.6,1800.25,1087.65,1800.08,1087.65z"/>
				<path class="st7" d="M1770.31,1080.13c-0.33,0-0.64-0.16-0.84-0.45l-63.7-96.98c-0.3-0.46-0.17-1.08,0.29-1.38
					c0.46-0.3,1.08-0.17,1.38,0.29l63.7,96.98c0.3,0.46,0.17,1.08-0.29,1.38C1770.69,1080.08,1770.5,1080.13,1770.31,1080.13z"/>
				<path class="st7" d="M1629.38,1017.19c-0.3,0-0.6-0.13-0.79-0.39c-0.34-0.44-0.26-1.06,0.18-1.4l49.49-38.23
					c0.44-0.34,1.07-0.26,1.4,0.18c0.34,0.44,0.26,1.07-0.18,1.4l-49.49,38.23C1629.8,1017.12,1629.59,1017.19,1629.38,1017.19z"/>
				<path class="st7" d="M1633.73,1028.96c0,11.27-9.14,20.41-20.41,20.41s-20.41-9.14-20.41-20.41s9.14-20.41,20.41-20.41
					C1624.6,1008.55,1633.73,1017.69,1633.73,1028.96z"/>
				<path class="st7" d="M1716,965.47c0,11.27-9.14,20.41-20.41,20.41s-20.41-9.14-20.41-20.41s9.14-20.41,20.41-20.41
					C1706.87,945.07,1716,954.21,1716,965.47z"/>
				<path class="st7" d="M1802.51,1096.41c0,11.27-9.14,20.41-20.41,20.41s-20.41-9.14-20.41-20.41s9.14-20.41,20.41-20.41
					S1802.51,1085.14,1802.51,1096.41z"/>
				<path class="st7" d="M1885.43,1048.81c0,11.27-9.14,20.41-20.41,20.41s-20.41-9.14-20.41-20.41s9.14-20.41,20.41-20.41
					C1876.3,1028.41,1885.43,1037.54,1885.43,1048.81z"/>
			</g>
			<g>
				<rect x="1589.21" y="1081.78" class="st7" width="50.75" height="139.15"/>
				<rect x="1672.96" y="1054.06" class="st7" width="50.75" height="166.87"/>
				<rect x="1756.71" y="1131.01" class="st7" width="50.75" height="89.92"/>
				<rect x="1840.46" y="1105.19" class="st7" width="50.75" height="115.75"/>
			</g>
		</g>
		<g>
			<path class="st4" d="M2114.62,1019.79c-0.89-68.31-47.04-123.37-103.88-123.37c-1.66,0-3.31,0.06-4.95,0.15v123.22
				L2114.62,1019.79L2114.62,1019.79z"/>
			<path class="st7" d="M1993.42,1032.16v-76.58c-41.31,1.94-74.2,36.03-74.2,77.82c0,43.03,34.88,77.91,77.91,77.91
				s77.91-34.88,77.91-77.91c0-0.42-0.02-0.82-0.03-1.24H1993.42z"/>
		</g>
	</g>
</g>
</svg>
