<?xml version="1.0" encoding="UTF-8"?>
<svg xmlns="http://www.w3.org/2000/svg" viewBox="0 0 600 600">
  <defs>
    <style>
      .cls-1 {
        fill-rule: evenodd;
      }

      .cls-1, .cls-2, .cls-3, .cls-4 {
        stroke-width: 0px;
      }

      .cls-1, .cls-3 {
        fill: #1a1a1a;
      }

      .cls-2 {
        fill: #00b9fd;
      }

      .cls-5 {
        isolation: isolate;
      }

      .cls-4 {
        fill: #fff;
        mix-blend-mode: overlay;
        opacity: .2;
      }
    </style>
  </defs>
  <g class="cls-5">
    <g id="Layer_1" data-name="Layer 1">
      <g>
        <g>
          <g>
            <g>
              <path class="cls-3" d="m464.63,248.26l-3.99,1.54-22.12,8.57-.75-.72-16.86-16.14c-.19.9-.39,1.79-.58,2.68-.24,1.03-.5,2.06-.76,3.09-.22.88-.46,1.77-.72,2.66-.04.19-.09.38-.15.57-.28.96-.57,1.94-.88,2.91-.26.82-.51,1.64-.79,2.45-.12.33-.22.66-.33.98-.31.87-.62,1.74-.94,2.6-.33.9-.67,1.81-1.03,2.69-.07.2-.13.38-.22.55-.29.76-.61,1.51-.92,2.26-.35.81-.71,1.62-1.08,2.43-.29.65-.59,1.29-.88,1.93-.62,1.33-1.26,2.65-1.94,3.95-.49.95-1,1.9-1.52,2.84-.36.67-.74,1.34-1.13,2-.97,1.73-2.02,3.45-3.11,5.12-.39.63-.77,1.25-1.19,1.86-1.19,1.79-2.42,3.57-3.71,5.29-10.15,13.73-23.29,25.58-39.14,34.48-60.06,33.7-136.07,12.3-169.75-47.73-2.64-4.7-4.96-9.53-6.91-14.43-3.05-7.51-5.27-15.19-6.76-22.95l10.39-1.37-11.89-8.16-21.09-14.4-2.88-1.97-20.03,21.17-11.55,12.22,5.42-.71,7.66-1.02c.06.33.11.67.18,1.02,3.24,17.84,9.49,35.51,18.87,52.24,6.34,11.29,13.78,21.57,22.12,30.78.03.02.04.04.03.06,49.64,54.82,130.94,71.74,199.33,38.21l.06-.03c2.83-1.38,5.63-2.85,8.4-4.41,45.04-25.28,73.98-68.12,83.13-115.13Z"/>
              <path class="cls-2" d="m446.16,133.46c-8.54-15.22-19.08-28.59-31.1-39.99,0,0-.04-.04-.1-.11-.05-.05-.1-.11-.17-.15-34.23-32.32-80.43-48.66-126.79-45.68v-.02s-.06.01-.08.02c-24.46,1.56-48.93,8.5-71.73,21.29-53.16,29.83-83.93,84.15-86.1,140.86l3.45-2.43,19.13-13.42,1.3.75,20.58,11.67c.06-.63.11-1.27.18-1.9-.02,0,0-.02.01-.05.08-.92.18-1.86.29-2.8.07-.57.14-1.14.21-1.7.12-.93.25-1.86.4-2.79.18-1.21.37-2.4.62-3.6-.02-.03-.02-.07.02-.11.16-.95.33-1.89.56-2.83.1-.55.23-1.13.36-1.7.13-.61.26-1.21.42-1.81.14-.63.3-1.25.47-1.86.13-.57.27-1.12.43-1.68.22-.84.46-1.67.7-2.5.07-.24.14-.49.23-.72.28-1,.58-1.96.91-2.91.06-.22.13-.42.21-.61.32-1.06.68-2.1,1.07-3.1.03-.14.08-.27.13-.38.3-.89.64-1.75.99-2.62.13-.38.29-.76.45-1.13.36-.92.74-1.83,1.14-2.71.05-.19.14-.37.22-.55.42-1,.85-1.95,1.32-2.91.07-.16.14-.3.21-.47.39-.83.78-1.67,1.21-2.48.2-.42.42-.83.62-1.23.48-.97.99-1.93,1.51-2.85.59-1.11,1.21-2.19,1.85-3.27t.02-.03c.58-1.04,1.21-2.07,1.86-3.07.04-.08.07-.14.11-.21.66-1.05,1.34-2.1,2.03-3.13.57-.85,1.14-1.69,1.74-2.51.88-1.27,1.81-2.51,2.74-3.73.53-.73,1.08-1.43,1.64-2.11.28-.34.54-.67.81-1.01.51-.66,1.06-1.29,1.61-1.91v-.02c.23-.28.45-.54.69-.8.83-.97,1.68-1.93,2.55-2.86.49-.54.99-1.09,1.51-1.61.49-.54,1.01-1.06,1.52-1.57.79-.79,1.59-1.59,2.4-2.37.61-.59,1.25-1.17,1.88-1.75,2.58-2.37,5.28-4.64,8.1-6.8.67-.56,1.38-1.08,2.09-1.6,1.21-.91,2.44-1.78,3.69-2.62.9-.63,1.81-1.22,2.73-1.82.32-.2.61-.41.92-.58,1.91-1.23,3.86-2.39,5.85-3.51,18.32-10.28,38.12-15.43,57.75-15.92,44.75-1.13,88.61,21.93,112.04,63.67,9.3,16.57,14.41,34.37,15.63,52.16l-7.09-.44-3.63-.26,30.35,30.58,2.15,2.15,32.01-25.5,3.57-2.84-4.51-.3-8.45-.54c0-.16,0-.3-.01-.46-.95-25.93-7.88-52-21.46-76.19Z"/>
            </g>
            <path class="cls-4" d="m288,47.53v-.02s-.06.01-.08.02c.06-.01.08,0,.08,0Z"/>
          </g>
          <path class="cls-1" d="m255.74,249.68l3.5-6.49,39.88,44.45,40.16-43.93,3.22,5.97,20.5,37.97h22.88l-34.36-63.64h-22.88l-29.52,33.79-29.52-33.79h-22.88l-34.36,63.64h22.88l20.5-37.97Zm17.64-32.67l25.74-47.68,25.74,47.68h22.88l-5.24-9.72-43.38-80.35-43.38,80.35-5.24,9.72h22.88Z"/>
        </g>
        <g>
          <g>
            <path class="cls-2" d="m52.27,502.4l16.79-83.92h16.37l16.79,83.92h-14.19l-3.32-19.38h-14.61l-3.42,19.38h-14.4Zm19.38-29.11h11.4l-5.7-35.23-5.7,35.23Z"/>
            <path class="cls-2" d="m110.6,502.4v-83.92h20.1c5.66,0,10.45.67,14.35,2.02,3.9,1.35,6.87,3.64,8.91,6.89,2.04,3.25,3.06,7.67,3.06,13.26,0,3.38-.31,6.42-.93,9.12-.62,2.69-1.68,4.99-3.16,6.89-1.49,1.9-3.54,3.37-6.17,4.4l11.71,41.34h-15.33l-10.15-38.44h-7.05v38.44h-15.33Zm15.33-48.08h4.77c2.97,0,5.34-.43,7.1-1.29,1.76-.86,3.02-2.24,3.78-4.14.76-1.9,1.14-4.33,1.14-7.3,0-4.21-.78-7.37-2.33-9.48-1.55-2.11-4.51-3.16-8.86-3.16h-5.59v25.38Z"/>
            <path class="cls-2" d="m178.46,502.4v-32.02l-16.99-51.91h14.3l10.36,33.26,9.74-33.26h13.99l-16.78,51.91v32.02h-14.61Z"/>
            <path class="cls-2" d="m208.62,502.4l16.79-83.92h16.37l16.79,83.92h-14.19l-3.32-19.38h-14.61l-3.42,19.38h-14.4Zm19.38-29.11h11.4l-5.7-35.23-5.7,35.23Z"/>
            <path class="cls-3" d="m291.92,502.4l1.45-83.92h15.85l11.92,58.12,12.43-58.12h15.33l1.55,83.92h-11.4l-1.24-58.33-11.92,58.33h-9.22l-12.12-58.54-1.14,58.54h-11.5Z"/>
            <path class="cls-3" d="m363.31,502.4v-83.92h15.13v83.92h-15.13Z"/>
            <path class="cls-3" d="m391.38,502.4v-83.92h10.67l20.41,47.87v-47.87h12.64v83.92h-10.15l-20.52-50.15v50.15h-13.05Z"/>
            <path class="cls-3" d="m447.85,502.4v-83.92h19.79c6.84,0,12.17.93,16.01,2.8,3.83,1.87,6.56,4.73,8.18,8.6,1.62,3.87,2.44,8.77,2.44,14.71v30.67c0,6.08-.81,11.14-2.44,15.18-1.62,4.04-4.32,7.05-8.08,9.01-3.77,1.97-8.93,2.95-15.49,2.95h-20.41Zm15.33-10.67h4.66c3.52,0,6.04-.62,7.56-1.87,1.52-1.24,2.45-3.06,2.8-5.44.34-2.38.52-5.3.52-8.75v-32.12c0-3.38-.24-6.11-.73-8.19-.48-2.07-1.49-3.59-3-4.56-1.52-.97-3.97-1.45-7.36-1.45h-4.46v62.37Z"/>
            <path class="cls-3" d="m526.7,503.54c-5.04,0-9.26-.98-12.64-2.95-3.38-1.97-5.94-4.85-7.67-8.65-1.73-3.8-2.69-8.46-2.9-13.99l13.16-2.59c.14,3.25.53,6.11,1.19,8.6.66,2.49,1.66,4.4,3,5.75s3.12,2.02,5.34,2.02c2.49,0,4.25-.74,5.28-2.23,1.04-1.48,1.55-3.37,1.55-5.65,0-3.66-.83-6.67-2.49-9.01-1.66-2.35-3.87-4.7-6.63-7.05l-10.57-9.33c-2.97-2.55-5.34-5.4-7.1-8.55-1.76-3.14-2.64-7.03-2.64-11.66,0-6.63,1.93-11.74,5.8-15.33,3.87-3.59,9.15-5.39,15.85-5.39,3.94,0,7.22.61,9.84,1.81,2.62,1.21,4.71,2.89,6.27,5.03,1.55,2.14,2.71,4.58,3.47,7.3.76,2.73,1.24,5.61,1.45,8.65l-13.05,2.28c-.14-2.62-.43-4.97-.88-7.05-.45-2.07-1.24-3.69-2.38-4.87-1.14-1.17-2.82-1.76-5.03-1.76s-4.02.74-5.23,2.23c-1.21,1.49-1.81,3.33-1.81,5.54,0,2.83.59,5.16,1.76,6.99,1.17,1.83,2.87,3.71,5.08,5.65l10.46,9.22c3.45,2.9,6.41,6.3,8.86,10.21,2.45,3.9,3.68,8.62,3.68,14.14,0,4.01-.88,7.56-2.64,10.67-1.76,3.11-4.21,5.54-7.36,7.3-3.14,1.76-6.82,2.64-11.03,2.64Z"/>
          </g>
          <g>
            <path class="cls-3" d="m142.4,526.34v2.53h-7.19v19.74h-3.01v-19.74h-7.23v-2.53h17.44Z"/>
            <path class="cls-3" d="m145.14,548.61v-22.89h2.77v9.26c.67-.71,1.42-1.29,2.24-1.72s1.76-.65,2.83-.65c.86,0,1.62.14,2.28.43s1.21.69,1.65,1.21c.44.52.77,1.15,1,1.89.23.74.34,1.55.34,2.44v10.02h-2.77v-10.02c0-1.19-.27-2.12-.82-2.77-.54-.66-1.38-.99-2.49-.99-.82,0-1.58.2-2.29.59-.71.39-1.37.93-1.97,1.6v11.59h-2.77Z"/>
            <path class="cls-3" d="m166.11,527.93c0,.27-.05.52-.16.75-.11.23-.25.44-.44.62-.18.18-.39.32-.63.43s-.49.16-.76.16-.52-.05-.75-.16c-.23-.1-.44-.25-.62-.43-.18-.18-.32-.39-.43-.62-.1-.23-.16-.48-.16-.75s.05-.53.16-.77.25-.46.43-.64c.18-.18.39-.32.62-.43.23-.1.48-.16.75-.16s.52.05.76.16.45.25.63.43c.18.18.33.39.44.64.11.24.16.5.16.77Zm-.62,4.94v15.74h-2.77v-15.74h2.77Z"/>
            <path class="cls-3" d="m170.37,548.61v-15.74h1.65c.39,0,.64.19.75.58l.22,1.71c.68-.76,1.45-1.37,2.29-1.83.84-.47,1.82-.7,2.93-.7.86,0,1.62.14,2.28.43s1.21.69,1.65,1.21c.44.52.77,1.15,1,1.89.23.74.34,1.55.34,2.44v10.02h-2.77v-10.02c0-1.19-.27-2.12-.82-2.77-.54-.66-1.38-.99-2.49-.99-.82,0-1.58.2-2.29.59-.71.39-1.37.93-1.97,1.6v11.59h-2.77Z"/>
            <path class="cls-3" d="m190.53,525.72v13.47h.71c.21,0,.38-.03.51-.08.13-.06.28-.17.45-.35l4.97-5.33c.16-.17.31-.3.47-.4.16-.1.36-.16.62-.16h2.52l-5.8,6.17c-.15.18-.29.33-.43.47-.14.13-.3.25-.47.36.19.12.35.27.5.43.15.16.29.34.43.55l6.15,7.77h-2.49c-.23,0-.42-.04-.58-.13s-.31-.23-.46-.41l-5.17-6.45c-.16-.22-.31-.36-.47-.43-.16-.07-.39-.1-.7-.1h-.78v7.52h-2.78v-22.89h2.78Z"/>
            <path class="cls-3" d="m203.13,546.7c0-.24.04-.46.13-.68.09-.21.21-.4.37-.56.16-.16.35-.29.58-.38.23-.09.48-.14.75-.14.31,0,.59.06.83.17.24.11.45.27.61.47.16.2.28.44.36.7.08.26.12.55.12.86,0,.47-.07.95-.2,1.45s-.33,1-.57,1.49c-.25.49-.56.97-.92,1.44-.37.47-.78.9-1.25,1.29l-.47-.45c-.13-.12-.2-.27-.2-.44,0-.13.07-.27.22-.42.1-.11.24-.27.4-.46s.32-.41.49-.66c.17-.25.32-.52.46-.82.14-.3.24-.62.3-.96h-.2c-.27,0-.51-.05-.73-.14-.22-.09-.41-.23-.57-.4-.16-.17-.29-.37-.37-.61-.09-.23-.13-.49-.13-.77Z"/>
            <path class="cls-3" d="m232.12,526.34v2.53h-7.19v19.74h-3.01v-19.74h-7.23v-2.53h17.44Z"/>
            <path class="cls-3" d="m232.37,548.61v-15.74h1.58c.3,0,.51.06.62.17.11.11.19.31.23.59l.19,2.46c.54-1.1,1.2-1.96,2-2.57s1.72-.92,2.79-.92c.44,0,.83.05,1.18.15s.68.24.98.41l-.36,2.07c-.07.26-.23.39-.48.39-.15,0-.37-.05-.67-.15-.3-.1-.72-.15-1.26-.15-.96,0-1.77.28-2.42.84-.65.56-1.19,1.37-1.62,2.44v10.02h-2.77Z"/>
            <path class="cls-3" d="m255.87,548.61h-1.23c-.27,0-.49-.04-.65-.12-.17-.08-.27-.26-.33-.53l-.31-1.46c-.41.37-.82.71-1.21,1-.39.3-.81.54-1.24.75s-.9.36-1.39.46c-.49.1-1.04.16-1.64.16s-1.18-.09-1.72-.26c-.53-.17-1-.43-1.39-.77s-.71-.78-.94-1.3c-.23-.53-.35-1.15-.35-1.86,0-.62.17-1.22.51-1.8.34-.58.89-1.09,1.65-1.54.76-.45,1.76-.81,2.99-1.1,1.23-.29,2.74-.43,4.52-.43v-1.24c0-1.23-.26-2.16-.79-2.79-.52-.63-1.3-.95-2.32-.95-.67,0-1.24.08-1.7.26s-.86.36-1.2.58c-.34.21-.63.4-.87.58-.24.17-.48.26-.72.26-.19,0-.35-.05-.49-.15-.14-.1-.25-.22-.33-.37l-.5-.89c.87-.84,1.81-1.47,2.81-1.88,1-.41,2.12-.62,3.34-.62.88,0,1.66.15,2.35.44.68.29,1.26.69,1.73,1.21.47.52.82,1.14,1.06,1.88.24.74.36,1.54.36,2.42v10.07Zm-7.18-1.69c.49,0,.93-.05,1.34-.15.4-.1.78-.24,1.14-.42.36-.18.7-.4,1.03-.66.33-.26.65-.55.96-.89v-3.25c-1.27,0-2.36.08-3.25.24-.89.16-1.62.37-2.18.63-.56.26-.97.57-1.22.92-.25.35-.38.75-.38,1.19s.07.78.2,1.08c.13.3.32.55.54.74.23.19.5.33.81.42.31.09.65.13,1.01.13Z"/>
            <path class="cls-3" d="m260.06,548.61v-15.74h1.65c.39,0,.64.19.75.58l.22,1.71c.68-.76,1.45-1.37,2.29-1.83.84-.47,1.82-.7,2.93-.7.86,0,1.62.14,2.28.43s1.21.69,1.65,1.21c.44.52.77,1.15,1,1.89.23.74.34,1.55.34,2.44v10.02h-2.77v-10.02c0-1.19-.27-2.12-.82-2.77-.54-.66-1.38-.99-2.49-.99-.82,0-1.58.2-2.29.59-.71.39-1.37.93-1.97,1.6v11.59h-2.77Z"/>
            <path class="cls-3" d="m286.36,535.46c-.12.23-.32.34-.58.34-.16,0-.33-.06-.53-.17-.2-.11-.44-.24-.72-.38-.29-.14-.62-.27-1.02-.39-.39-.12-.86-.18-1.4-.18-.47,0-.89.06-1.26.18s-.69.28-.96.49-.47.45-.61.72c-.14.27-.21.57-.21.89,0,.4.12.74.35,1.01.23.27.54.5.92.7.38.2.82.37,1.31.52.49.15.99.31,1.5.48.51.17,1.01.36,1.5.57.49.21.92.47,1.31.78s.69.69.92,1.14c.23.45.35.99.35,1.62,0,.73-.13,1.4-.39,2.01-.26.62-.64,1.15-1.15,1.6-.51.45-1.13.81-1.86,1.06-.74.26-1.58.39-2.55.39-1.1,0-2.09-.18-2.98-.54-.89-.36-1.65-.82-2.27-1.38l.65-1.06c.08-.13.18-.24.29-.31.11-.07.26-.11.45-.11s.38.07.59.22c.21.15.46.31.75.48s.65.34,1.07.48c.42.15.95.22,1.58.22.54,0,1.01-.07,1.41-.21.4-.14.74-.33,1.01-.57.27-.24.47-.51.6-.82s.19-.64.19-1c0-.43-.12-.79-.35-1.08-.23-.29-.54-.53-.92-.73s-.82-.38-1.31-.53-.99-.31-1.51-.47c-.51-.17-1.02-.35-1.51-.57-.49-.21-.93-.48-1.31-.8s-.69-.72-.92-1.19c-.23-.47-.35-1.04-.35-1.72,0-.6.12-1.18.37-1.73.25-.55.61-1.04,1.09-1.46.48-.42,1.06-.75,1.76-1,.69-.25,1.49-.37,2.38-.37,1.04,0,1.97.16,2.79.49.82.33,1.54.78,2.14,1.34l-.62,1.01Z"/>
            <path class="cls-3" d="m291.45,548.61v-13.38l-1.74-.2c-.22-.05-.4-.13-.54-.24s-.21-.27-.21-.47v-1.13h2.49v-1.52c0-.9.13-1.7.38-2.4s.62-1.29,1.09-1.77c.47-.48,1.04-.85,1.7-1.1.66-.25,1.41-.37,2.24-.37.7,0,1.36.1,1.96.31l-.06,1.38c-.01.21-.1.33-.26.37-.17.04-.4.06-.7.06h-.48c-.48,0-.91.06-1.3.19-.39.12-.72.33-1,.61s-.49.65-.65,1.1c-.15.46-.23,1.02-.23,1.69v1.45h4.55v2h-4.46v13.43h-2.78Z"/>
            <path class="cls-3" d="m307.68,532.62c1.15,0,2.19.19,3.12.58.93.38,1.71.93,2.36,1.63.65.7,1.14,1.56,1.49,2.56.35,1,.52,2.12.52,3.35s-.17,2.36-.52,3.36c-.35.99-.84,1.84-1.49,2.55-.65.71-1.44,1.25-2.36,1.62s-1.97.57-3.12.57-2.19-.19-3.12-.57c-.93-.38-1.72-.92-2.37-1.62-.65-.7-1.16-1.55-1.51-2.55-.35-1-.53-2.11-.53-3.36s.18-2.35.53-3.35c.35-1,.85-1.85,1.51-2.56.65-.7,1.44-1.25,2.37-1.63.93-.38,1.97-.58,3.12-.58Zm0,14.05c1.55,0,2.71-.52,3.48-1.56s1.15-2.49,1.15-4.36-.38-3.33-1.15-4.38c-.77-1.05-1.93-1.57-3.48-1.57-.79,0-1.47.13-2.05.4-.58.27-1.06.66-1.45,1.17s-.68,1.13-.87,1.87c-.19.74-.29,1.58-.29,2.51s.1,1.77.29,2.5c.19.74.48,1.35.87,1.86.39.5.87.89,1.45,1.16.58.27,1.26.4,2.05.4Z"/>
            <path class="cls-3" d="m318.58,548.61v-15.74h1.58c.3,0,.51.06.62.17.11.11.19.31.23.59l.19,2.46c.54-1.1,1.2-1.96,2-2.57s1.72-.92,2.79-.92c.44,0,.83.05,1.18.15s.68.24.98.41l-.36,2.07c-.07.26-.23.39-.48.39-.15,0-.37-.05-.67-.15-.3-.1-.72-.15-1.26-.15-.96,0-1.77.28-2.42.84-.65.56-1.19,1.37-1.62,2.44v10.02h-2.77Z"/>
            <path class="cls-3" d="m331.11,548.61v-15.74h1.65c.39,0,.64.19.75.58l.2,1.62c.58-.71,1.23-1.3,1.95-1.76.72-.46,1.56-.68,2.51-.68,1.07,0,1.93.3,2.59.89.66.59,1.13,1.39,1.42,2.39.22-.57.51-1.06.86-1.48s.76-.76,1.2-1.03.92-.47,1.42-.59c.5-.12,1.01-.19,1.53-.19.83,0,1.57.13,2.21.4.65.26,1.2.65,1.65,1.16.45.51.79,1.13,1.03,1.87.24.74.36,1.59.36,2.54v10.02h-2.77v-10.02c0-1.23-.27-2.17-.81-2.81-.54-.64-1.32-.96-2.35-.96-.46,0-.89.08-1.3.24-.41.16-.77.4-1.08.71-.31.31-.56.7-.74,1.17-.18.47-.27,1.02-.27,1.64v10.02h-2.77v-10.02c0-1.26-.25-2.21-.76-2.83-.51-.62-1.25-.93-2.22-.93-.68,0-1.32.18-1.9.55-.59.37-1.12.87-1.61,1.5v11.73h-2.77Z"/>
            <path class="cls-3" d="m370.61,526.09c.82,0,1.56.13,2.24.4.67.26,1.26.61,1.75,1.05.49.43.88.94,1.17,1.51.28.58.45,1.17.49,1.79l-1.73.34c-.05.01-.1.02-.14.02-.13,0-.26-.04-.38-.11s-.2-.2-.26-.39c-.07-.27-.19-.55-.35-.84-.16-.29-.37-.55-.62-.79-.25-.24-.56-.43-.92-.59-.36-.16-.77-.23-1.25-.23-.52,0-.98.08-1.4.25-.41.17-.77.4-1.06.69-.3.29-.52.64-.68,1.04-.16.4-.24.83-.24,1.3,0,.36.04.71.13,1.04.09.33.22.67.4,1s.4.68.68,1.04.62.73,1.01,1.13l6.4,6.51c.39-.69.71-1.42.94-2.18.23-.76.39-1.53.47-2.29.02-.2.08-.35.19-.47s.25-.17.44-.17h1.71c-.02,1.19-.21,2.36-.58,3.51-.36,1.15-.89,2.23-1.57,3.23l4.66,4.72h-2.67c-.3,0-.54-.04-.73-.11s-.39-.22-.62-.45l-2.24-2.25c-.97.94-2.1,1.69-3.36,2.24-1.27.55-2.67.82-4.19.82-.83,0-1.64-.14-2.44-.42-.8-.28-1.51-.69-2.14-1.22-.63-.53-1.13-1.18-1.52-1.95s-.57-1.63-.57-2.59c0-.73.12-1.41.36-2.06.24-.65.58-1.25,1.01-1.79.43-.55.94-1.04,1.53-1.48.59-.44,1.24-.81,1.94-1.12-.63-.8-1.1-1.57-1.4-2.33-.3-.76-.45-1.54-.45-2.35,0-.76.14-1.47.41-2.13.27-.66.67-1.24,1.19-1.73.52-.49,1.15-.88,1.89-1.17s1.57-.43,2.49-.43Zm-6.17,16.36c0,.67.12,1.27.37,1.78.25.51.57.95.98,1.3.4.35.86.62,1.38.8s1.05.27,1.58.27c1.16,0,2.2-.21,3.12-.64.92-.42,1.73-.99,2.44-1.69l-6.57-6.63c-1.1.59-1.92,1.3-2.48,2.12s-.83,1.72-.83,2.7Z"/>
            <path class="cls-3" d="m406.07,526.34v2.53h-7.19v19.74h-3.01v-19.74h-7.23v-2.53h17.44Z"/>
            <path class="cls-3" d="m408.81,548.61v-22.89h2.77v9.26c.67-.71,1.42-1.29,2.24-1.72s1.76-.65,2.83-.65c.86,0,1.62.14,2.28.43s1.21.69,1.65,1.21.77,1.15,1,1.89c.23.74.34,1.55.34,2.44v10.02h-2.77v-10.02c0-1.19-.27-2.12-.82-2.77-.54-.66-1.38-.99-2.49-.99-.82,0-1.58.2-2.29.59-.71.39-1.36.93-1.96,1.6v11.59h-2.77Z"/>
            <path class="cls-3" d="m426.08,548.61v-15.74h1.58c.3,0,.51.06.62.17.11.11.19.31.23.59l.19,2.46c.54-1.1,1.21-1.96,2-2.57.79-.62,1.72-.92,2.79-.92.44,0,.83.05,1.18.15.35.1.68.24.98.41l-.36,2.07c-.07.26-.23.39-.48.39-.15,0-.37-.05-.67-.15-.3-.1-.72-.15-1.26-.15-.96,0-1.77.28-2.42.84-.65.56-1.19,1.37-1.62,2.44v10.02h-2.77Z"/>
            <path class="cls-3" d="m442.31,527.93c0,.27-.05.52-.16.75-.11.23-.25.44-.43.62s-.39.32-.63.43-.49.16-.76.16-.52-.05-.75-.16c-.23-.1-.44-.25-.62-.43s-.32-.39-.43-.62c-.1-.23-.16-.48-.16-.75s.05-.53.16-.77.25-.46.43-.64.39-.32.62-.43c.23-.1.48-.16.75-.16s.52.05.76.16.45.25.63.43.33.39.43.64c.11.24.16.5.16.77Zm-.62,4.94v15.74h-2.77v-15.74h2.77Z"/>
            <path class="cls-3" d="m444.58,532.87h2.27c.22,0,.4.06.54.17.14.11.25.25.31.4l3.99,10.13c.15.37.26.75.34,1.12s.16.74.23,1.1c.08-.36.17-.73.26-1.1.09-.37.21-.75.36-1.12l4.04-10.13c.06-.17.16-.3.3-.41s.31-.16.52-.16h2.16l-6.42,15.74h-2.5l-6.42-15.74Z"/>
            <path class="cls-3" d="m468.31,532.62c.94,0,1.81.16,2.61.47.8.32,1.49.77,2.07,1.37.58.6,1.03,1.33,1.36,2.21.33.88.49,1.87.49,2.99,0,.43-.05.72-.14.87-.09.14-.27.22-.53.22h-10.47c.02,1,.16,1.86.4,2.6.25.74.59,1.35,1.03,1.84.44.49.95.86,1.55,1.1s1.27.37,2.02.37c.69,0,1.29-.08,1.79-.24.5-.16.93-.33,1.3-.52.36-.19.67-.36.91-.52.24-.16.45-.24.63-.24.23,0,.4.09.53.26l.78,1.01c-.34.42-.75.78-1.23,1.08-.48.31-.99.56-1.53.75-.54.2-1.11.34-1.69.44-.58.1-1.16.15-1.72.15-1.09,0-2.09-.18-3.01-.55-.92-.37-1.71-.91-2.38-1.62-.67-.71-1.19-1.59-1.56-2.63s-.56-2.25-.56-3.61c0-1.1.17-2.12.5-3.08.34-.95.82-1.78,1.45-2.48s1.4-1.25,2.32-1.65c.91-.4,1.94-.6,3.08-.6Zm.06,2.04c-1.34,0-2.39.39-3.16,1.16-.77.77-1.24,1.84-1.43,3.21h8.56c0-.64-.09-1.23-.26-1.76-.18-.53-.44-.99-.78-1.38s-.76-.69-1.25-.9c-.49-.21-1.05-.32-1.69-.32Z"/>
          </g>
        </g>
      </g>
    </g>
  </g>
</svg>