<?xml version="1.0" encoding="utf-8"?>
<!-- Generator: Adobe Illustrator 28.0.0, SVG Export Plug-In . SVG Version: 6.00 Build 0)  -->
<svg version="1.1" id="Layer_1" xmlns="http://www.w3.org/2000/svg" xmlns:xlink="http://www.w3.org/1999/xlink" x="0px" y="0px"
	 viewBox="0 0 600 600" style="enable-background:new 0 0 600 600;" xml:space="preserve">
<style type="text/css">
	.st0{fill:#1A1A1A;}
	.st1{fill:#FFFFFF;}
	.st2{opacity:0.2;fill:#FFFFFF;}
	.st3{fill-rule:evenodd;clip-rule:evenodd;fill:#1A1A1A;}
</style>
<g>
	<g>
		<g>
			<g>
				<g>
					<g>
						<g>
							<path class="st0" d="M464.63,248.26l-3.99,1.54l-22.12,8.57l-0.75-0.72l-16.86-16.14c-0.19,0.9-0.39,1.79-0.58,2.68
								c-0.24,1.03-0.5,2.06-0.76,3.09c-0.22,0.88-0.46,1.77-0.72,2.66c-0.04,0.19-0.09,0.38-0.15,0.57
								c-0.28,0.96-0.57,1.94-0.88,2.91c-0.26,0.82-0.51,1.64-0.79,2.45c-0.12,0.33-0.22,0.66-0.33,0.98
								c-0.31,0.87-0.62,1.74-0.94,2.6c-0.33,0.9-0.67,1.81-1.03,2.69c-0.07,0.2-0.13,0.38-0.22,0.55
								c-0.29,0.76-0.61,1.51-0.92,2.26c-0.35,0.81-0.71,1.62-1.08,2.43c-0.29,0.65-0.59,1.29-0.88,1.93
								c-0.62,1.33-1.26,2.65-1.94,3.95c-0.49,0.95-1,1.9-1.52,2.84c-0.36,0.67-0.74,1.34-1.13,2c-0.97,1.73-2.02,3.45-3.11,5.12
								c-0.39,0.63-0.77,1.25-1.19,1.86c-1.19,1.79-2.42,3.57-3.71,5.29c-10.15,13.73-23.29,25.58-39.14,34.48
								c-60.06,33.7-136.07,12.3-169.75-47.73c-2.64-4.7-4.96-9.53-6.91-14.43c-3.05-7.51-5.27-15.19-6.76-22.95l10.39-1.37
								l-11.89-8.16l-21.09-14.4l-2.88-1.97l-20.03,21.17l-11.55,12.22l5.42-0.71l7.66-1.02c0.06,0.33,0.11,0.67,0.18,1.02
								c3.24,17.84,9.49,35.51,18.87,52.24c6.34,11.29,13.78,21.57,22.12,30.78c0.03,0.02,0.04,0.04,0.03,0.06
								c49.64,54.82,130.94,71.74,199.33,38.21c0,0,0.02-0.01,0.06-0.04c2.83-1.38,5.63-2.85,8.4-4.41
								C426.54,338.12,455.48,295.28,464.63,248.26z"/>
						</g>
						<g>
							<path class="st1" d="M446.16,133.46c-8.54-15.22-19.08-28.59-31.1-39.99c0,0-0.04-0.04-0.1-0.11
								c-0.05-0.05-0.1-0.11-0.17-0.15C380.55,60.89,334.35,44.55,288,47.53l-0.01-0.02c-0.02,0.01-0.06,0.01-0.07,0.02
								c-24.46,1.56-48.93,8.5-71.73,21.29c-53.16,29.83-83.93,84.15-86.1,140.86l3.45-2.43l19.13-13.42l1.3,0.75l20.58,11.67
								c0.06-0.63,0.11-1.27,0.18-1.9c-0.02-0.01-0.01-0.02,0.01-0.05c0.08-0.92,0.18-1.86,0.29-2.8c0.07-0.57,0.14-1.14,0.21-1.7
								c0.12-0.93,0.25-1.86,0.4-2.79c0.18-1.21,0.37-2.4,0.62-3.6c-0.02-0.03-0.02-0.07,0.02-0.11c0.16-0.95,0.33-1.89,0.56-2.83
								c0.1-0.55,0.23-1.13,0.36-1.7c0.13-0.61,0.26-1.21,0.42-1.81c0.14-0.63,0.3-1.25,0.47-1.86c0.13-0.57,0.27-1.12,0.43-1.68
								c0.22-0.84,0.46-1.67,0.7-2.5c0.07-0.24,0.14-0.49,0.23-0.72c0.28-1,0.58-1.96,0.91-2.91c0.06-0.22,0.13-0.42,0.21-0.61
								c0.32-1.06,0.68-2.1,1.07-3.1c0.03-0.14,0.08-0.27,0.13-0.38c0.3-0.89,0.64-1.75,0.99-2.62c0.13-0.38,0.29-0.76,0.45-1.13
								c0.36-0.92,0.74-1.83,1.14-2.71c0.05-0.19,0.14-0.37,0.22-0.55c0.42-1,0.85-1.95,1.32-2.91c0.07-0.16,0.14-0.3,0.21-0.47
								c0.39-0.83,0.78-1.67,1.21-2.48c0.2-0.42,0.42-0.83,0.62-1.23c0.48-0.97,0.99-1.93,1.51-2.85c0.59-1.11,1.21-2.19,1.85-3.27
								c0.01-0.02,0.01-0.02,0.02-0.03c0.58-1.04,1.21-2.07,1.86-3.07c0.04-0.08,0.07-0.14,0.11-0.21c0.66-1.05,1.34-2.1,2.03-3.13
								c0.57-0.85,1.14-1.69,1.74-2.51c0.88-1.27,1.81-2.51,2.74-3.73c0.53-0.73,1.08-1.43,1.64-2.11c0.28-0.34,0.54-0.67,0.81-1.01
								c0.51-0.66,1.06-1.29,1.61-1.91l-0.01-0.02c0.23-0.28,0.45-0.54,0.7-0.8c0.82-0.97,1.68-1.93,2.55-2.86
								c0.49-0.54,0.99-1.09,1.51-1.61c0.49-0.54,1.01-1.06,1.52-1.57c0.79-0.79,1.59-1.59,2.4-2.37c0.61-0.59,1.25-1.17,1.88-1.75
								c2.58-2.37,5.28-4.64,8.1-6.8c0.67-0.56,1.38-1.08,2.09-1.6c1.21-0.91,2.44-1.78,3.69-2.62c0.9-0.63,1.81-1.22,2.73-1.82
								c0.32-0.2,0.61-0.41,0.92-0.58c1.91-1.23,3.86-2.39,5.85-3.51c18.32-10.28,38.12-15.43,57.75-15.92
								c44.75-1.13,88.61,21.93,112.04,63.67c9.3,16.57,14.41,34.37,15.63,52.16l-7.09-0.44l-3.63-0.26l30.35,30.58l2.15,2.15
								l32.01-25.5l3.57-2.84l-4.51-0.3l-8.45-0.54c-0.01-0.16-0.01-0.3-0.01-0.46C466.66,183.72,459.73,157.65,446.16,133.46z"/>
						</g>
					</g>
					<path class="st2" d="M288,47.53l-0.01-0.02c-0.02,0.01-0.06,0.01-0.07,0.02C287.97,47.52,288,47.53,288,47.53z"/>
				</g>
			</g>
		</g>
		<path class="st3" d="M255.74,249.68l3.5-6.49l39.88,44.45l40.16-43.93l3.22,5.97l20.5,37.97h22.88l-34.36-63.64h-22.88
			l-29.52,33.79l-29.52-33.79h-22.88l-34.36,63.64h22.88L255.74,249.68z M273.38,217.01l25.74-47.68l25.74,47.68h22.88l-5.24-9.72
			l-43.38-80.35l-43.38,80.35l-5.24,9.72H273.38z"/>
	</g>
	<g>
		<g>
			<path class="st1" d="M52.27,502.4l16.79-83.92h16.37l16.79,83.92H88.01l-3.32-19.38H70.09l-3.42,19.38H52.27z M71.64,473.28h11.4
				l-5.7-35.23L71.64,473.28z"/>
			<path class="st1" d="M110.6,502.4v-83.92h20.1c5.66,0,10.45,0.67,14.35,2.02c3.9,1.35,6.87,3.64,8.91,6.89
				c2.04,3.25,3.06,7.67,3.06,13.26c0,3.38-0.31,6.42-0.93,9.12c-0.62,2.69-1.68,4.99-3.16,6.89c-1.49,1.9-3.54,3.37-6.17,4.4
				l11.71,41.34h-15.33l-10.15-38.44h-7.05v38.44H110.6z M125.94,454.32h4.77c2.97,0,5.34-0.43,7.1-1.29
				c1.76-0.86,3.02-2.24,3.78-4.14c0.76-1.9,1.14-4.33,1.14-7.3c0-4.21-0.78-7.37-2.33-9.48c-1.55-2.11-4.51-3.16-8.86-3.16h-5.59
				V454.32z"/>
			<path class="st1" d="M178.46,502.4v-32.02l-16.99-51.91h14.3l10.36,33.26l9.74-33.26h13.99l-16.78,51.91v32.02H178.46z"/>
			<path class="st1" d="M208.62,502.4l16.79-83.92h16.37l16.79,83.92h-14.19l-3.32-19.38h-14.61l-3.42,19.38H208.62z M227.99,473.28
				h11.4l-5.7-35.23L227.99,473.28z"/>
			<path class="st0" d="M291.92,502.4l1.45-83.92h15.85l11.92,58.12l12.43-58.12h15.33l1.55,83.92h-11.4l-1.24-58.33L325.9,502.4
				h-9.22l-12.12-58.54l-1.14,58.54H291.92z"/>
			<path class="st0" d="M363.31,502.4v-83.92h15.13v83.92H363.31z"/>
			<path class="st0" d="M391.38,502.4v-83.92h10.67l20.41,47.87v-47.87h12.64v83.92h-10.15l-20.52-50.15v50.15H391.38z"/>
			<path class="st0" d="M447.85,502.4v-83.92h19.79c6.84,0,12.17,0.93,16.01,2.8c3.83,1.87,6.56,4.73,8.18,8.6
				c1.62,3.87,2.44,8.77,2.44,14.71v30.67c0,6.08-0.81,11.14-2.44,15.18c-1.62,4.04-4.32,7.05-8.08,9.01
				c-3.77,1.97-8.93,2.95-15.49,2.95H447.85z M463.19,491.73h4.66c3.52,0,6.04-0.62,7.56-1.87c1.52-1.24,2.45-3.06,2.8-5.44
				c0.34-2.38,0.52-5.3,0.52-8.75v-32.12c0-3.38-0.24-6.11-0.73-8.19c-0.48-2.07-1.49-3.59-3-4.56c-1.52-0.97-3.97-1.45-7.36-1.45
				h-4.46V491.73z"/>
			<path class="st0" d="M526.7,503.54c-5.04,0-9.26-0.98-12.64-2.95c-3.38-1.97-5.94-4.85-7.67-8.65c-1.73-3.8-2.69-8.46-2.9-13.99
				l13.16-2.59c0.14,3.25,0.53,6.11,1.19,8.6c0.66,2.49,1.66,4.4,3,5.75c1.35,1.35,3.12,2.02,5.34,2.02c2.49,0,4.25-0.74,5.28-2.23
				c1.04-1.48,1.55-3.37,1.55-5.65c0-3.66-0.83-6.67-2.49-9.01c-1.66-2.35-3.87-4.7-6.63-7.05l-10.57-9.33
				c-2.97-2.55-5.34-5.4-7.1-8.55c-1.76-3.14-2.64-7.03-2.64-11.66c0-6.63,1.93-11.74,5.8-15.33c3.87-3.59,9.15-5.39,15.85-5.39
				c3.94,0,7.22,0.61,9.84,1.81c2.62,1.21,4.71,2.89,6.27,5.03c1.55,2.14,2.71,4.58,3.47,7.3c0.76,2.73,1.24,5.61,1.45,8.65
				l-13.05,2.28c-0.14-2.62-0.43-4.97-0.88-7.05c-0.45-2.07-1.24-3.69-2.38-4.87c-1.14-1.17-2.82-1.76-5.03-1.76
				c-2.28,0-4.02,0.74-5.23,2.23c-1.21,1.49-1.81,3.33-1.81,5.54c0,2.83,0.59,5.16,1.76,6.99c1.17,1.83,2.87,3.71,5.08,5.65
				l10.46,9.22c3.45,2.9,6.41,6.3,8.86,10.21c2.45,3.9,3.68,8.62,3.68,14.14c0,4.01-0.88,7.56-2.64,10.67
				c-1.76,3.11-4.21,5.54-7.36,7.3C534.59,502.66,530.91,503.54,526.7,503.54z"/>
		</g>
		<g>
			<g>
				<g>
					<path class="st0" d="M142.4,526.34v2.53h-7.19v19.74h-3.01v-19.74h-7.23v-2.53H142.4z"/>
					<path class="st0" d="M145.14,548.61v-22.89h2.77v9.26c0.67-0.71,1.42-1.29,2.24-1.72s1.76-0.65,2.83-0.65
						c0.86,0,1.62,0.14,2.28,0.43s1.21,0.69,1.65,1.21c0.44,0.52,0.77,1.15,1,1.89c0.23,0.74,0.34,1.55,0.34,2.44v10.02h-2.77
						v-10.02c0-1.19-0.27-2.12-0.82-2.77c-0.54-0.66-1.38-0.99-2.49-0.99c-0.82,0-1.58,0.2-2.29,0.59c-0.71,0.39-1.37,0.93-1.97,1.6
						v11.59H145.14z"/>
					<path class="st0" d="M166.11,527.93c0,0.27-0.05,0.52-0.16,0.75c-0.11,0.23-0.25,0.44-0.44,0.62
						c-0.18,0.18-0.39,0.32-0.63,0.43s-0.49,0.16-0.76,0.16s-0.52-0.05-0.75-0.16c-0.23-0.1-0.44-0.25-0.62-0.43
						c-0.18-0.18-0.32-0.39-0.43-0.62c-0.1-0.23-0.16-0.48-0.16-0.75s0.05-0.53,0.16-0.77s0.25-0.46,0.43-0.64
						c0.18-0.18,0.39-0.32,0.62-0.43c0.23-0.1,0.48-0.16,0.75-0.16s0.52,0.05,0.76,0.16s0.45,0.25,0.63,0.43
						c0.18,0.18,0.33,0.39,0.44,0.64C166.06,527.4,166.11,527.66,166.11,527.93z M165.49,532.87v15.74h-2.77v-15.74H165.49z"/>
					<path class="st0" d="M170.37,548.61v-15.74h1.65c0.39,0,0.64,0.19,0.75,0.58l0.22,1.71c0.68-0.76,1.45-1.37,2.29-1.83
						c0.84-0.47,1.82-0.7,2.93-0.7c0.86,0,1.62,0.14,2.28,0.43s1.21,0.69,1.65,1.21c0.44,0.52,0.77,1.15,1,1.89
						c0.23,0.74,0.34,1.55,0.34,2.44v10.02h-2.77v-10.02c0-1.19-0.27-2.12-0.82-2.77c-0.54-0.66-1.38-0.99-2.49-0.99
						c-0.82,0-1.58,0.2-2.29,0.59c-0.71,0.39-1.37,0.93-1.97,1.6v11.59H170.37z"/>
					<path class="st0" d="M190.53,525.72v13.47h0.71c0.21,0,0.38-0.03,0.51-0.08c0.13-0.06,0.28-0.17,0.45-0.35l4.97-5.33
						c0.16-0.17,0.31-0.3,0.47-0.4c0.16-0.1,0.36-0.16,0.62-0.16h2.52l-5.8,6.17c-0.15,0.18-0.29,0.33-0.43,0.47
						c-0.14,0.13-0.3,0.25-0.47,0.36c0.19,0.12,0.35,0.27,0.5,0.43c0.15,0.16,0.29,0.34,0.43,0.55l6.15,7.77h-2.49
						c-0.23,0-0.42-0.04-0.58-0.13s-0.31-0.23-0.46-0.41l-5.17-6.45c-0.16-0.22-0.31-0.36-0.47-0.43c-0.16-0.07-0.39-0.1-0.7-0.1
						h-0.78v7.52h-2.78v-22.89H190.53z"/>
					<path class="st0" d="M203.13,546.7c0-0.24,0.04-0.46,0.13-0.68c0.09-0.21,0.21-0.4,0.37-0.56c0.16-0.16,0.35-0.29,0.58-0.38
						c0.23-0.09,0.48-0.14,0.75-0.14c0.31,0,0.59,0.06,0.83,0.17c0.24,0.11,0.45,0.27,0.61,0.47c0.16,0.2,0.28,0.44,0.36,0.7
						c0.08,0.26,0.12,0.55,0.12,0.86c0,0.47-0.07,0.95-0.2,1.45s-0.33,1-0.57,1.49c-0.25,0.49-0.56,0.97-0.92,1.44
						c-0.37,0.47-0.78,0.9-1.25,1.29l-0.47-0.45c-0.13-0.12-0.2-0.27-0.2-0.44c0-0.13,0.07-0.27,0.22-0.42
						c0.1-0.11,0.24-0.27,0.4-0.46s0.32-0.41,0.49-0.66c0.17-0.25,0.32-0.52,0.46-0.82c0.14-0.3,0.24-0.62,0.3-0.96h-0.2
						c-0.27,0-0.51-0.05-0.73-0.14c-0.22-0.09-0.41-0.23-0.57-0.4c-0.16-0.17-0.29-0.37-0.37-0.61
						C203.17,547.23,203.13,546.98,203.13,546.7z"/>
					<path class="st0" d="M232.12,526.34v2.53h-7.19v19.74h-3.01v-19.74h-7.23v-2.53H232.12z"/>
					<path class="st0" d="M232.37,548.61v-15.74h1.58c0.3,0,0.51,0.06,0.62,0.17c0.11,0.11,0.19,0.31,0.23,0.59l0.19,2.46
						c0.54-1.1,1.2-1.96,2-2.57s1.72-0.92,2.79-0.92c0.44,0,0.83,0.05,1.18,0.15s0.68,0.24,0.98,0.41l-0.36,2.07
						c-0.07,0.26-0.23,0.39-0.48,0.39c-0.15,0-0.37-0.05-0.67-0.15c-0.3-0.1-0.72-0.15-1.26-0.15c-0.96,0-1.77,0.28-2.42,0.84
						c-0.65,0.56-1.19,1.37-1.62,2.44v10.02H232.37z"/>
					<path class="st0" d="M255.87,548.61h-1.23c-0.27,0-0.49-0.04-0.65-0.12c-0.17-0.08-0.27-0.26-0.33-0.53l-0.31-1.46
						c-0.41,0.37-0.82,0.71-1.21,1c-0.39,0.3-0.81,0.54-1.24,0.75s-0.9,0.36-1.39,0.46c-0.49,0.1-1.04,0.16-1.64,0.16
						c-0.61,0-1.18-0.09-1.72-0.26c-0.53-0.17-1-0.43-1.39-0.77s-0.71-0.78-0.94-1.3c-0.23-0.53-0.35-1.15-0.35-1.86
						c0-0.62,0.17-1.22,0.51-1.8c0.34-0.58,0.89-1.09,1.65-1.54c0.76-0.45,1.76-0.81,2.99-1.1c1.23-0.29,2.74-0.43,4.52-0.43v-1.24
						c0-1.23-0.26-2.16-0.79-2.79c-0.52-0.63-1.3-0.95-2.32-0.95c-0.67,0-1.24,0.08-1.7,0.26s-0.86,0.36-1.2,0.58
						c-0.34,0.21-0.63,0.4-0.87,0.58c-0.24,0.17-0.48,0.26-0.72,0.26c-0.19,0-0.35-0.05-0.49-0.15c-0.14-0.1-0.25-0.22-0.33-0.37
						l-0.5-0.89c0.87-0.84,1.81-1.47,2.81-1.88c1-0.41,2.12-0.62,3.34-0.62c0.88,0,1.66,0.15,2.35,0.44
						c0.68,0.29,1.26,0.69,1.73,1.21c0.47,0.52,0.82,1.14,1.06,1.88c0.24,0.74,0.36,1.54,0.36,2.42V548.61z M248.69,546.92
						c0.49,0,0.93-0.05,1.34-0.15c0.4-0.1,0.78-0.24,1.14-0.42c0.36-0.18,0.7-0.4,1.03-0.66c0.33-0.26,0.65-0.55,0.96-0.89v-3.25
						c-1.27,0-2.36,0.08-3.25,0.24c-0.89,0.16-1.62,0.37-2.18,0.63c-0.56,0.26-0.97,0.57-1.22,0.92c-0.25,0.35-0.38,0.75-0.38,1.19
						c0,0.42,0.07,0.78,0.2,1.08c0.13,0.3,0.32,0.55,0.54,0.74c0.23,0.19,0.5,0.33,0.81,0.42
						C247.99,546.87,248.33,546.92,248.69,546.92z"/>
					<path class="st0" d="M260.06,548.61v-15.74h1.65c0.39,0,0.64,0.19,0.75,0.58l0.22,1.71c0.68-0.76,1.45-1.37,2.29-1.83
						c0.84-0.47,1.82-0.7,2.93-0.7c0.86,0,1.62,0.14,2.28,0.43s1.21,0.69,1.65,1.21c0.44,0.52,0.77,1.15,1,1.89
						c0.23,0.74,0.34,1.55,0.34,2.44v10.02h-2.77v-10.02c0-1.19-0.27-2.12-0.82-2.77c-0.54-0.66-1.38-0.99-2.49-0.99
						c-0.82,0-1.58,0.2-2.29,0.59c-0.71,0.39-1.37,0.93-1.97,1.6v11.59H260.06z"/>
					<path class="st0" d="M286.36,535.46c-0.12,0.23-0.32,0.34-0.58,0.34c-0.16,0-0.33-0.06-0.53-0.17
						c-0.2-0.11-0.44-0.24-0.72-0.38c-0.29-0.14-0.62-0.27-1.02-0.39c-0.39-0.12-0.86-0.18-1.4-0.18c-0.47,0-0.89,0.06-1.26,0.18
						s-0.69,0.28-0.96,0.49s-0.47,0.45-0.61,0.72c-0.14,0.27-0.21,0.57-0.21,0.89c0,0.4,0.12,0.74,0.35,1.01
						c0.23,0.27,0.54,0.5,0.92,0.7c0.38,0.2,0.82,0.37,1.31,0.52c0.49,0.15,0.99,0.31,1.5,0.48c0.51,0.17,1.01,0.36,1.5,0.57
						c0.49,0.21,0.92,0.47,1.31,0.78s0.69,0.69,0.92,1.14c0.23,0.45,0.35,0.99,0.35,1.62c0,0.73-0.13,1.4-0.39,2.01
						c-0.26,0.62-0.64,1.15-1.15,1.6c-0.51,0.45-1.13,0.81-1.86,1.06c-0.74,0.26-1.58,0.39-2.55,0.39c-1.1,0-2.09-0.18-2.98-0.54
						c-0.89-0.36-1.65-0.82-2.27-1.38l0.65-1.06c0.08-0.13,0.18-0.24,0.29-0.31c0.11-0.07,0.26-0.11,0.45-0.11s0.38,0.07,0.59,0.22
						c0.21,0.15,0.46,0.31,0.75,0.48s0.65,0.34,1.07,0.48c0.42,0.15,0.95,0.22,1.58,0.22c0.54,0,1.01-0.07,1.41-0.21
						c0.4-0.14,0.74-0.33,1.01-0.57c0.27-0.24,0.47-0.51,0.6-0.82s0.19-0.64,0.19-1c0-0.43-0.12-0.79-0.35-1.08
						c-0.23-0.29-0.54-0.53-0.92-0.73s-0.82-0.38-1.31-0.53s-0.99-0.31-1.51-0.47c-0.51-0.17-1.02-0.35-1.51-0.57
						c-0.49-0.21-0.93-0.48-1.31-0.8s-0.69-0.72-0.92-1.19c-0.23-0.47-0.35-1.04-0.35-1.72c0-0.6,0.12-1.18,0.37-1.73
						c0.25-0.55,0.61-1.04,1.09-1.46c0.48-0.42,1.06-0.75,1.76-1c0.69-0.25,1.49-0.37,2.38-0.37c1.04,0,1.97,0.16,2.79,0.49
						c0.82,0.33,1.54,0.78,2.14,1.34L286.36,535.46z"/>
					<path class="st0" d="M291.45,548.61v-13.38l-1.74-0.2c-0.22-0.05-0.4-0.13-0.54-0.24s-0.21-0.27-0.21-0.47v-1.13h2.49v-1.52
						c0-0.9,0.13-1.7,0.38-2.4s0.62-1.29,1.09-1.77c0.47-0.48,1.04-0.85,1.7-1.1c0.66-0.25,1.41-0.37,2.24-0.37
						c0.7,0,1.36,0.1,1.96,0.31l-0.06,1.38c-0.01,0.21-0.1,0.33-0.26,0.37c-0.17,0.04-0.4,0.06-0.7,0.06h-0.48
						c-0.48,0-0.91,0.06-1.3,0.19c-0.39,0.12-0.72,0.33-1,0.61s-0.49,0.65-0.65,1.1c-0.15,0.46-0.23,1.02-0.23,1.69v1.45h4.55v2
						h-4.46v13.43H291.45z"/>
					<path class="st0" d="M307.68,532.62c1.15,0,2.19,0.19,3.12,0.58c0.93,0.38,1.71,0.93,2.36,1.63c0.65,0.7,1.14,1.56,1.49,2.56
						c0.35,1,0.52,2.12,0.52,3.35c0,1.24-0.17,2.36-0.52,3.36c-0.35,0.99-0.84,1.84-1.49,2.55c-0.65,0.71-1.44,1.25-2.36,1.62
						s-1.97,0.57-3.12,0.57s-2.19-0.19-3.12-0.57c-0.93-0.38-1.72-0.92-2.37-1.62c-0.65-0.7-1.16-1.55-1.51-2.55
						c-0.35-1-0.53-2.11-0.53-3.36c0-1.23,0.18-2.35,0.53-3.35c0.35-1,0.85-1.85,1.51-2.56c0.65-0.7,1.44-1.25,2.37-1.63
						C305.49,532.81,306.53,532.62,307.68,532.62z M307.68,546.67c1.55,0,2.71-0.52,3.48-1.56s1.15-2.49,1.15-4.36
						c0-1.88-0.38-3.33-1.15-4.38c-0.77-1.05-1.93-1.57-3.48-1.57c-0.79,0-1.47,0.13-2.05,0.4c-0.58,0.27-1.06,0.66-1.45,1.17
						s-0.68,1.13-0.87,1.87c-0.19,0.74-0.29,1.58-0.29,2.51c0,0.93,0.1,1.77,0.29,2.5c0.19,0.74,0.48,1.35,0.87,1.86
						c0.39,0.5,0.87,0.89,1.45,1.16C306.21,546.53,306.89,546.67,307.68,546.67z"/>
					<path class="st0" d="M318.58,548.61v-15.74h1.58c0.3,0,0.51,0.06,0.62,0.17c0.11,0.11,0.19,0.31,0.23,0.59l0.19,2.46
						c0.54-1.1,1.2-1.96,2-2.57s1.72-0.92,2.79-0.92c0.44,0,0.83,0.05,1.18,0.15s0.68,0.24,0.98,0.41l-0.36,2.07
						c-0.07,0.26-0.23,0.39-0.48,0.39c-0.15,0-0.37-0.05-0.67-0.15c-0.3-0.1-0.72-0.15-1.26-0.15c-0.96,0-1.77,0.28-2.42,0.84
						c-0.65,0.56-1.19,1.37-1.62,2.44v10.02H318.58z"/>
					<path class="st0" d="M331.11,548.61v-15.74h1.65c0.39,0,0.64,0.19,0.75,0.58l0.2,1.62c0.58-0.71,1.23-1.3,1.95-1.76
						c0.72-0.46,1.56-0.68,2.51-0.68c1.07,0,1.93,0.3,2.59,0.89c0.66,0.59,1.13,1.39,1.42,2.39c0.22-0.57,0.51-1.06,0.86-1.48
						s0.76-0.76,1.2-1.03s0.92-0.47,1.42-0.59c0.5-0.12,1.01-0.19,1.53-0.19c0.83,0,1.57,0.13,2.21,0.4
						c0.65,0.26,1.2,0.65,1.65,1.16c0.45,0.51,0.79,1.13,1.03,1.87c0.24,0.74,0.36,1.59,0.36,2.54v10.02h-2.77v-10.02
						c0-1.23-0.27-2.17-0.81-2.81c-0.54-0.64-1.32-0.96-2.35-0.96c-0.46,0-0.89,0.08-1.3,0.24c-0.41,0.16-0.77,0.4-1.08,0.71
						c-0.31,0.31-0.56,0.7-0.74,1.17c-0.18,0.47-0.27,1.02-0.27,1.64v10.02h-2.77v-10.02c0-1.26-0.25-2.21-0.76-2.83
						c-0.51-0.62-1.25-0.93-2.22-0.93c-0.68,0-1.32,0.18-1.9,0.55c-0.59,0.37-1.12,0.87-1.61,1.5v11.73H331.11z"/>
					<path class="st0" d="M370.61,526.09c0.82,0,1.56,0.13,2.24,0.4c0.67,0.26,1.26,0.61,1.75,1.05c0.49,0.43,0.88,0.94,1.17,1.51
						c0.28,0.58,0.45,1.17,0.49,1.79l-1.73,0.34c-0.05,0.01-0.1,0.02-0.14,0.02c-0.13,0-0.26-0.04-0.38-0.11s-0.2-0.2-0.26-0.39
						c-0.07-0.27-0.19-0.55-0.35-0.84c-0.16-0.29-0.37-0.55-0.62-0.79c-0.25-0.24-0.56-0.43-0.92-0.59
						c-0.36-0.16-0.77-0.23-1.25-0.23c-0.52,0-0.98,0.08-1.4,0.25c-0.41,0.17-0.77,0.4-1.06,0.69c-0.3,0.29-0.52,0.64-0.68,1.04
						c-0.16,0.4-0.24,0.83-0.24,1.3c0,0.36,0.04,0.71,0.13,1.04c0.09,0.33,0.22,0.67,0.4,1s0.4,0.68,0.68,1.04s0.62,0.73,1.01,1.13
						l6.4,6.51c0.39-0.69,0.71-1.42,0.94-2.18c0.23-0.76,0.39-1.53,0.47-2.29c0.02-0.2,0.08-0.35,0.19-0.47s0.25-0.17,0.44-0.17
						h1.71c-0.02,1.19-0.21,2.36-0.58,3.51c-0.36,1.15-0.89,2.23-1.57,3.23l4.66,4.72h-2.67c-0.3,0-0.54-0.04-0.73-0.11
						s-0.39-0.22-0.62-0.45l-2.24-2.25c-0.97,0.94-2.1,1.69-3.36,2.24c-1.27,0.55-2.67,0.82-4.19,0.82c-0.83,0-1.64-0.14-2.44-0.42
						c-0.8-0.28-1.51-0.69-2.14-1.22c-0.63-0.53-1.13-1.18-1.52-1.95s-0.57-1.63-0.57-2.59c0-0.73,0.12-1.41,0.36-2.06
						c0.24-0.65,0.58-1.25,1.01-1.79c0.43-0.55,0.94-1.04,1.53-1.48c0.59-0.44,1.24-0.81,1.94-1.12c-0.63-0.8-1.1-1.57-1.4-2.33
						c-0.3-0.76-0.45-1.54-0.45-2.35c0-0.76,0.14-1.47,0.41-2.13c0.27-0.66,0.67-1.24,1.19-1.73c0.52-0.49,1.15-0.88,1.89-1.17
						S369.69,526.09,370.61,526.09z M364.44,542.46c0,0.67,0.12,1.27,0.37,1.78c0.25,0.51,0.57,0.95,0.98,1.3
						c0.4,0.35,0.86,0.62,1.38,0.8s1.05,0.27,1.58,0.27c1.16,0,2.2-0.21,3.12-0.64c0.92-0.42,1.73-0.99,2.44-1.69l-6.57-6.63
						c-1.1,0.59-1.92,1.3-2.48,2.12S364.44,541.48,364.44,542.46z"/>
					<path class="st0" d="M406.07,526.34v2.53h-7.19v19.74h-3.01v-19.74h-7.23v-2.53H406.07z"/>
					<path class="st0" d="M408.81,548.61v-22.89h2.77v9.26c0.67-0.71,1.42-1.29,2.24-1.72s1.76-0.65,2.83-0.65
						c0.86,0,1.62,0.14,2.28,0.43s1.21,0.69,1.65,1.21s0.77,1.15,1,1.89c0.23,0.74,0.34,1.55,0.34,2.44v10.02h-2.77v-10.02
						c0-1.19-0.27-2.12-0.82-2.77c-0.54-0.66-1.38-0.99-2.49-0.99c-0.82,0-1.58,0.2-2.29,0.59c-0.71,0.39-1.36,0.93-1.96,1.6v11.59
						H408.81z"/>
					<path class="st0" d="M426.08,548.61v-15.74h1.58c0.3,0,0.51,0.06,0.62,0.17c0.11,0.11,0.19,0.31,0.23,0.59l0.19,2.46
						c0.54-1.1,1.21-1.96,2-2.57c0.79-0.62,1.72-0.92,2.79-0.92c0.44,0,0.83,0.05,1.18,0.15c0.35,0.1,0.68,0.24,0.98,0.41
						l-0.36,2.07c-0.07,0.26-0.23,0.39-0.48,0.39c-0.15,0-0.37-0.05-0.67-0.15c-0.3-0.1-0.72-0.15-1.26-0.15
						c-0.96,0-1.77,0.28-2.42,0.84c-0.65,0.56-1.19,1.37-1.62,2.44v10.02H426.08z"/>
					<path class="st0" d="M442.31,527.93c0,0.27-0.05,0.52-0.16,0.75c-0.11,0.23-0.25,0.44-0.43,0.62
						c-0.18,0.18-0.39,0.32-0.63,0.43s-0.49,0.16-0.76,0.16c-0.27,0-0.52-0.05-0.75-0.16c-0.23-0.1-0.44-0.25-0.62-0.43
						c-0.18-0.18-0.32-0.39-0.43-0.62c-0.1-0.23-0.16-0.48-0.16-0.75s0.05-0.53,0.16-0.77s0.25-0.46,0.43-0.64
						c0.18-0.18,0.39-0.32,0.62-0.43c0.23-0.1,0.48-0.16,0.75-0.16c0.27,0,0.52,0.05,0.76,0.16s0.45,0.25,0.63,0.43
						c0.18,0.18,0.33,0.39,0.43,0.64C442.25,527.4,442.31,527.66,442.31,527.93z M441.69,532.87v15.74h-2.77v-15.74H441.69z"/>
					<path class="st0" d="M444.58,532.87h2.27c0.22,0,0.4,0.06,0.54,0.17c0.14,0.11,0.25,0.25,0.31,0.4l3.99,10.13
						c0.15,0.37,0.26,0.75,0.34,1.12s0.16,0.74,0.23,1.1c0.08-0.36,0.17-0.73,0.26-1.1c0.09-0.37,0.21-0.75,0.36-1.12l4.04-10.13
						c0.06-0.17,0.16-0.3,0.3-0.41s0.31-0.16,0.52-0.16h2.16l-6.42,15.74h-2.5L444.58,532.87z"/>
					<path class="st0" d="M468.31,532.62c0.94,0,1.81,0.16,2.61,0.47c0.8,0.32,1.49,0.77,2.07,1.37c0.58,0.6,1.03,1.33,1.36,2.21
						c0.33,0.88,0.49,1.87,0.49,2.99c0,0.43-0.05,0.72-0.14,0.87c-0.09,0.14-0.27,0.22-0.53,0.22h-10.47c0.02,1,0.16,1.86,0.4,2.6
						c0.25,0.74,0.59,1.35,1.03,1.84c0.44,0.49,0.95,0.86,1.55,1.1s1.27,0.37,2.02,0.37c0.69,0,1.29-0.08,1.79-0.24
						c0.5-0.16,0.93-0.33,1.3-0.52c0.36-0.19,0.67-0.36,0.91-0.52c0.24-0.16,0.45-0.24,0.63-0.24c0.23,0,0.4,0.09,0.53,0.26
						l0.78,1.01c-0.34,0.42-0.75,0.78-1.23,1.08c-0.48,0.31-0.99,0.56-1.53,0.75c-0.54,0.2-1.11,0.34-1.69,0.44
						c-0.58,0.1-1.16,0.15-1.72,0.15c-1.09,0-2.09-0.18-3.01-0.55c-0.92-0.37-1.71-0.91-2.38-1.62c-0.67-0.71-1.19-1.59-1.56-2.63
						s-0.56-2.25-0.56-3.61c0-1.1,0.17-2.12,0.5-3.08c0.34-0.95,0.82-1.78,1.45-2.48s1.4-1.25,2.32-1.65
						C466.14,532.82,467.17,532.62,468.31,532.62z M468.37,534.66c-1.34,0-2.39,0.39-3.16,1.16c-0.77,0.77-1.24,1.84-1.43,3.21h8.56
						c0-0.64-0.09-1.23-0.26-1.76c-0.18-0.53-0.44-0.99-0.78-1.38s-0.76-0.69-1.25-0.9C469.56,534.76,469,534.66,468.37,534.66z"/>
				</g>
			</g>
		</g>
	</g>
</g>
</svg>
