<?xml version="1.0" encoding="utf-8"?>
<!-- Generator: Adobe Illustrator 28.0.0, SVG Export Plug-In . SVG Version: 6.00 Build 0)  -->
<svg version="1.1" id="Layer_1" xmlns="http://www.w3.org/2000/svg" xmlns:xlink="http://www.w3.org/1999/xlink" x="0px" y="0px"
	 viewBox="0 0 500 500" style="enable-background:new 0 0 500 500;" xml:space="preserve">
<style type="text/css">
	.st0{fill:#FFFFFF;}
	.st1{opacity:0.2;fill:#FFFFFF;}
	.st2{fill-rule:evenodd;clip-rule:evenodd;fill:#FFFFFF;}
</style>
<g>
	<g>
		<g>
			<g>
				<g>
					<path class="st0" d="M443.26,287.75l-4.68,1.81l-25.97,10.06l-0.89-0.85l-19.79-18.95c-0.22,1.06-0.45,2.11-0.68,3.15
						c-0.28,1.21-0.59,2.42-0.9,3.63c-0.26,1.04-0.54,2.08-0.85,3.12c-0.05,0.22-0.11,0.45-0.17,0.67
						c-0.33,1.12-0.67,2.28-1.04,3.42c-0.3,0.96-0.6,1.92-0.93,2.88c-0.14,0.39-0.26,0.77-0.39,1.15c-0.36,1.02-0.73,2.04-1.1,3.05
						c-0.39,1.06-0.78,2.12-1.21,3.16c-0.08,0.24-0.16,0.45-0.26,0.65c-0.34,0.89-0.71,1.77-1.08,2.65
						c-0.41,0.95-0.83,1.91-1.26,2.85c-0.34,0.77-0.69,1.52-1.04,2.26c-0.73,1.57-1.48,3.11-2.28,4.64
						c-0.58,1.12-1.18,2.22-1.78,3.33c-0.42,0.79-0.87,1.57-1.32,2.35c-1.14,2.04-2.37,4.05-3.65,6.01
						c-0.45,0.73-0.91,1.47-1.4,2.18c-1.39,2.1-2.84,4.19-4.35,6.22c-11.92,16.11-27.34,30.03-45.95,40.48
						c-70.5,39.56-159.73,14.44-199.28-56.03c-3.1-5.52-5.82-11.18-8.11-16.94c-3.58-8.81-6.18-17.83-7.93-26.95l12.2-1.61
						l-13.96-9.57l-24.75-16.91l-3.39-2.31l-23.51,24.85L38,286.56l6.36-0.83l8.99-1.2c0.08,0.39,0.13,0.79,0.22,1.2
						c3.8,20.95,11.14,41.69,22.15,61.33c7.44,13.26,16.18,25.32,25.97,36.13c0.04,0.03,0.05,0.04,0.04,0.07
						c58.28,64.35,153.72,84.22,234,44.86c0,0,0.02-0.01,0.07-0.04c3.32-1.62,6.61-3.35,9.86-5.17
						C398.55,393.23,432.52,342.94,443.26,287.75z"/>
					<g>
						<path class="st0" d="M421.58,152.97c-10.02-17.86-22.4-33.57-36.51-46.95c0,0-0.05-0.04-0.12-0.13
							c-0.06-0.06-0.12-0.13-0.2-0.18c-40.19-37.94-94.42-57.12-148.84-53.63l-0.01-0.02c-0.02,0.01-0.06,0.01-0.08,0.02
							c-28.71,1.83-57.44,9.97-84.21,24.99c-62.4,35.02-98.53,98.78-101.07,165.37l4.05-2.85l22.46-15.75l1.52,0.88l24.16,13.71
							c0.07-0.74,0.13-1.49,0.21-2.23c-0.03-0.01-0.01-0.02,0.02-0.06c0.09-1.08,0.21-2.19,0.34-3.29c0.08-0.67,0.16-1.34,0.25-1.99
							c0.14-1.09,0.29-2.18,0.47-3.27c0.21-1.42,0.44-2.82,0.73-4.23c-0.02-0.04-0.02-0.08,0.02-0.13c0.19-1.12,0.39-2.22,0.66-3.33
							c0.12-0.64,0.27-1.33,0.42-1.99c0.15-0.71,0.31-1.42,0.49-2.13c0.16-0.74,0.35-1.47,0.55-2.19c0.16-0.66,0.32-1.31,0.51-1.97
							c0.26-0.99,0.54-1.96,0.83-2.94c0.08-0.29,0.16-0.57,0.27-0.85c0.33-1.17,0.68-2.3,1.07-3.41c0.07-0.26,0.15-0.5,0.25-0.72
							c0.38-1.25,0.8-2.47,1.25-3.64c0.03-0.16,0.09-0.31,0.16-0.45c0.35-1.04,0.75-2.05,1.16-3.08c0.16-0.45,0.34-0.89,0.53-1.33
							c0.43-1.08,0.86-2.14,1.34-3.18c0.06-0.23,0.17-0.43,0.26-0.65c0.5-1.17,1-2.29,1.55-3.42c0.08-0.19,0.16-0.36,0.25-0.55
							c0.46-0.98,0.92-1.96,1.42-2.91c0.23-0.49,0.49-0.97,0.73-1.44c0.57-1.13,1.16-2.26,1.77-3.35c0.69-1.3,1.42-2.57,2.17-3.84
							c0.01-0.03,0.01-0.03,0.03-0.04c0.68-1.22,1.42-2.43,2.18-3.61c0.04-0.1,0.08-0.16,0.13-0.24c0.78-1.23,1.57-2.47,2.39-3.67
							c0.67-1,1.34-1.98,2.05-2.95c1.04-1.5,2.12-2.95,3.22-4.38c0.63-0.86,1.27-1.68,1.93-2.48c0.33-0.4,0.64-0.79,0.95-1.18
							c0.6-0.77,1.24-1.51,1.89-2.24l-0.01-0.02c0.28-0.32,0.53-0.64,0.82-0.94c0.97-1.14,1.98-2.26,2.99-3.36
							c0.58-0.64,1.16-1.28,1.78-1.89c0.58-0.64,1.18-1.24,1.78-1.84c0.92-0.93,1.86-1.86,2.81-2.78c0.72-0.69,1.46-1.37,2.21-2.06
							c3.03-2.78,6.2-5.45,9.51-7.98c0.79-0.66,1.62-1.27,2.45-1.88c1.42-1.06,2.87-2.09,4.33-3.08c1.05-0.74,2.13-1.43,3.2-2.13
							c0.37-0.23,0.72-0.48,1.08-0.68c2.24-1.45,4.53-2.81,6.87-4.12c21.5-12.07,44.75-18.11,67.79-18.69
							c52.53-1.33,104.03,25.74,131.53,74.74c10.92,19.45,16.92,40.34,18.35,61.23l-8.32-0.52l-4.26-0.3l35.63,35.9l2.52,2.53
							l37.58-29.94l4.19-3.34l-5.29-0.35l-9.92-0.63c-0.01-0.19-0.01-0.36-0.02-0.54C445.65,211.97,437.51,181.37,421.58,152.97z"/>
					</g>
				</g>
				<path class="st1" d="M235.91,52.09l-0.01-0.02c-0.02,0.01-0.06,0.01-0.08,0.02C235.88,52.08,235.91,52.09,235.91,52.09z"/>
			</g>
		</g>
	</g>
	<path class="st2" d="M198.04,289.41l4.11-7.61l46.82,52.18l47.14-51.57l3.78,7l24.06,44.57h26.86l-40.34-74.71h-26.86l-34.66,39.67
		l-34.66-39.67h-26.86l-40.33,74.71h26.86L198.04,289.41z M218.75,251.06l30.22-55.97l30.22,55.97h26.86l-6.16-11.41l-50.93-94.32
		l-50.93,94.32l-6.16,11.41H218.75z"/>
</g>
</svg>
