<?xml version="1.0" encoding="utf-8"?>
<!-- Generator: Adobe Illustrator 28.0.0, SVG Export Plug-In . SVG Version: 6.00 Build 0)  -->
<svg version="1.1" id="Layer_1" xmlns="http://www.w3.org/2000/svg" xmlns:xlink="http://www.w3.org/1999/xlink" x="0px" y="0px"
	 viewBox="0 0 720 243" style="enable-background:new 0 0 720 243;" xml:space="preserve">
<style type="text/css">
	.st0{fill:none;}
	.st1{fill:#00B9FD;}
	.st2{font-family:'Oswald-Medium';}
	.st3{font-size:103.611px;}
	.st4{fill:#1A1A1A;}
	.st5{font-family:'Lato-Regular';}
	.st6{font-size:31.0787px;}
	.st7{opacity:0.2;fill:#FFFFFF;}
	.st8{fill-rule:evenodd;clip-rule:evenodd;fill:#1A1A1A;}
</style>
<g>
	<g>
		<rect x="20.13" y="56.2" class="st0" width="502.57" height="85.1"/>
		<text transform="matrix(1 0 0 1 163.0386 140.126)" class="st1 st2 st3">Arya </text>
		<g>
			<rect x="95.27" y="163.43" class="st0" width="352.28" height="23.58"/>
			<text transform="matrix(1 0 0 1 141.04 186.3379)" class="st4 st5 st6">Think, Transform &amp; </text>
		</g>
	</g>
	<g>
		<g>
			<g>
				<g>
					<g>
						<path class="st4" d="M693.07,135.2l-1.7,0.66l-9.43,3.65l-0.32-0.31l-7.19-6.88c-0.08,0.39-0.16,0.76-0.25,1.14
							c-0.1,0.44-0.21,0.88-0.33,1.32c-0.09,0.38-0.2,0.76-0.31,1.13c-0.02,0.08-0.04,0.16-0.06,0.24
							c-0.12,0.41-0.24,0.83-0.38,1.24c-0.11,0.35-0.22,0.7-0.34,1.05c-0.05,0.14-0.1,0.28-0.14,0.42c-0.13,0.37-0.26,0.74-0.4,1.11
							c-0.14,0.39-0.28,0.77-0.44,1.15c-0.03,0.09-0.06,0.16-0.09,0.24c-0.12,0.32-0.26,0.64-0.39,0.96
							c-0.15,0.34-0.3,0.69-0.46,1.03c-0.12,0.28-0.25,0.55-0.38,0.82c-0.27,0.57-0.54,1.13-0.83,1.69
							c-0.21,0.41-0.43,0.81-0.65,1.21c-0.15,0.29-0.32,0.57-0.48,0.85c-0.41,0.74-0.86,1.47-1.32,2.18
							c-0.16,0.27-0.33,0.53-0.51,0.79c-0.51,0.76-1.03,1.52-1.58,2.26c-4.33,5.85-9.92,10.9-16.68,14.7
							c-25.6,14.36-57.99,5.24-72.35-20.34c-1.12-2-2.11-4.06-2.95-6.15c-1.3-3.2-2.25-6.47-2.88-9.78l4.43-0.58l-5.07-3.48
							l-8.99-6.14l-1.23-0.84l-8.54,9.02l-4.92,5.21l2.31-0.3l3.26-0.44c0.03,0.14,0.05,0.29,0.08,0.44
							c1.38,7.61,4.04,15.14,8.04,22.27c2.7,4.81,5.88,9.19,9.43,13.12c0.01,0.01,0.02,0.02,0.01,0.03
							c21.16,23.36,55.81,30.58,84.96,16.29c0,0,0.01,0,0.03-0.01c1.21-0.59,2.4-1.22,3.58-1.88
							C676.84,173.5,689.17,155.24,693.07,135.2z"/>
						<g>
							<path class="st1" d="M685.2,86.27c-3.64-6.49-8.13-12.19-13.26-17.04c0,0-0.02-0.02-0.04-0.05
								c-0.02-0.02-0.04-0.05-0.07-0.06c-14.59-13.77-34.28-20.74-54.04-19.47l0-0.01c-0.01,0-0.02,0-0.03,0.01
								c-10.42,0.67-20.85,3.62-30.57,9.07c-22.66,12.71-35.77,35.86-36.7,60.04l1.47-1.03l8.15-5.72l0.55,0.32l8.77,4.98
								c0.02-0.27,0.05-0.54,0.08-0.81c-0.01,0,0-0.01,0.01-0.02c0.03-0.39,0.08-0.79,0.12-1.2c0.03-0.24,0.06-0.49,0.09-0.72
								c0.05-0.39,0.11-0.79,0.17-1.19c0.08-0.51,0.16-1.02,0.26-1.54c-0.01-0.01-0.01-0.03,0.01-0.05c0.07-0.41,0.14-0.8,0.24-1.21
								c0.04-0.23,0.1-0.48,0.15-0.72c0.06-0.26,0.11-0.52,0.18-0.77c0.06-0.27,0.13-0.53,0.2-0.79c0.06-0.24,0.12-0.48,0.18-0.71
								c0.1-0.36,0.19-0.71,0.3-1.07c0.03-0.1,0.06-0.21,0.1-0.31c0.12-0.42,0.25-0.84,0.39-1.24c0.03-0.09,0.06-0.18,0.09-0.26
								c0.14-0.45,0.29-0.9,0.45-1.32c0.01-0.06,0.03-0.11,0.06-0.16c0.13-0.38,0.27-0.75,0.42-1.12c0.06-0.16,0.12-0.32,0.19-0.48
								c0.16-0.39,0.31-0.78,0.49-1.15c0.02-0.08,0.06-0.16,0.09-0.24c0.18-0.42,0.36-0.83,0.56-1.24c0.03-0.07,0.06-0.13,0.09-0.2
								c0.17-0.36,0.33-0.71,0.52-1.06c0.08-0.18,0.18-0.35,0.26-0.52c0.21-0.41,0.42-0.82,0.64-1.22c0.25-0.47,0.51-0.93,0.79-1.39
								c0-0.01,0-0.01,0.01-0.01c0.25-0.44,0.52-0.88,0.79-1.31c0.02-0.03,0.03-0.06,0.05-0.09c0.28-0.45,0.57-0.9,0.87-1.33
								c0.24-0.36,0.49-0.72,0.74-1.07c0.38-0.54,0.77-1.07,1.17-1.59c0.23-0.31,0.46-0.61,0.7-0.9c0.12-0.15,0.23-0.29,0.34-0.43
								c0.22-0.28,0.45-0.55,0.69-0.81l0-0.01c0.1-0.12,0.19-0.23,0.3-0.34c0.35-0.42,0.72-0.82,1.09-1.22
								c0.21-0.23,0.42-0.46,0.65-0.69c0.21-0.23,0.43-0.45,0.65-0.67c0.33-0.34,0.68-0.68,1.02-1.01c0.26-0.25,0.53-0.5,0.8-0.75
								c1.1-1.01,2.25-1.98,3.45-2.9c0.29-0.24,0.59-0.46,0.89-0.68c0.52-0.39,1.04-0.76,1.57-1.12c0.38-0.27,0.77-0.52,1.16-0.77
								c0.14-0.08,0.26-0.17,0.39-0.25c0.81-0.53,1.65-1.02,2.49-1.5c7.81-4.38,16.25-6.58,24.61-6.79
								c19.07-0.48,37.77,9.35,47.75,27.14c3.96,7.06,6.14,14.65,6.66,22.23l-3.02-0.19l-1.55-0.11l12.94,13.03l0.92,0.92
								l13.64-10.87l1.52-1.21l-1.92-0.13l-3.6-0.23c0-0.07,0-0.13-0.01-0.2C693.93,107.69,690.98,96.58,685.2,86.27z"/>
						</g>
					</g>
					<path class="st7" d="M617.79,49.65L617.79,49.65c-0.01,0-0.03,0-0.03,0C617.78,49.64,617.79,49.65,617.79,49.65z"/>
				</g>
			</g>
		</g>
		<path class="st8" d="M604.04,135.81l1.49-2.76l17,18.95l17.12-18.72l1.37,2.54l8.74,16.18h9.75l-14.65-27.12h-9.75l-12.58,14.4
			l-12.58-14.4h-9.75l-14.64,27.12h9.75L604.04,135.81z M611.55,121.89l10.97-20.32l10.97,20.32h9.75l-2.24-4.14L622.53,83.5
			l-18.49,34.24l-2.24,4.14H611.55z"/>
	</g>
</g>
</svg>
