<?xml version="1.0" encoding="utf-8"?>
<!-- Generator: Adobe Illustrator 28.0.0, SVG Export Plug-In . SVG Version: 6.00 Build 0)  -->
<svg version="1.1" id="Layer_1" xmlns="http://www.w3.org/2000/svg" xmlns:xlink="http://www.w3.org/1999/xlink" x="0px" y="0px"
	 viewBox="0 0 720 198" style="enable-background:new 0 0 720 198;" xml:space="preserve">
<style type="text/css">
	.st0{fill:#FFFFFF;}
	.st1{fill:#1A1A1A;}
	.st2{opacity:0.2;fill:#FFFFFF;}
	.st3{fill-rule:evenodd;clip-rule:evenodd;fill:#1A1A1A;}
</style>
<g>
	<g>
		<g>
			<path class="st0" d="M23.37,117.63L40.16,33.7h16.37l16.79,83.92H59.12L55.8,98.25H41.19l-3.42,19.38H23.37z M42.75,88.51h11.4
				l-5.7-35.23L42.75,88.51z"/>
			<path class="st0" d="M81.7,117.63V33.7h20.1c5.66,0,10.45,0.67,14.35,2.02c3.9,1.35,6.87,3.64,8.91,6.89
				c2.04,3.25,3.06,7.67,3.06,13.26c0,3.38-0.31,6.42-0.93,9.12c-0.62,2.69-1.68,4.99-3.16,6.89c-1.49,1.9-3.54,3.37-6.17,4.4
				l11.71,41.34h-15.33l-10.15-38.44h-7.05v38.44H81.7z M97.04,69.55h4.77c2.97,0,5.34-0.43,7.1-1.29c1.76-0.86,3.02-2.24,3.78-4.14
				c0.76-1.9,1.14-4.33,1.14-7.3c0-4.21-0.78-7.37-2.33-9.48c-1.55-2.11-4.51-3.16-8.86-3.16h-5.59V69.55z"/>
			<path class="st0" d="M149.57,117.63V85.61L132.58,33.7h14.3l10.36,33.26l9.74-33.26h13.99l-16.78,51.91v32.02H149.57z"/>
			<path class="st0" d="M179.72,117.63L196.5,33.7h16.37l16.79,83.92h-14.19l-3.32-19.38h-14.61l-3.42,19.38H179.72z M199.09,88.51
				h11.4l-5.7-35.23L199.09,88.51z"/>
			<path class="st1" d="M263.02,117.63l1.45-83.92h15.85l11.92,58.13l12.43-58.13h15.33l1.55,83.92h-11.4l-1.24-58.33l-11.92,58.33
				h-9.22l-12.12-58.54l-1.14,58.54H263.02z"/>
			<path class="st1" d="M334.41,117.63V33.7h15.13v83.92H334.41z"/>
			<path class="st1" d="M362.49,117.63V33.7h10.67l20.41,47.87V33.7h12.64v83.92h-10.15l-20.52-50.15v50.15H362.49z"/>
			<path class="st1" d="M418.95,117.63V33.7h19.79c6.84,0,12.17,0.93,16.01,2.8c3.83,1.87,6.56,4.73,8.18,8.6
				c1.62,3.87,2.44,8.77,2.44,14.71v30.67c0,6.08-0.81,11.14-2.44,15.18c-1.62,4.04-4.32,7.05-8.08,9.01
				c-3.77,1.97-8.93,2.95-15.49,2.95H418.95z M434.29,106.95h4.66c3.52,0,6.04-0.62,7.56-1.87c1.52-1.24,2.45-3.06,2.8-5.44
				c0.34-2.38,0.52-5.3,0.52-8.75V58.77c0-3.38-0.24-6.11-0.73-8.19c-0.48-2.07-1.49-3.59-3-4.56c-1.52-0.97-3.97-1.45-7.36-1.45
				h-4.46V106.95z"/>
			<path class="st1" d="M497.8,118.77c-5.04,0-9.26-0.98-12.64-2.95c-3.38-1.97-5.94-4.85-7.67-8.65c-1.73-3.8-2.69-8.46-2.9-13.99
				l13.16-2.59c0.14,3.25,0.53,6.11,1.19,8.6c0.66,2.49,1.66,4.4,3,5.75c1.35,1.35,3.12,2.02,5.34,2.02c2.49,0,4.25-0.74,5.28-2.23
				c1.04-1.48,1.55-3.37,1.55-5.65c0-3.66-0.83-6.67-2.49-9.01c-1.66-2.35-3.87-4.7-6.63-7.05l-10.57-9.33
				c-2.97-2.55-5.34-5.4-7.1-8.55c-1.76-3.14-2.64-7.03-2.64-11.66c0-6.63,1.93-11.74,5.8-15.33c3.87-3.59,9.15-5.39,15.85-5.39
				c3.94,0,7.22,0.61,9.84,1.81c2.62,1.21,4.71,2.89,6.27,5.03c1.55,2.14,2.71,4.58,3.47,7.3c0.76,2.73,1.24,5.61,1.45,8.65
				l-13.05,2.28c-0.14-2.62-0.43-4.97-0.88-7.05c-0.45-2.07-1.24-3.69-2.38-4.87c-1.14-1.17-2.82-1.76-5.03-1.76
				c-2.28,0-4.02,0.74-5.23,2.23c-1.21,1.49-1.81,3.33-1.81,5.54c0,2.83,0.59,5.16,1.76,6.99c1.17,1.83,2.87,3.71,5.08,5.65
				l10.46,9.22c3.45,2.9,6.41,6.3,8.86,10.21c2.45,3.9,3.68,8.62,3.68,14.14c0,4.01-0.88,7.56-2.64,10.67
				c-1.76,3.11-4.21,5.54-7.36,7.3C505.69,117.88,502.01,118.77,497.8,118.77z"/>
		</g>
		<g>
			<g>
				<path class="st1" d="M113.5,141.57v2.53h-7.19v19.74h-3.01V144.1h-7.23v-2.53H113.5z"/>
				<path class="st1" d="M116.24,163.84v-22.89H119v9.26c0.67-0.71,1.42-1.29,2.24-1.72s1.76-0.65,2.83-0.65
					c0.86,0,1.62,0.14,2.28,0.43s1.21,0.69,1.65,1.21c0.44,0.52,0.77,1.15,1,1.89c0.23,0.74,0.34,1.55,0.34,2.44v10.02h-2.77v-10.02
					c0-1.19-0.27-2.12-0.82-2.77c-0.54-0.66-1.38-0.99-2.49-0.99c-0.82,0-1.58,0.2-2.29,0.59c-0.71,0.39-1.37,0.93-1.97,1.6v11.59
					H116.24z"/>
				<path class="st1" d="M137.22,143.16c0,0.27-0.05,0.52-0.16,0.75c-0.11,0.23-0.25,0.44-0.44,0.62c-0.18,0.18-0.39,0.32-0.63,0.43
					s-0.49,0.16-0.76,0.16s-0.52-0.05-0.75-0.16c-0.23-0.1-0.44-0.25-0.62-0.43c-0.18-0.18-0.32-0.39-0.43-0.62
					c-0.1-0.23-0.16-0.48-0.16-0.75s0.05-0.53,0.16-0.77s0.25-0.46,0.43-0.64c0.18-0.18,0.39-0.32,0.62-0.43
					c0.23-0.1,0.48-0.16,0.75-0.16s0.52,0.05,0.76,0.16s0.45,0.25,0.63,0.43c0.18,0.18,0.33,0.39,0.44,0.64
					C137.16,142.63,137.22,142.89,137.22,143.16z M136.6,148.1v15.74h-2.77V148.1H136.6z"/>
				<path class="st1" d="M141.47,163.84V148.1h1.65c0.39,0,0.64,0.19,0.75,0.58l0.22,1.71c0.68-0.76,1.45-1.37,2.29-1.83
					c0.84-0.47,1.82-0.7,2.93-0.7c0.86,0,1.62,0.14,2.28,0.43s1.21,0.69,1.65,1.21c0.44,0.52,0.77,1.15,1,1.89
					c0.23,0.74,0.34,1.55,0.34,2.44v10.02h-2.77v-10.02c0-1.19-0.27-2.12-0.82-2.77c-0.54-0.66-1.38-0.99-2.49-0.99
					c-0.82,0-1.58,0.2-2.29,0.59c-0.71,0.39-1.37,0.93-1.97,1.6v11.59H141.47z"/>
				<path class="st1" d="M161.63,140.95v13.47h0.71c0.21,0,0.38-0.03,0.51-0.08c0.13-0.06,0.28-0.17,0.45-0.35l4.97-5.33
					c0.16-0.17,0.31-0.3,0.47-0.4c0.16-0.1,0.36-0.16,0.62-0.16h2.52l-5.8,6.17c-0.15,0.18-0.29,0.33-0.43,0.47
					c-0.14,0.13-0.3,0.25-0.47,0.36c0.19,0.12,0.35,0.27,0.5,0.43c0.15,0.16,0.29,0.34,0.43,0.55l6.15,7.77h-2.49
					c-0.23,0-0.42-0.04-0.58-0.13s-0.31-0.23-0.46-0.41l-5.17-6.45c-0.16-0.22-0.31-0.36-0.47-0.43c-0.16-0.07-0.39-0.1-0.7-0.1
					h-0.78v7.52h-2.78v-22.89H161.63z"/>
				<path class="st1" d="M174.23,161.93c0-0.24,0.04-0.46,0.13-0.68c0.09-0.21,0.21-0.4,0.37-0.56c0.16-0.16,0.35-0.29,0.58-0.38
					c0.23-0.09,0.48-0.14,0.75-0.14c0.31,0,0.59,0.06,0.83,0.17c0.24,0.11,0.45,0.27,0.61,0.47c0.16,0.2,0.28,0.44,0.36,0.7
					c0.08,0.26,0.12,0.55,0.12,0.86c0,0.47-0.07,0.95-0.2,1.45s-0.33,1-0.57,1.49c-0.25,0.49-0.56,0.97-0.92,1.44
					c-0.37,0.47-0.78,0.9-1.25,1.29l-0.47-0.45c-0.13-0.12-0.2-0.27-0.2-0.44c0-0.13,0.07-0.27,0.22-0.42
					c0.1-0.11,0.24-0.27,0.4-0.46s0.32-0.41,0.49-0.66c0.17-0.25,0.32-0.52,0.46-0.82c0.14-0.3,0.24-0.62,0.3-0.96h-0.2
					c-0.27,0-0.51-0.05-0.73-0.14c-0.22-0.09-0.41-0.23-0.57-0.4c-0.16-0.17-0.29-0.37-0.37-0.61
					C174.28,162.46,174.23,162.21,174.23,161.93z"/>
				<path class="st1" d="M203.23,141.57v2.53h-7.19v19.74h-3.01V144.1h-7.23v-2.53H203.23z"/>
				<path class="st1" d="M203.48,163.84V148.1h1.58c0.3,0,0.51,0.06,0.62,0.17c0.11,0.11,0.19,0.31,0.23,0.59l0.19,2.46
					c0.54-1.1,1.2-1.96,2-2.57s1.72-0.92,2.79-0.92c0.44,0,0.83,0.05,1.18,0.15s0.68,0.24,0.98,0.41l-0.36,2.07
					c-0.07,0.26-0.23,0.39-0.48,0.39c-0.15,0-0.37-0.05-0.67-0.15c-0.3-0.1-0.72-0.15-1.26-0.15c-0.96,0-1.77,0.28-2.42,0.84
					c-0.65,0.56-1.19,1.37-1.62,2.44v10.02H203.48z"/>
				<path class="st1" d="M226.97,163.84h-1.23c-0.27,0-0.49-0.04-0.65-0.12c-0.17-0.08-0.27-0.26-0.33-0.53l-0.31-1.46
					c-0.41,0.37-0.82,0.71-1.21,1c-0.39,0.3-0.81,0.54-1.24,0.75s-0.9,0.36-1.39,0.46c-0.49,0.1-1.04,0.16-1.64,0.16
					c-0.61,0-1.18-0.09-1.72-0.26c-0.53-0.17-1-0.43-1.39-0.77s-0.71-0.78-0.94-1.3c-0.23-0.53-0.35-1.15-0.35-1.86
					c0-0.62,0.17-1.22,0.51-1.8c0.34-0.58,0.89-1.09,1.65-1.54c0.76-0.45,1.76-0.81,2.99-1.1c1.23-0.29,2.74-0.43,4.52-0.43v-1.24
					c0-1.23-0.26-2.16-0.79-2.79c-0.52-0.63-1.3-0.95-2.32-0.95c-0.67,0-1.24,0.08-1.7,0.26s-0.86,0.36-1.2,0.58
					c-0.34,0.21-0.63,0.4-0.87,0.58c-0.24,0.17-0.48,0.26-0.72,0.26c-0.19,0-0.35-0.05-0.49-0.15c-0.14-0.1-0.25-0.22-0.33-0.37
					l-0.5-0.89c0.87-0.84,1.81-1.47,2.81-1.88c1-0.41,2.12-0.62,3.34-0.62c0.88,0,1.66,0.15,2.35,0.44
					c0.68,0.29,1.26,0.69,1.73,1.21c0.47,0.52,0.82,1.14,1.06,1.88c0.24,0.74,0.36,1.54,0.36,2.42V163.84z M219.79,162.14
					c0.49,0,0.93-0.05,1.34-0.15c0.4-0.1,0.78-0.24,1.14-0.42c0.36-0.18,0.7-0.4,1.03-0.66c0.33-0.26,0.65-0.55,0.96-0.89v-3.25
					c-1.27,0-2.36,0.08-3.25,0.24c-0.89,0.16-1.62,0.37-2.18,0.63c-0.56,0.26-0.97,0.57-1.22,0.92c-0.25,0.35-0.38,0.75-0.38,1.19
					c0,0.42,0.07,0.78,0.2,1.08c0.13,0.3,0.32,0.55,0.54,0.74c0.23,0.19,0.5,0.33,0.81,0.42
					C219.09,162.1,219.43,162.14,219.79,162.14z"/>
				<path class="st1" d="M231.17,163.84V148.1h1.65c0.39,0,0.64,0.19,0.75,0.58l0.22,1.71c0.68-0.76,1.45-1.37,2.29-1.83
					c0.84-0.47,1.82-0.7,2.93-0.7c0.86,0,1.62,0.14,2.28,0.43s1.21,0.69,1.65,1.21c0.44,0.52,0.77,1.15,1,1.89
					c0.23,0.74,0.34,1.55,0.34,2.44v10.02h-2.77v-10.02c0-1.19-0.27-2.12-0.82-2.77c-0.54-0.66-1.38-0.99-2.49-0.99
					c-0.82,0-1.58,0.2-2.29,0.59c-0.71,0.39-1.37,0.93-1.97,1.6v11.59H231.17z"/>
				<path class="st1" d="M257.46,150.69c-0.12,0.23-0.32,0.34-0.58,0.34c-0.16,0-0.33-0.06-0.53-0.17c-0.2-0.11-0.44-0.24-0.72-0.38
					c-0.29-0.14-0.62-0.27-1.02-0.39c-0.39-0.12-0.86-0.18-1.4-0.18c-0.47,0-0.89,0.06-1.26,0.18s-0.69,0.28-0.96,0.49
					s-0.47,0.45-0.61,0.72c-0.14,0.27-0.21,0.57-0.21,0.89c0,0.4,0.12,0.74,0.35,1.01c0.23,0.27,0.54,0.5,0.92,0.7
					c0.38,0.2,0.82,0.37,1.31,0.52c0.49,0.15,0.99,0.31,1.5,0.48c0.51,0.17,1.01,0.36,1.5,0.57c0.49,0.21,0.92,0.47,1.31,0.78
					s0.69,0.69,0.92,1.14c0.23,0.45,0.35,0.99,0.35,1.62c0,0.73-0.13,1.4-0.39,2.01c-0.26,0.62-0.64,1.15-1.15,1.6
					c-0.51,0.45-1.13,0.81-1.86,1.06c-0.74,0.26-1.58,0.39-2.55,0.39c-1.1,0-2.09-0.18-2.98-0.54c-0.89-0.36-1.65-0.82-2.27-1.38
					l0.65-1.06c0.08-0.13,0.18-0.24,0.29-0.31c0.11-0.07,0.26-0.11,0.45-0.11s0.38,0.07,0.59,0.22c0.21,0.15,0.46,0.31,0.75,0.48
					s0.65,0.34,1.07,0.48c0.42,0.15,0.95,0.22,1.58,0.22c0.54,0,1.01-0.07,1.41-0.21c0.4-0.14,0.74-0.33,1.01-0.57
					c0.27-0.24,0.47-0.51,0.6-0.82s0.19-0.64,0.19-1c0-0.43-0.12-0.79-0.35-1.08c-0.23-0.29-0.54-0.53-0.92-0.73
					s-0.82-0.38-1.31-0.53s-0.99-0.31-1.51-0.47c-0.51-0.17-1.02-0.35-1.51-0.57c-0.49-0.21-0.93-0.48-1.31-0.8
					s-0.69-0.72-0.92-1.19c-0.23-0.47-0.35-1.04-0.35-1.72c0-0.6,0.12-1.18,0.37-1.73c0.25-0.55,0.61-1.04,1.09-1.46
					c0.48-0.42,1.06-0.75,1.76-1c0.69-0.25,1.49-0.37,2.38-0.37c1.04,0,1.97,0.16,2.79,0.49c0.82,0.33,1.54,0.78,2.14,1.34
					L257.46,150.69z"/>
				<path class="st1" d="M262.56,163.84v-13.38l-1.74-0.2c-0.22-0.05-0.4-0.13-0.54-0.24s-0.21-0.27-0.21-0.47v-1.13h2.49v-1.52
					c0-0.9,0.13-1.7,0.38-2.4s0.62-1.29,1.09-1.77c0.47-0.48,1.04-0.85,1.7-1.1c0.66-0.25,1.41-0.37,2.24-0.37
					c0.7,0,1.36,0.1,1.96,0.31l-0.06,1.38c-0.01,0.21-0.1,0.33-0.26,0.37c-0.17,0.04-0.4,0.06-0.7,0.06h-0.48
					c-0.48,0-0.91,0.06-1.3,0.19c-0.39,0.12-0.72,0.33-1,0.61s-0.49,0.65-0.65,1.1c-0.15,0.46-0.23,1.02-0.23,1.69v1.45h4.55v2
					h-4.46v13.43H262.56z"/>
				<path class="st1" d="M278.78,147.85c1.15,0,2.19,0.19,3.12,0.58c0.93,0.38,1.71,0.93,2.36,1.63c0.65,0.7,1.14,1.56,1.49,2.56
					c0.35,1,0.52,2.12,0.52,3.35c0,1.24-0.17,2.36-0.52,3.36c-0.35,0.99-0.84,1.84-1.49,2.55c-0.65,0.71-1.44,1.25-2.36,1.62
					s-1.97,0.57-3.12,0.57s-2.19-0.19-3.12-0.57c-0.93-0.38-1.72-0.92-2.37-1.62c-0.65-0.7-1.16-1.55-1.51-2.55
					c-0.35-1-0.53-2.11-0.53-3.36c0-1.23,0.18-2.35,0.53-3.35c0.35-1,0.85-1.85,1.51-2.56c0.65-0.7,1.44-1.25,2.37-1.63
					C276.59,148.04,277.63,147.85,278.78,147.85z M278.78,161.9c1.55,0,2.71-0.52,3.48-1.56s1.15-2.49,1.15-4.36
					c0-1.88-0.38-3.33-1.15-4.38c-0.77-1.05-1.93-1.57-3.48-1.57c-0.79,0-1.47,0.13-2.05,0.4c-0.58,0.27-1.06,0.66-1.45,1.17
					s-0.68,1.13-0.87,1.87c-0.19,0.74-0.29,1.58-0.29,2.51c0,0.93,0.1,1.77,0.29,2.5c0.19,0.74,0.48,1.35,0.87,1.86
					c0.39,0.5,0.87,0.89,1.45,1.16C277.31,161.76,277.99,161.9,278.78,161.9z"/>
				<path class="st1" d="M289.69,163.84V148.1h1.58c0.3,0,0.51,0.06,0.62,0.17c0.11,0.11,0.19,0.31,0.23,0.59l0.19,2.46
					c0.54-1.1,1.2-1.96,2-2.57s1.72-0.92,2.79-0.92c0.44,0,0.83,0.05,1.18,0.15s0.68,0.24,0.98,0.41l-0.36,2.07
					c-0.07,0.26-0.23,0.39-0.48,0.39c-0.15,0-0.37-0.05-0.67-0.15c-0.3-0.1-0.72-0.15-1.26-0.15c-0.96,0-1.77,0.28-2.42,0.84
					c-0.65,0.56-1.19,1.37-1.62,2.44v10.02H289.69z"/>
				<path class="st1" d="M302.21,163.84V148.1h1.65c0.39,0,0.64,0.19,0.75,0.58l0.2,1.62c0.58-0.71,1.23-1.3,1.95-1.76
					c0.72-0.46,1.56-0.68,2.51-0.68c1.07,0,1.93,0.3,2.59,0.89c0.66,0.59,1.13,1.39,1.42,2.39c0.22-0.57,0.51-1.06,0.86-1.48
					s0.76-0.76,1.2-1.03s0.92-0.47,1.42-0.59c0.5-0.12,1.01-0.19,1.53-0.19c0.83,0,1.57,0.13,2.21,0.4c0.65,0.26,1.2,0.65,1.65,1.16
					c0.45,0.51,0.79,1.13,1.03,1.87c0.24,0.74,0.36,1.59,0.36,2.54v10.02h-2.77v-10.02c0-1.23-0.27-2.17-0.81-2.81
					c-0.54-0.64-1.32-0.96-2.35-0.96c-0.46,0-0.89,0.08-1.3,0.24c-0.41,0.16-0.77,0.4-1.08,0.71c-0.31,0.31-0.56,0.7-0.74,1.17
					c-0.18,0.47-0.27,1.02-0.27,1.64v10.02h-2.77v-10.02c0-1.26-0.25-2.21-0.76-2.83c-0.51-0.62-1.25-0.93-2.22-0.93
					c-0.68,0-1.32,0.18-1.9,0.55c-0.59,0.37-1.12,0.87-1.61,1.5v11.73H302.21z"/>
				<path class="st1" d="M341.71,141.32c0.82,0,1.56,0.13,2.24,0.4c0.67,0.26,1.26,0.61,1.75,1.05c0.49,0.43,0.88,0.94,1.17,1.51
					c0.28,0.58,0.45,1.17,0.49,1.79l-1.73,0.34c-0.05,0.01-0.1,0.02-0.14,0.02c-0.13,0-0.26-0.04-0.38-0.11s-0.2-0.2-0.26-0.39
					c-0.07-0.27-0.19-0.55-0.35-0.84c-0.16-0.29-0.37-0.55-0.62-0.79c-0.25-0.24-0.56-0.43-0.92-0.59
					c-0.36-0.16-0.77-0.23-1.25-0.23c-0.52,0-0.98,0.08-1.4,0.25c-0.41,0.17-0.77,0.4-1.06,0.69c-0.3,0.29-0.52,0.64-0.68,1.04
					c-0.16,0.4-0.24,0.83-0.24,1.3c0,0.36,0.04,0.71,0.13,1.04c0.09,0.33,0.22,0.67,0.4,1s0.4,0.68,0.68,1.04s0.62,0.73,1.01,1.13
					l6.4,6.51c0.39-0.69,0.71-1.42,0.94-2.18c0.23-0.76,0.39-1.53,0.47-2.29c0.02-0.2,0.08-0.35,0.19-0.47s0.25-0.17,0.44-0.17h1.71
					c-0.02,1.19-0.21,2.36-0.58,3.51c-0.36,1.15-0.89,2.23-1.57,3.23l4.66,4.72h-2.67c-0.3,0-0.54-0.04-0.73-0.11
					s-0.39-0.22-0.62-0.45l-2.24-2.25c-0.97,0.94-2.1,1.69-3.36,2.24c-1.27,0.55-2.67,0.82-4.19,0.82c-0.83,0-1.64-0.14-2.44-0.42
					c-0.8-0.28-1.51-0.69-2.14-1.22c-0.63-0.53-1.13-1.18-1.52-1.95s-0.57-1.63-0.57-2.59c0-0.73,0.12-1.41,0.36-2.06
					c0.24-0.65,0.58-1.25,1.01-1.79c0.43-0.55,0.94-1.04,1.53-1.48c0.59-0.44,1.24-0.81,1.94-1.12c-0.63-0.8-1.1-1.57-1.4-2.33
					c-0.3-0.76-0.45-1.54-0.45-2.35c0-0.76,0.14-1.47,0.41-2.13c0.27-0.66,0.67-1.24,1.19-1.73c0.52-0.49,1.15-0.88,1.89-1.17
					S340.79,141.32,341.71,141.32z M335.54,157.68c0,0.67,0.12,1.27,0.37,1.78c0.25,0.51,0.57,0.95,0.98,1.3
					c0.4,0.35,0.86,0.62,1.38,0.8s1.05,0.27,1.58,0.27c1.16,0,2.2-0.21,3.12-0.64c0.92-0.42,1.73-0.99,2.44-1.69l-6.57-6.63
					c-1.1,0.59-1.92,1.3-2.48,2.12S335.54,156.71,335.54,157.68z"/>
				<path class="st1" d="M377.17,141.57v2.53h-7.19v19.74h-3.01V144.1h-7.23v-2.53H377.17z"/>
				<path class="st1" d="M379.91,163.84v-22.89h2.77v9.26c0.67-0.71,1.42-1.29,2.24-1.72s1.76-0.65,2.83-0.65
					c0.86,0,1.62,0.14,2.28,0.43s1.21,0.69,1.65,1.21s0.77,1.15,1,1.89c0.23,0.74,0.34,1.55,0.34,2.44v10.02h-2.77v-10.02
					c0-1.19-0.27-2.12-0.82-2.77c-0.54-0.66-1.38-0.99-2.49-0.99c-0.82,0-1.58,0.2-2.29,0.59c-0.71,0.39-1.36,0.93-1.96,1.6v11.59
					H379.91z"/>
				<path class="st1" d="M397.19,163.84V148.1h1.58c0.3,0,0.51,0.06,0.62,0.17c0.11,0.11,0.19,0.31,0.23,0.59l0.19,2.46
					c0.54-1.1,1.21-1.96,2-2.57c0.79-0.62,1.72-0.92,2.79-0.92c0.44,0,0.83,0.05,1.18,0.15c0.35,0.1,0.68,0.24,0.98,0.41l-0.36,2.07
					c-0.07,0.26-0.23,0.39-0.48,0.39c-0.15,0-0.37-0.05-0.67-0.15c-0.3-0.1-0.72-0.15-1.26-0.15c-0.96,0-1.77,0.28-2.42,0.84
					c-0.65,0.56-1.19,1.37-1.62,2.44v10.02H397.19z"/>
				<path class="st1" d="M413.41,143.16c0,0.27-0.05,0.52-0.16,0.75c-0.11,0.23-0.25,0.44-0.43,0.62c-0.18,0.18-0.39,0.32-0.63,0.43
					s-0.49,0.16-0.76,0.16c-0.27,0-0.52-0.05-0.75-0.16c-0.23-0.1-0.44-0.25-0.62-0.43c-0.18-0.18-0.32-0.39-0.43-0.62
					c-0.1-0.23-0.16-0.48-0.16-0.75s0.05-0.53,0.16-0.77s0.25-0.46,0.43-0.64c0.18-0.18,0.39-0.32,0.62-0.43
					c0.23-0.1,0.48-0.16,0.75-0.16c0.27,0,0.52,0.05,0.76,0.16s0.45,0.25,0.63,0.43c0.18,0.18,0.33,0.39,0.43,0.64
					C413.36,142.63,413.41,142.89,413.41,143.16z M412.79,148.1v15.74h-2.77V148.1H412.79z"/>
				<path class="st1" d="M415.68,148.1h2.27c0.22,0,0.4,0.06,0.54,0.17c0.14,0.11,0.25,0.25,0.31,0.4l3.99,10.13
					c0.15,0.37,0.26,0.75,0.34,1.12s0.16,0.74,0.23,1.1c0.08-0.36,0.17-0.73,0.26-1.1c0.09-0.37,0.21-0.75,0.36-1.12l4.04-10.13
					c0.06-0.17,0.16-0.3,0.3-0.41s0.31-0.16,0.52-0.16h2.16l-6.42,15.74h-2.5L415.68,148.1z"/>
				<path class="st1" d="M439.41,147.85c0.94,0,1.81,0.16,2.61,0.47c0.8,0.32,1.49,0.77,2.07,1.37c0.58,0.6,1.03,1.33,1.36,2.21
					c0.33,0.88,0.49,1.87,0.49,2.99c0,0.43-0.05,0.72-0.14,0.87c-0.09,0.14-0.27,0.22-0.53,0.22h-10.47c0.02,1,0.16,1.86,0.4,2.6
					c0.25,0.74,0.59,1.35,1.03,1.84c0.44,0.49,0.95,0.86,1.55,1.1s1.27,0.37,2.02,0.37c0.69,0,1.29-0.08,1.79-0.24
					c0.5-0.16,0.93-0.33,1.3-0.52c0.36-0.19,0.67-0.36,0.91-0.52c0.24-0.16,0.45-0.24,0.63-0.24c0.23,0,0.4,0.09,0.53,0.26
					l0.78,1.01c-0.34,0.42-0.75,0.78-1.23,1.08c-0.48,0.31-0.99,0.56-1.53,0.75c-0.54,0.2-1.11,0.34-1.69,0.44
					c-0.58,0.1-1.16,0.15-1.72,0.15c-1.09,0-2.09-0.18-3.01-0.55c-0.92-0.37-1.71-0.91-2.38-1.62c-0.67-0.71-1.19-1.59-1.56-2.63
					s-0.56-2.25-0.56-3.61c0-1.1,0.17-2.12,0.5-3.08c0.34-0.95,0.82-1.78,1.45-2.48s1.4-1.25,2.32-1.65
					C437.24,148.05,438.27,147.85,439.41,147.85z M439.47,149.88c-1.34,0-2.39,0.39-3.16,1.16c-0.77,0.77-1.24,1.84-1.43,3.21h8.56
					c0-0.64-0.09-1.23-0.26-1.76c-0.18-0.53-0.44-0.99-0.78-1.38s-0.76-0.69-1.25-0.9C440.66,149.99,440.1,149.88,439.47,149.88z"/>
			</g>
		</g>
	</g>
	<g>
		<g>
			<g>
				<g>
					<g>
						<path class="st1" d="M693.07,112.7l-1.7,0.66l-9.43,3.65l-0.32-0.31l-7.19-6.88c-0.08,0.39-0.16,0.76-0.25,1.14
							c-0.1,0.44-0.21,0.88-0.33,1.32c-0.09,0.38-0.2,0.76-0.31,1.13c-0.02,0.08-0.04,0.16-0.06,0.24
							c-0.12,0.41-0.24,0.83-0.38,1.24c-0.11,0.35-0.22,0.7-0.34,1.05c-0.05,0.14-0.1,0.28-0.14,0.42c-0.13,0.37-0.26,0.74-0.4,1.11
							c-0.14,0.39-0.28,0.77-0.44,1.15c-0.03,0.09-0.06,0.16-0.09,0.24c-0.12,0.32-0.26,0.64-0.39,0.96
							c-0.15,0.34-0.3,0.69-0.46,1.03c-0.12,0.28-0.25,0.55-0.38,0.82c-0.27,0.57-0.54,1.13-0.83,1.69
							c-0.21,0.41-0.43,0.81-0.65,1.21c-0.15,0.29-0.32,0.57-0.48,0.85c-0.41,0.74-0.86,1.47-1.32,2.18
							c-0.16,0.27-0.33,0.53-0.51,0.79c-0.51,0.76-1.03,1.52-1.58,2.26c-4.33,5.85-9.92,10.9-16.68,14.7
							c-25.6,14.36-57.99,5.24-72.35-20.34c-1.12-2-2.11-4.06-2.95-6.15c-1.3-3.2-2.25-6.47-2.88-9.78l4.43-0.58l-5.07-3.48
							l-8.99-6.14l-1.23-0.84l-8.54,9.02l-4.92,5.21l2.31-0.3l3.26-0.44c0.03,0.14,0.05,0.29,0.08,0.44
							c1.38,7.61,4.04,15.14,8.04,22.27c2.7,4.81,5.88,9.19,9.43,13.12c0.01,0.01,0.02,0.02,0.01,0.03
							c21.16,23.36,55.81,30.58,84.96,16.29c0,0,0.01,0,0.03-0.01c1.21-0.59,2.4-1.22,3.58-1.88
							C676.84,151,689.17,132.74,693.07,112.7z"/>
						<g>
							<path class="st0" d="M685.2,63.77c-3.64-6.49-8.13-12.19-13.26-17.04c0,0-0.02-0.02-0.04-0.05
								c-0.02-0.02-0.04-0.05-0.07-0.06c-14.59-13.77-34.28-20.74-54.04-19.47l0-0.01c-0.01,0-0.02,0-0.03,0.01
								c-10.42,0.67-20.85,3.62-30.57,9.07c-22.66,12.71-35.77,35.86-36.7,60.04l1.47-1.03l8.15-5.72l0.55,0.32l8.77,4.98
								c0.02-0.27,0.05-0.54,0.08-0.81c-0.01,0,0-0.01,0.01-0.02c0.03-0.39,0.08-0.79,0.12-1.2c0.03-0.24,0.06-0.49,0.09-0.72
								c0.05-0.39,0.11-0.79,0.17-1.19c0.08-0.51,0.16-1.02,0.26-1.54c-0.01-0.01-0.01-0.03,0.01-0.05c0.07-0.41,0.14-0.8,0.24-1.21
								c0.04-0.23,0.1-0.48,0.15-0.72c0.06-0.26,0.11-0.52,0.18-0.77c0.06-0.27,0.13-0.53,0.2-0.79c0.06-0.24,0.12-0.48,0.18-0.71
								c0.1-0.36,0.19-0.71,0.3-1.07c0.03-0.1,0.06-0.21,0.1-0.31c0.12-0.42,0.25-0.84,0.39-1.24c0.03-0.09,0.06-0.18,0.09-0.26
								c0.14-0.45,0.29-0.9,0.45-1.32c0.01-0.06,0.03-0.11,0.06-0.16c0.13-0.38,0.27-0.75,0.42-1.12c0.06-0.16,0.12-0.32,0.19-0.48
								c0.16-0.39,0.31-0.78,0.49-1.15c0.02-0.08,0.06-0.16,0.09-0.24c0.18-0.42,0.36-0.83,0.56-1.24c0.03-0.07,0.06-0.13,0.09-0.2
								c0.17-0.36,0.33-0.71,0.52-1.06c0.08-0.18,0.18-0.35,0.26-0.52c0.21-0.41,0.42-0.82,0.64-1.22c0.25-0.47,0.51-0.93,0.79-1.39
								c0-0.01,0-0.01,0.01-0.01c0.25-0.44,0.52-0.88,0.79-1.31c0.02-0.03,0.03-0.06,0.05-0.09c0.28-0.45,0.57-0.9,0.87-1.33
								c0.24-0.36,0.49-0.72,0.74-1.07c0.38-0.54,0.77-1.07,1.17-1.59c0.23-0.31,0.46-0.61,0.7-0.9c0.12-0.15,0.23-0.29,0.34-0.43
								c0.22-0.28,0.45-0.55,0.69-0.81l0-0.01c0.1-0.12,0.19-0.23,0.3-0.34c0.35-0.42,0.72-0.82,1.09-1.22
								c0.21-0.23,0.42-0.46,0.65-0.69c0.21-0.23,0.43-0.45,0.65-0.67c0.33-0.34,0.68-0.68,1.02-1.01c0.26-0.25,0.53-0.5,0.8-0.75
								c1.1-1.01,2.25-1.98,3.45-2.9c0.29-0.24,0.59-0.46,0.89-0.68c0.52-0.39,1.04-0.76,1.57-1.12c0.38-0.27,0.77-0.52,1.16-0.77
								c0.14-0.08,0.26-0.17,0.39-0.25c0.81-0.53,1.65-1.02,2.49-1.5c7.81-4.38,16.25-6.58,24.61-6.79
								c19.07-0.48,37.77,9.35,47.75,27.14c3.96,7.06,6.14,14.65,6.66,22.23l-3.02-0.19l-1.55-0.11l12.94,13.03l0.92,0.92
								l13.64-10.87l1.52-1.21l-1.92-0.13l-3.6-0.23c0-0.07,0-0.13-0.01-0.2C693.93,85.19,690.98,74.08,685.2,63.77z"/>
						</g>
					</g>
					<path class="st2" d="M617.79,27.15L617.79,27.15c-0.01,0-0.03,0-0.03,0C617.78,27.14,617.79,27.15,617.79,27.15z"/>
				</g>
			</g>
		</g>
		<path class="st3" d="M604.04,113.31l1.49-2.76l17,18.95l17.12-18.72l1.37,2.54l8.74,16.18h9.75l-14.65-27.12h-9.75l-12.58,14.4
			l-12.58-14.4h-9.75l-14.64,27.12h9.75L604.04,113.31z M611.55,99.39l10.97-20.32l10.97,20.32h9.75l-2.24-4.14L622.53,61
			l-18.49,34.24l-2.24,4.14H611.55z"/>
	</g>
</g>
</svg>
