<?xml version="1.0" encoding="utf-8"?>
<!-- Generator: Adobe Illustrator 28.0.0, SVG Export Plug-In . SVG Version: 6.00 Build 0)  -->
<svg version="1.1" id="Layer_1" xmlns="http://www.w3.org/2000/svg" xmlns:xlink="http://www.w3.org/1999/xlink" x="0px" y="0px"
	 viewBox="0 0 720 198" style="enable-background:new 0 0 720 198;" xml:space="preserve">
<style type="text/css">
	.st0{fill:#1A1A1A;}
	.st1{opacity:0.2;fill:#1A1A1A;}
	.st2{fill-rule:evenodd;clip-rule:evenodd;fill:#1A1A1A;}
</style>
<g>
	<g>
		<path class="st0" d="M35.84,116.85l16.09-80.43h15.69l16.09,80.43H70.1l-3.18-18.57h-14l-3.28,18.57H35.84z M54.41,88.95h10.92
			l-5.46-33.76L54.41,88.95z"/>
		<path class="st0" d="M91.75,116.85V36.42h19.26c5.43,0,10.01,0.65,13.75,1.94c3.74,1.29,6.59,3.49,8.54,6.6
			c1.95,3.11,2.93,7.35,2.93,12.71c0,3.24-0.3,6.16-0.89,8.74c-0.6,2.58-1.61,4.78-3.03,6.6c-1.42,1.82-3.39,3.23-5.91,4.22
			l11.22,39.62h-14.7l-9.73-36.84h-6.75v36.84H91.75z M106.44,70.78h4.57c2.85,0,5.11-0.41,6.8-1.24c1.69-0.83,2.9-2.15,3.62-3.97
			c0.73-1.82,1.09-4.15,1.09-7c0-4.04-0.74-7.07-2.23-9.08c-1.49-2.02-4.32-3.03-8.49-3.03h-5.36V70.78z"/>
		<path class="st0" d="M156.78,116.85V86.17L140.5,36.42h13.7l9.93,31.87l9.33-31.87h13.4l-16.09,49.75v30.68H156.78z"/>
		<path class="st0" d="M185.68,116.85l16.09-80.43h15.69l16.09,80.43h-13.6l-3.18-18.57h-14l-3.28,18.57H185.68z M204.25,88.95
			h10.92l-5.46-33.76L204.25,88.95z"/>
		<path class="st0" d="M265.51,116.85l1.39-80.43h15.19l11.42,55.7l11.92-55.7h14.7l1.49,80.43h-10.92l-1.19-55.9l-11.42,55.9h-8.84
			l-11.62-56.1l-1.09,56.1H265.51z"/>
		<path class="st0" d="M333.92,116.85V36.42h14.5v80.43H333.92z"/>
		<path class="st0" d="M360.83,116.85V36.42h10.23l19.56,45.87V36.42h12.11v80.43H393l-19.66-48.06v48.06H360.83z"/>
		<path class="st0" d="M414.94,116.85V36.42h18.97c6.55,0,11.67,0.89,15.34,2.68c3.67,1.79,6.29,4.53,7.84,8.24
			c1.55,3.71,2.33,8.41,2.33,14.1v29.39c0,5.83-0.78,10.67-2.33,14.55c-1.56,3.87-4.14,6.75-7.74,8.64
			c-3.61,1.89-8.56,2.83-14.84,2.83H414.94z M429.64,106.62h4.47c3.38,0,5.79-0.6,7.25-1.79c1.46-1.19,2.35-2.93,2.68-5.21
			c0.33-2.28,0.5-5.08,0.5-8.39V60.45c0-3.24-0.23-5.86-0.7-7.84c-0.46-1.99-1.42-3.44-2.88-4.37c-1.46-0.93-3.81-1.39-7.05-1.39
			h-4.27V106.62z"/>
		<path class="st0" d="M490.51,117.94c-4.83,0-8.87-0.94-12.11-2.83c-3.24-1.89-5.69-4.65-7.35-8.29c-1.66-3.64-2.58-8.11-2.78-13.4
			l12.61-2.48c0.13,3.11,0.51,5.86,1.14,8.24c0.63,2.38,1.59,4.22,2.88,5.51c1.29,1.29,2.99,1.94,5.11,1.94
			c2.38,0,4.07-0.71,5.06-2.13c0.99-1.42,1.49-3.23,1.49-5.41c0-3.51-0.79-6.39-2.38-8.64c-1.59-2.25-3.71-4.5-6.35-6.75
			l-10.13-8.94c-2.85-2.45-5.11-5.18-6.8-8.19c-1.69-3.01-2.53-6.74-2.53-11.17c0-6.35,1.85-11.25,5.56-14.7
			c3.71-3.44,8.77-5.16,15.19-5.16c3.77,0,6.92,0.58,9.43,1.74c2.51,1.16,4.52,2.77,6.01,4.82c1.49,2.05,2.6,4.39,3.33,7
			c0.73,2.62,1.19,5.38,1.39,8.29l-12.51,2.18c-0.13-2.51-0.41-4.77-0.84-6.75c-0.43-1.99-1.19-3.54-2.28-4.67
			c-1.09-1.12-2.7-1.69-4.82-1.69c-2.18,0-3.86,0.71-5.01,2.13c-1.16,1.42-1.74,3.19-1.74,5.31c0,2.71,0.56,4.95,1.69,6.7
			c1.12,1.75,2.75,3.56,4.87,5.41l10.03,8.84c3.31,2.78,6.14,6.04,8.49,9.78c2.35,3.74,3.53,8.26,3.53,13.55
			c0,3.84-0.84,7.25-2.53,10.23c-1.69,2.98-4.04,5.31-7.05,7C498.07,117.1,494.54,117.94,490.51,117.94z"/>
	</g>
	<g>
		<g>
			<path class="st0" d="M122.22,139.8v2.43h-6.9v18.91h-2.89v-18.91h-6.92v-2.43H122.22z"/>
			<path class="st0" d="M124.84,161.14V139.2h2.65v8.88c0.65-0.69,1.36-1.23,2.14-1.65c0.78-0.41,1.69-0.62,2.71-0.62
				c0.82,0,1.55,0.14,2.18,0.41c0.63,0.27,1.16,0.66,1.58,1.16c0.42,0.5,0.74,1.1,0.96,1.81c0.22,0.71,0.33,1.48,0.33,2.34v9.6
				h-2.65v-9.6c0-1.14-0.26-2.03-0.78-2.66c-0.52-0.63-1.32-0.95-2.39-0.95c-0.78,0-1.52,0.19-2.2,0.57
				c-0.68,0.38-1.31,0.89-1.88,1.53v11.11H124.84z"/>
			<path class="st0" d="M144.95,141.32c0,0.26-0.05,0.5-0.16,0.72c-0.1,0.22-0.24,0.42-0.42,0.6c-0.17,0.17-0.37,0.31-0.6,0.41
				c-0.23,0.1-0.47,0.15-0.73,0.15s-0.5-0.05-0.72-0.15c-0.22-0.1-0.42-0.24-0.6-0.41c-0.17-0.17-0.31-0.37-0.41-0.6
				c-0.1-0.22-0.15-0.46-0.15-0.72s0.05-0.5,0.15-0.74s0.24-0.44,0.41-0.61c0.17-0.17,0.37-0.31,0.6-0.41
				c0.22-0.1,0.46-0.15,0.72-0.15s0.5,0.05,0.73,0.15c0.23,0.1,0.43,0.24,0.6,0.41c0.17,0.17,0.31,0.38,0.42,0.61
				C144.89,140.81,144.95,141.06,144.95,141.32z M144.35,146.05v15.09h-2.65v-15.09H144.35z"/>
			<path class="st0" d="M149.03,161.14v-15.09h1.58c0.38,0,0.62,0.18,0.71,0.55l0.21,1.64c0.66-0.72,1.39-1.31,2.2-1.76
				c0.81-0.45,1.74-0.67,2.81-0.67c0.82,0,1.55,0.14,2.18,0.41c0.63,0.27,1.16,0.66,1.58,1.16c0.42,0.5,0.74,1.1,0.96,1.81
				c0.22,0.71,0.33,1.48,0.33,2.34v9.6h-2.65v-9.6c0-1.14-0.26-2.03-0.78-2.66c-0.52-0.63-1.32-0.95-2.39-0.95
				c-0.78,0-1.52,0.19-2.2,0.57c-0.68,0.38-1.31,0.89-1.88,1.53v11.11H149.03z"/>
			<path class="st0" d="M168.34,139.2v12.91h0.69c0.2,0,0.36-0.03,0.49-0.08c0.13-0.06,0.27-0.17,0.43-0.34l4.77-5.11
				c0.15-0.16,0.3-0.29,0.45-0.39c0.15-0.1,0.35-0.15,0.6-0.15h2.41l-5.55,5.91c-0.14,0.17-0.28,0.32-0.41,0.45
				c-0.13,0.13-0.29,0.24-0.45,0.34c0.18,0.12,0.34,0.26,0.48,0.41c0.14,0.15,0.28,0.33,0.41,0.53l5.9,7.45h-2.38
				c-0.22,0-0.4-0.04-0.56-0.13c-0.15-0.08-0.3-0.22-0.44-0.39l-4.96-6.18c-0.15-0.21-0.3-0.34-0.45-0.41
				c-0.15-0.06-0.37-0.1-0.67-0.1h-0.74v7.21h-2.67V139.2H168.34z"/>
			<path class="st0" d="M180.42,159.3c0-0.23,0.04-0.44,0.13-0.65c0.08-0.2,0.2-0.38,0.36-0.54c0.15-0.15,0.34-0.28,0.56-0.36
				c0.22-0.09,0.46-0.13,0.71-0.13c0.3,0,0.56,0.05,0.8,0.16c0.23,0.11,0.43,0.26,0.58,0.45c0.15,0.19,0.27,0.42,0.35,0.67
				c0.08,0.25,0.12,0.53,0.12,0.83c0,0.45-0.06,0.91-0.19,1.39c-0.13,0.48-0.31,0.96-0.55,1.43c-0.24,0.47-0.53,0.93-0.89,1.38
				c-0.35,0.45-0.75,0.86-1.2,1.24l-0.45-0.43c-0.13-0.12-0.19-0.26-0.19-0.42c0-0.13,0.07-0.26,0.21-0.4
				c0.1-0.11,0.23-0.26,0.38-0.44c0.15-0.18,0.31-0.39,0.47-0.63c0.16-0.24,0.31-0.5,0.44-0.79c0.13-0.29,0.23-0.6,0.29-0.92h-0.19
				c-0.26,0-0.49-0.04-0.7-0.13c-0.21-0.09-0.39-0.22-0.54-0.38c-0.15-0.16-0.27-0.36-0.36-0.58
				C180.46,159.82,180.42,159.57,180.42,159.3z"/>
			<path class="st0" d="M208.21,139.8v2.43h-6.9v18.91h-2.89v-18.91h-6.92v-2.43H208.21z"/>
			<path class="st0" d="M208.44,161.14v-15.09h1.52c0.29,0,0.49,0.05,0.6,0.16c0.11,0.11,0.18,0.3,0.22,0.57l0.18,2.35
				c0.52-1.05,1.15-1.87,1.91-2.47c0.76-0.59,1.65-0.89,2.67-0.89c0.42,0,0.79,0.05,1.13,0.14c0.34,0.09,0.65,0.23,0.94,0.39
				l-0.34,1.98c-0.07,0.25-0.22,0.37-0.46,0.37c-0.14,0-0.35-0.05-0.64-0.14c-0.29-0.09-0.69-0.14-1.21-0.14
				c-0.92,0-1.7,0.27-2.32,0.8c-0.62,0.54-1.14,1.32-1.56,2.34v9.6H208.44z"/>
			<path class="st0" d="M230.96,161.14h-1.18c-0.26,0-0.47-0.04-0.63-0.12c-0.16-0.08-0.26-0.25-0.31-0.51l-0.3-1.4
				c-0.4,0.36-0.78,0.68-1.16,0.96c-0.38,0.28-0.77,0.52-1.19,0.72s-0.86,0.34-1.33,0.44c-0.47,0.1-1,0.15-1.57,0.15
				c-0.59,0-1.13-0.08-1.65-0.25c-0.51-0.16-0.96-0.41-1.33-0.74c-0.38-0.33-0.68-0.74-0.9-1.25c-0.22-0.5-0.34-1.1-0.34-1.79
				c0-0.6,0.16-1.17,0.49-1.73c0.33-0.55,0.86-1.04,1.59-1.47c0.73-0.43,1.69-0.78,2.87-1.05c1.18-0.27,2.63-0.41,4.33-0.41v-1.18
				c0-1.18-0.25-2.07-0.75-2.67c-0.5-0.6-1.24-0.91-2.23-0.91c-0.65,0-1.19,0.08-1.63,0.25c-0.44,0.16-0.82,0.35-1.15,0.55
				c-0.32,0.2-0.6,0.39-0.83,0.55c-0.23,0.16-0.46,0.25-0.69,0.25c-0.18,0-0.34-0.05-0.47-0.14c-0.13-0.09-0.24-0.21-0.32-0.35
				l-0.48-0.85c0.83-0.8,1.73-1.4,2.7-1.8c0.96-0.4,2.03-0.6,3.2-0.6c0.84,0,1.59,0.14,2.25,0.42c0.66,0.28,1.21,0.67,1.65,1.16
				c0.45,0.5,0.78,1.1,1.01,1.8c0.23,0.7,0.34,1.48,0.34,2.32V161.14z M224.08,159.51c0.47,0,0.89-0.05,1.28-0.14
				c0.39-0.09,0.75-0.23,1.09-0.4c0.34-0.17,0.67-0.38,0.98-0.63c0.31-0.25,0.62-0.53,0.92-0.85v-3.11c-1.22,0-2.26,0.08-3.11,0.23
				c-0.85,0.16-1.55,0.36-2.08,0.61c-0.54,0.25-0.93,0.54-1.17,0.88c-0.24,0.34-0.36,0.72-0.36,1.14c0,0.4,0.06,0.74,0.19,1.03
				c0.13,0.29,0.3,0.53,0.52,0.71c0.22,0.19,0.48,0.32,0.77,0.41C223.41,159.47,223.73,159.51,224.08,159.51z"/>
			<path class="st0" d="M234.98,161.14v-15.09h1.58c0.38,0,0.62,0.18,0.71,0.55l0.21,1.64c0.66-0.72,1.39-1.31,2.2-1.76
				c0.81-0.45,1.74-0.67,2.81-0.67c0.82,0,1.55,0.14,2.18,0.41c0.63,0.27,1.16,0.66,1.58,1.16c0.42,0.5,0.74,1.1,0.96,1.81
				c0.22,0.71,0.33,1.48,0.33,2.34v9.6h-2.65v-9.6c0-1.14-0.26-2.03-0.78-2.66c-0.52-0.63-1.32-0.95-2.39-0.95
				c-0.78,0-1.52,0.19-2.2,0.57c-0.68,0.38-1.31,0.89-1.88,1.53v11.11H234.98z"/>
			<path class="st0" d="M260.18,148.54c-0.12,0.22-0.3,0.33-0.55,0.33c-0.15,0-0.32-0.05-0.51-0.16c-0.19-0.11-0.42-0.23-0.69-0.36
				c-0.27-0.13-0.6-0.26-0.98-0.37c-0.38-0.11-0.82-0.17-1.34-0.17c-0.45,0-0.85,0.06-1.21,0.17s-0.66,0.27-0.92,0.47
				c-0.25,0.2-0.45,0.43-0.58,0.69c-0.13,0.26-0.2,0.55-0.2,0.86c0,0.39,0.11,0.71,0.34,0.97c0.22,0.26,0.52,0.48,0.89,0.67
				c0.37,0.19,0.78,0.35,1.25,0.5c0.47,0.14,0.95,0.3,1.44,0.46c0.49,0.16,0.97,0.35,1.44,0.54c0.47,0.2,0.88,0.45,1.25,0.74
				s0.66,0.66,0.89,1.09c0.22,0.43,0.34,0.95,0.34,1.56c0,0.7-0.12,1.34-0.37,1.93c-0.25,0.59-0.62,1.1-1.1,1.53
				c-0.49,0.43-1.08,0.77-1.79,1.02c-0.71,0.25-1.52,0.37-2.44,0.37c-1.05,0-2.01-0.17-2.86-0.51c-0.85-0.34-1.58-0.78-2.17-1.32
				l0.63-1.01c0.08-0.13,0.17-0.23,0.28-0.3c0.11-0.07,0.25-0.1,0.43-0.1s0.37,0.07,0.57,0.21c0.2,0.14,0.44,0.29,0.72,0.46
				c0.28,0.17,0.63,0.32,1.03,0.46c0.4,0.14,0.91,0.21,1.51,0.21c0.52,0,0.97-0.07,1.36-0.2c0.39-0.13,0.71-0.32,0.97-0.54
				c0.26-0.23,0.45-0.49,0.57-0.79c0.12-0.3,0.19-0.62,0.19-0.95c0-0.42-0.11-0.76-0.34-1.03c-0.22-0.27-0.52-0.51-0.89-0.7
				c-0.37-0.19-0.79-0.36-1.26-0.51c-0.47-0.14-0.95-0.3-1.44-0.45c-0.49-0.16-0.97-0.34-1.44-0.54c-0.47-0.2-0.89-0.46-1.26-0.77
				c-0.37-0.31-0.66-0.69-0.89-1.14c-0.22-0.45-0.34-1-0.34-1.65c0-0.58,0.12-1.13,0.36-1.66c0.24-0.53,0.59-1,1.04-1.4
				c0.46-0.4,1.02-0.72,1.68-0.96c0.66-0.24,1.42-0.36,2.28-0.36c0.99,0,1.88,0.16,2.67,0.47c0.79,0.31,1.47,0.74,2.05,1.29
				L260.18,148.54z"/>
			<path class="st0" d="M265.06,161.14v-12.82l-1.67-0.19c-0.21-0.05-0.38-0.13-0.51-0.23c-0.13-0.1-0.2-0.26-0.2-0.45v-1.09h2.38
				v-1.46c0-0.86,0.12-1.63,0.36-2.3c0.24-0.67,0.59-1.24,1.04-1.7c0.45-0.46,1-0.81,1.63-1.05c0.63-0.24,1.35-0.36,2.14-0.36
				c0.68,0,1.3,0.1,1.88,0.3l-0.06,1.33c-0.01,0.2-0.09,0.32-0.25,0.36c-0.16,0.04-0.38,0.06-0.67,0.06h-0.46
				c-0.46,0-0.87,0.06-1.24,0.18c-0.37,0.12-0.69,0.31-0.96,0.58c-0.27,0.27-0.47,0.62-0.62,1.06c-0.14,0.44-0.22,0.98-0.22,1.62
				v1.39H272v1.92h-4.27v12.87H265.06z"/>
			<path class="st0" d="M280.61,145.81c1.1,0,2.1,0.18,2.99,0.55c0.89,0.37,1.64,0.89,2.26,1.56c0.62,0.67,1.1,1.49,1.43,2.45
				c0.33,0.96,0.5,2.03,0.5,3.21c0,1.19-0.17,2.26-0.5,3.22c-0.33,0.95-0.81,1.77-1.43,2.44c-0.62,0.68-1.38,1.19-2.26,1.56
				s-1.88,0.54-2.99,0.54s-2.1-0.18-2.99-0.54c-0.89-0.36-1.65-0.88-2.27-1.56c-0.63-0.67-1.11-1.49-1.44-2.44
				c-0.34-0.95-0.51-2.03-0.51-3.22c0-1.18,0.17-2.25,0.51-3.21c0.34-0.96,0.82-1.77,1.44-2.45c0.63-0.67,1.38-1.2,2.27-1.56
				C278.51,146,279.51,145.81,280.61,145.81z M280.61,159.27c1.49,0,2.6-0.5,3.34-1.5c0.73-1,1.1-2.39,1.1-4.18
				c0-1.8-0.37-3.2-1.1-4.2c-0.73-1-1.85-1.5-3.34-1.5c-0.75,0-1.41,0.13-1.97,0.39c-0.56,0.26-1.02,0.63-1.39,1.12
				c-0.37,0.49-0.65,1.08-0.83,1.79c-0.18,0.71-0.28,1.51-0.28,2.4c0,0.89,0.09,1.69,0.28,2.4c0.18,0.71,0.46,1.3,0.83,1.78
				c0.37,0.48,0.84,0.85,1.39,1.11C279.2,159.15,279.86,159.27,280.61,159.27z"/>
			<path class="st0" d="M291.06,161.14v-15.09h1.52c0.29,0,0.49,0.05,0.6,0.16c0.11,0.11,0.18,0.3,0.22,0.57l0.18,2.35
				c0.52-1.05,1.15-1.87,1.91-2.47c0.76-0.59,1.65-0.89,2.67-0.89c0.42,0,0.79,0.05,1.13,0.14c0.34,0.09,0.65,0.23,0.94,0.39
				l-0.34,1.98c-0.07,0.25-0.22,0.37-0.46,0.37c-0.14,0-0.35-0.05-0.64-0.14c-0.29-0.09-0.69-0.14-1.21-0.14
				c-0.92,0-1.7,0.27-2.32,0.8c-0.62,0.54-1.14,1.32-1.56,2.34v9.6H291.06z"/>
			<path class="st0" d="M303.07,161.14v-15.09h1.58c0.38,0,0.62,0.18,0.71,0.55l0.19,1.55c0.56-0.68,1.18-1.25,1.87-1.68
				c0.69-0.44,1.49-0.66,2.41-0.66c1.02,0,1.85,0.28,2.48,0.85c0.63,0.57,1.08,1.33,1.36,2.29c0.21-0.55,0.48-1.02,0.83-1.42
				c0.34-0.4,0.73-0.72,1.15-0.98s0.88-0.45,1.36-0.57s0.97-0.18,1.47-0.18c0.79,0,1.5,0.13,2.12,0.38
				c0.62,0.25,1.15,0.62,1.58,1.11c0.43,0.49,0.76,1.09,0.99,1.79c0.23,0.71,0.34,1.52,0.34,2.44v9.6h-2.65v-9.6
				c0-1.18-0.26-2.08-0.77-2.69c-0.52-0.61-1.27-0.92-2.25-0.92c-0.44,0-0.85,0.08-1.24,0.23c-0.39,0.15-0.74,0.38-1.04,0.68
				c-0.3,0.3-0.53,0.67-0.71,1.12c-0.17,0.45-0.26,0.98-0.26,1.57v9.6h-2.65v-9.6c0-1.21-0.24-2.12-0.73-2.71
				c-0.49-0.6-1.2-0.89-2.13-0.89c-0.66,0-1.26,0.18-1.82,0.53c-0.56,0.35-1.07,0.83-1.54,1.44v11.24H303.07z"/>
			<path class="st0" d="M340.92,139.56c0.78,0,1.5,0.13,2.14,0.38c0.65,0.25,1.2,0.59,1.68,1.01c0.47,0.42,0.84,0.9,1.12,1.45
				c0.27,0.55,0.43,1.12,0.47,1.72l-1.65,0.33c-0.05,0.01-0.09,0.01-0.13,0.01c-0.13,0-0.25-0.03-0.36-0.1
				c-0.11-0.07-0.2-0.19-0.25-0.37c-0.07-0.26-0.18-0.53-0.34-0.8c-0.15-0.28-0.35-0.53-0.6-0.76c-0.24-0.23-0.54-0.42-0.88-0.57
				c-0.34-0.15-0.74-0.22-1.2-0.22c-0.5,0-0.94,0.08-1.34,0.24c-0.4,0.16-0.74,0.38-1.02,0.66c-0.28,0.28-0.5,0.61-0.66,1
				c-0.15,0.38-0.23,0.8-0.23,1.24c0,0.35,0.04,0.68,0.13,1c0.08,0.32,0.21,0.64,0.38,0.96c0.17,0.32,0.39,0.66,0.66,1
				s0.59,0.7,0.97,1.08l6.14,6.24c0.38-0.67,0.68-1.36,0.9-2.09c0.22-0.73,0.37-1.46,0.45-2.2c0.02-0.19,0.08-0.34,0.18-0.45
				s0.24-0.16,0.42-0.16h1.64c-0.02,1.14-0.2,2.26-0.55,3.37c-0.35,1.1-0.85,2.13-1.5,3.1l4.47,4.53h-2.56
				c-0.29,0-0.52-0.03-0.7-0.1c-0.18-0.07-0.38-0.21-0.6-0.43l-2.14-2.16c-0.93,0.9-2.01,1.62-3.22,2.14
				c-1.22,0.53-2.55,0.79-4.01,0.79c-0.79,0-1.57-0.13-2.34-0.4c-0.76-0.27-1.45-0.66-2.05-1.17c-0.6-0.51-1.08-1.13-1.45-1.87
				c-0.37-0.73-0.55-1.56-0.55-2.49c0-0.7,0.12-1.35,0.35-1.97c0.23-0.62,0.56-1.19,0.97-1.72c0.41-0.53,0.9-1,1.47-1.41
				c0.57-0.42,1.19-0.77,1.86-1.07c-0.61-0.76-1.05-1.51-1.34-2.23c-0.29-0.72-0.43-1.47-0.43-2.25c0-0.72,0.13-1.4,0.39-2.04
				c0.26-0.63,0.64-1.19,1.14-1.66c0.5-0.47,1.1-0.84,1.81-1.12C339.24,139.69,340.04,139.56,340.92,139.56z M335.01,155.24
				c0,0.64,0.12,1.21,0.36,1.71c0.24,0.49,0.55,0.91,0.94,1.24c0.39,0.34,0.83,0.59,1.33,0.77s1,0.26,1.52,0.26
				c1.11,0,2.11-0.2,2.99-0.61c0.88-0.41,1.66-0.95,2.34-1.62l-6.3-6.36c-1.05,0.57-1.84,1.24-2.38,2.03
				C335.28,153.44,335.01,154.31,335.01,155.24z"/>
			<path class="st0" d="M374.9,139.8v2.43h-6.89v18.91h-2.89v-18.91h-6.92v-2.43H374.9z"/>
			<path class="st0" d="M377.53,161.14V139.2h2.65v8.88c0.64-0.69,1.36-1.23,2.14-1.65c0.78-0.41,1.69-0.62,2.71-0.62
				c0.82,0,1.55,0.14,2.18,0.41c0.63,0.27,1.16,0.66,1.58,1.16s0.74,1.1,0.96,1.81c0.22,0.71,0.33,1.48,0.33,2.34v9.6h-2.65v-9.6
				c0-1.14-0.26-2.03-0.78-2.66c-0.52-0.63-1.32-0.95-2.39-0.95c-0.79,0-1.52,0.19-2.2,0.57c-0.68,0.38-1.31,0.89-1.88,1.53v11.11
				H377.53z"/>
			<path class="st0" d="M394.08,161.14v-15.09h1.52c0.29,0,0.49,0.05,0.6,0.16c0.11,0.11,0.18,0.3,0.22,0.57l0.18,2.35
				c0.52-1.05,1.15-1.87,1.91-2.47c0.76-0.59,1.65-0.89,2.67-0.89c0.42,0,0.79,0.05,1.13,0.14c0.34,0.09,0.65,0.23,0.94,0.39
				l-0.34,1.98c-0.07,0.25-0.22,0.37-0.46,0.37c-0.14,0-0.35-0.05-0.64-0.14c-0.29-0.09-0.69-0.14-1.21-0.14
				c-0.92,0-1.7,0.27-2.32,0.8c-0.62,0.54-1.14,1.32-1.56,2.34v9.6H394.08z"/>
			<path class="st0" d="M409.63,141.32c0,0.26-0.05,0.5-0.16,0.72c-0.1,0.22-0.24,0.42-0.42,0.6c-0.17,0.17-0.38,0.31-0.6,0.41
				c-0.23,0.1-0.47,0.15-0.73,0.15c-0.26,0-0.5-0.05-0.72-0.15c-0.22-0.1-0.42-0.24-0.6-0.41c-0.17-0.17-0.31-0.37-0.41-0.6
				c-0.1-0.22-0.15-0.46-0.15-0.72s0.05-0.5,0.15-0.74c0.1-0.23,0.24-0.44,0.41-0.61c0.17-0.17,0.37-0.31,0.6-0.41
				c0.22-0.1,0.46-0.15,0.72-0.15c0.26,0,0.5,0.05,0.73,0.15c0.23,0.1,0.43,0.24,0.6,0.41c0.17,0.17,0.31,0.38,0.42,0.61
				C409.58,140.81,409.63,141.06,409.63,141.32z M409.04,146.05v15.09h-2.65v-15.09H409.04z"/>
			<path class="st0" d="M411.81,146.05h2.17c0.21,0,0.38,0.05,0.52,0.16c0.14,0.11,0.24,0.24,0.3,0.39l3.83,9.71
				c0.14,0.36,0.25,0.71,0.33,1.07c0.08,0.36,0.15,0.71,0.22,1.06c0.08-0.35,0.16-0.7,0.25-1.06c0.09-0.36,0.2-0.72,0.34-1.07
				l3.87-9.71c0.06-0.16,0.16-0.29,0.29-0.39c0.13-0.1,0.3-0.16,0.5-0.16h2.07l-6.15,15.09h-2.4L411.81,146.05z"/>
			<path class="st0" d="M434.55,145.81c0.9,0,1.74,0.15,2.5,0.45c0.76,0.3,1.42,0.74,1.98,1.31c0.56,0.57,0.99,1.28,1.3,2.11
				c0.31,0.84,0.47,1.79,0.47,2.87c0,0.42-0.04,0.69-0.13,0.83c-0.09,0.14-0.26,0.21-0.51,0.21h-10.04
				c0.02,0.95,0.15,1.78,0.39,2.49c0.24,0.7,0.57,1.29,0.98,1.76c0.42,0.47,0.91,0.82,1.49,1.06s1.22,0.35,1.94,0.35
				c0.66,0,1.24-0.08,1.72-0.23c0.48-0.15,0.9-0.32,1.24-0.5c0.35-0.18,0.64-0.34,0.87-0.5c0.23-0.15,0.43-0.23,0.6-0.23
				c0.22,0,0.39,0.08,0.51,0.25l0.74,0.97c-0.33,0.4-0.72,0.74-1.18,1.04c-0.46,0.29-0.95,0.53-1.47,0.72
				c-0.52,0.19-1.06,0.33-1.62,0.42c-0.56,0.09-1.11,0.14-1.65,0.14c-1.04,0-2-0.18-2.88-0.53c-0.88-0.35-1.64-0.87-2.28-1.55
				c-0.64-0.68-1.14-1.52-1.5-2.52c-0.36-1-0.54-2.15-0.54-3.46c0-1.05,0.16-2.03,0.48-2.95c0.32-0.91,0.79-1.71,1.39-2.38
				s1.35-1.2,2.22-1.58C432.47,146,433.45,145.81,434.55,145.81z M434.61,147.76c-1.28,0-2.29,0.37-3.02,1.11
				c-0.73,0.74-1.19,1.77-1.37,3.08h8.2c0-0.62-0.08-1.18-0.25-1.69c-0.17-0.51-0.42-0.95-0.74-1.33c-0.33-0.37-0.73-0.66-1.2-0.86
				C435.75,147.87,435.21,147.76,434.61,147.76z"/>
		</g>
	</g>
	<g>
		<g>
			<g>
				<g>
					<g>
						<path class="st0" d="M677.64,112.13l-1.63,0.63l-9.04,3.5l-0.31-0.3l-6.89-6.59c-0.08,0.37-0.16,0.73-0.24,1.1
							c-0.1,0.42-0.2,0.84-0.31,1.26c-0.09,0.36-0.19,0.72-0.29,1.09c-0.02,0.08-0.04,0.16-0.06,0.23
							c-0.12,0.39-0.23,0.79-0.36,1.19c-0.1,0.33-0.21,0.67-0.32,1c-0.05,0.14-0.09,0.27-0.13,0.4c-0.13,0.36-0.25,0.71-0.38,1.06
							c-0.14,0.37-0.27,0.74-0.42,1.1c-0.03,0.08-0.05,0.16-0.09,0.23c-0.12,0.31-0.25,0.62-0.38,0.92
							c-0.14,0.33-0.29,0.66-0.44,0.99c-0.12,0.27-0.24,0.53-0.36,0.79c-0.25,0.54-0.51,1.08-0.79,1.62
							c-0.2,0.39-0.41,0.77-0.62,1.16c-0.15,0.27-0.3,0.55-0.46,0.82c-0.4,0.71-0.82,1.41-1.27,2.09c-0.16,0.26-0.32,0.51-0.49,0.76
							c-0.48,0.73-0.99,1.46-1.51,2.16c-4.15,5.61-9.51,10.45-15.99,14.08c-24.53,13.77-55.58,5.02-69.34-19.49
							c-1.08-1.92-2.02-3.89-2.82-5.89c-1.24-3.07-2.15-6.2-2.76-9.38l4.25-0.56l-4.86-3.33l-8.61-5.88l-1.18-0.8l-8.18,8.65
							l-4.72,4.99l2.21-0.29l3.13-0.42c0.03,0.14,0.05,0.28,0.08,0.42c1.32,7.29,3.87,14.51,7.71,21.34
							c2.59,4.61,5.63,8.81,9.04,12.57c0.01,0.01,0.02,0.02,0.01,0.03c20.28,22.39,53.48,29.3,81.42,15.61c0,0,0.01,0,0.03-0.01
							c1.16-0.56,2.3-1.16,3.43-1.8C662.08,148.84,673.9,131.34,677.64,112.13z"/>
						<g>
							<path class="st0" d="M670.09,65.24c-3.49-6.22-7.79-11.68-12.7-16.33c0,0-0.02-0.02-0.04-0.04
								c-0.02-0.02-0.04-0.04-0.07-0.06c-13.98-13.2-32.85-19.87-51.79-18.66l0-0.01c-0.01,0-0.02,0-0.03,0.01
								c-9.99,0.64-19.99,3.47-29.3,8.7c-21.71,12.18-34.28,34.37-35.17,57.54l1.41-0.99l7.81-5.48l0.53,0.3l8.41,4.77
								c0.02-0.26,0.04-0.52,0.07-0.78c-0.01,0,0-0.01,0.01-0.02c0.03-0.38,0.07-0.76,0.12-1.15c0.03-0.23,0.06-0.47,0.09-0.69
								c0.05-0.38,0.1-0.76,0.16-1.14c0.07-0.49,0.15-0.98,0.25-1.47c-0.01-0.01-0.01-0.03,0.01-0.05c0.07-0.39,0.14-0.77,0.23-1.16
								c0.04-0.22,0.09-0.46,0.15-0.69c0.05-0.25,0.11-0.5,0.17-0.74c0.06-0.26,0.12-0.51,0.19-0.76c0.05-0.23,0.11-0.46,0.18-0.68
								c0.09-0.34,0.19-0.68,0.29-1.02c0.03-0.1,0.06-0.2,0.09-0.3c0.11-0.41,0.24-0.8,0.37-1.19c0.03-0.09,0.05-0.17,0.09-0.25
								c0.13-0.43,0.28-0.86,0.44-1.27c0.01-0.06,0.03-0.11,0.05-0.16c0.12-0.36,0.26-0.71,0.4-1.07c0.05-0.16,0.12-0.31,0.18-0.46
								c0.15-0.38,0.3-0.75,0.47-1.11c0.02-0.08,0.06-0.15,0.09-0.23c0.17-0.41,0.35-0.8,0.54-1.19c0.03-0.07,0.06-0.12,0.09-0.19
								c0.16-0.34,0.32-0.68,0.49-1.01c0.08-0.17,0.17-0.34,0.25-0.5c0.2-0.39,0.4-0.79,0.62-1.17c0.24-0.45,0.49-0.9,0.76-1.34
								c0-0.01,0-0.01,0.01-0.01c0.24-0.43,0.5-0.85,0.76-1.25c0.01-0.03,0.03-0.06,0.04-0.08c0.27-0.43,0.55-0.86,0.83-1.28
								c0.23-0.35,0.47-0.69,0.71-1.03c0.36-0.52,0.74-1.02,1.12-1.52c0.22-0.3,0.44-0.58,0.67-0.86c0.11-0.14,0.22-0.28,0.33-0.41
								c0.21-0.27,0.43-0.53,0.66-0.78l0-0.01c0.1-0.11,0.19-0.22,0.28-0.33c0.34-0.4,0.69-0.79,1.04-1.17
								c0.2-0.22,0.4-0.44,0.62-0.66c0.2-0.22,0.41-0.43,0.62-0.64c0.32-0.32,0.65-0.65,0.98-0.97c0.25-0.24,0.51-0.48,0.77-0.72
								c1.05-0.97,2.16-1.9,3.31-2.78c0.27-0.23,0.56-0.44,0.85-0.65c0.5-0.37,1-0.73,1.51-1.07c0.37-0.26,0.74-0.5,1.11-0.74
								c0.13-0.08,0.25-0.17,0.38-0.24c0.78-0.5,1.58-0.98,2.39-1.43c7.48-4.2,15.57-6.3,23.59-6.5
								c18.28-0.46,36.19,8.96,45.76,26.01c3.8,6.77,5.89,14.04,6.38,21.3l-2.9-0.18l-1.48-0.11l12.4,12.49l0.88,0.88l13.08-10.42
								l1.46-1.16l-1.84-0.12l-3.45-0.22c0-0.07,0-0.12-0.01-0.19C678.47,85.77,675.64,75.12,670.09,65.24z"/>
						</g>
					</g>
					<path class="st1" d="M605.49,30.14L605.49,30.14c-0.01,0-0.03,0-0.03,0C605.48,30.14,605.49,30.14,605.49,30.14z"/>
				</g>
			</g>
		</g>
		<path class="st2" d="M592.32,112.71l1.43-2.65l16.29,18.16l16.4-17.94l1.32,2.44l8.37,15.51h9.35l-14.04-25.99h-9.34l-12.06,13.8
			l-12.06-13.8h-9.35l-14.03,25.99h9.35L592.32,112.71z M599.52,99.37l10.51-19.48l10.51,19.48h9.35l-2.14-3.97l-17.72-32.82
			L592.32,95.4l-2.14,3.97H599.52z"/>
	</g>
</g>
</svg>
